<svg width="1368" height="2947" viewBox="0 0 1368 2947" fill="none" xmlns="http://www.w3.org/2000/svg">
<g clip-path="url(#clip0_2421_1811)">
<path fill-rule="evenodd" clip-rule="evenodd" d="M1162 193L1355 0L969 -1.68726e-05L1162 193ZM1162 386L1355 193L1162 193L969 193L1162 386ZM1162 579L1355 386L1162 386L969 386L1162 579ZM1162 579L1355 579L1162 772L969 579L1162 579Z" fill="black" fill-opacity="0.2"/>
<path fill-rule="evenodd" clip-rule="evenodd" d="M1013.5 1170H726V1458.67V1747.33H1013.5V2036H1301V1747.33V1458.67H1013.5V1170Z" fill="black" fill-opacity="0.2"/>
<path fill-rule="evenodd" clip-rule="evenodd" d="M366 2307H110V2052.67V1798.33V1544H366H622V1798.33H366V2052.67V2307Z" fill="black" fill-opacity="0.2"/>
<path d="M-102 2307H111.334V2520.33H324.666V2733.67H1429.5V2947H-102V2307Z" fill="black" fill-opacity="0.2"/>
</g>
<defs>
<clipPath id="clip0_2421_1811">
<rect width="1368" height="2947" fill="white"/>
</clipPath>
</defs>
</svg>
