<svg width="26" height="44" viewBox="0 0 26 44" fill="none" xmlns="http://www.w3.org/2000/svg">
<path d="M24.549 20.6293L3.21276 0.522899C2.85675 0.187245 2.38378 -9.9483e-07 1.89192 -1.01633e-06C1.40007 -1.03783e-06 0.927099 0.187244 0.571093 0.522899L0.54812 0.545618C0.374937 0.708337 0.237036 0.904199 0.142802 1.12129C0.0485686 1.33838 -2.68069e-05 1.57217 -2.68173e-05 1.80842C-2.68276e-05 2.04467 0.0485685 2.27846 0.142802 2.49555C0.237036 2.71264 0.374937 2.9085 0.54812 3.07122L20.6401 22.0038L0.548118 40.9288C0.374935 41.0915 0.237035 41.2874 0.142801 41.5044C0.0485668 41.7215 -2.85721e-05 41.9553 -2.85825e-05 42.1916C-2.85928e-05 42.4278 0.0485668 42.6616 0.142801 42.8787C0.237034 43.0958 0.374935 43.2917 0.548118 43.4544L0.571091 43.4771C0.927097 43.8127 1.40007 44 1.89192 44C2.38377 44 2.85675 43.8127 3.21276 43.4771L24.549 23.3707C24.7367 23.1939 24.886 22.9812 24.9881 22.7456C25.0902 22.51 25.1428 22.2563 25.1428 22C25.1428 21.7437 25.0902 21.49 24.9881 21.2544C24.886 21.0188 24.7367 20.8061 24.549 20.6293Z" fill="#F8441C"/>
</svg>
