<svg width="26" height="44" viewBox="0 0 26 44" fill="none" xmlns="http://www.w3.org/2000/svg">
<path d="M0.593803 20.6293L21.9301 0.522899C22.2861 0.187245 22.759 -9.9483e-07 23.2509 -1.01633e-06C23.7427 -1.03783e-06 24.2157 0.187244 24.5717 0.522899L24.5947 0.545618C24.7679 0.708337 24.9058 0.904199 25 1.12129C25.0943 1.33838 25.1428 1.57217 25.1428 1.80842C25.1428 2.04467 25.0943 2.27846 25 2.49555C24.9058 2.71264 24.7679 2.9085 24.5947 3.07122L4.50271 22.0038L24.5947 40.9288C24.7679 41.0915 24.9058 41.2874 25 41.5044C25.0943 41.7215 25.1429 41.9553 25.1429 42.1916C25.1429 42.4278 25.0943 42.6616 25 42.8787C24.9058 43.0958 24.7679 43.2917 24.5947 43.4544L24.5717 43.4771C24.2157 43.8127 23.7427 44 23.2509 44C22.759 44 22.2861 43.8127 21.9301 43.4771L0.593804 23.3707C0.40616 23.1939 0.256775 22.9812 0.154704 22.7456C0.0526329 22.51 9.72855e-07 22.2563 9.61651e-07 22C9.50446e-07 21.7437 0.0526328 21.49 0.154704 21.2544C0.256775 21.0188 0.40616 20.8061 0.593803 20.6293Z" fill="#F8441C"/>
</svg>
