<svg width="1368" height="630" viewBox="0 0 1368 630" fill="none" xmlns="http://www.w3.org/2000/svg">
<path d="M123.259 353.67C92.0111 344.463 59.216 362.332 50.0095 393.58C40.8028 424.829 58.6714 457.624 89.9197 466.83C58.6714 457.624 25.8764 475.491 16.6698 506.74C7.46316 537.989 25.3317 570.784 56.58 579.99C87.8288 589.197 120.623 571.329 129.83 540.08C120.623 571.329 138.491 604.123 169.74 613.33C200.989 622.537 233.783 604.668 242.99 573.42C252.197 542.171 234.329 509.376 203.08 500.17C234.329 509.376 267.123 491.508 276.33 460.259C285.536 429.011 267.668 396.216 236.42 387.01C205.171 377.803 172.376 395.671 163.17 426.92C172.376 395.671 154.508 362.876 123.259 353.67Z" fill="#364BE7" fill-opacity="0.2"/>
<path d="M1364.74 6.5091C1362.94 6.5091 1361.48 5.05199 1361.48 3.25455C1361.48 1.45712 1362.94 8.45707e-06 1364.74 8.53564e-06C1366.54 8.61421e-06 1368 1.45712 1368 3.25455C1368 5.05199 1366.54 6.5091 1364.74 6.5091Z" fill="#D2D6DB" fill-opacity="0.4"/>
<path d="M1364.74 26.0364C1362.94 26.0364 1361.48 24.5793 1361.48 22.7818C1361.48 20.9844 1362.94 19.5273 1364.74 19.5273C1366.54 19.5273 1368 20.9844 1368 22.7818C1368 24.5793 1366.54 26.0364 1364.74 26.0364Z" fill="#D2D6DB" fill-opacity="0.4"/>
<path d="M1364.74 45.5636C1362.94 45.5636 1361.48 44.1065 1361.48 42.3091C1361.48 40.5117 1362.94 39.0546 1364.74 39.0546C1366.54 39.0546 1368 40.5117 1368 42.3091C1368 44.1065 1366.54 45.5636 1364.74 45.5636Z" fill="#D2D6DB" fill-opacity="0.4"/>
<path d="M1364.74 65.0909C1362.94 65.0909 1361.48 63.6338 1361.48 61.8364C1361.48 60.0389 1362.94 58.5818 1364.74 58.5818C1366.54 58.5818 1368 60.0389 1368 61.8364C1368 63.6338 1366.54 65.0909 1364.74 65.0909Z" fill="#D2D6DB" fill-opacity="0.4"/>
<path d="M1364.74 84.6182C1362.94 84.6182 1361.48 83.1611 1361.48 81.3636C1361.48 79.5662 1362.94 78.1091 1364.74 78.1091C1366.54 78.1091 1368 79.5662 1368 81.3636C1368 83.1611 1366.54 84.6182 1364.74 84.6182Z" fill="#D2D6DB" fill-opacity="0.4"/>
<path d="M1364.74 104.145C1362.94 104.145 1361.48 102.688 1361.48 100.891C1361.48 99.0935 1362.94 97.6364 1364.74 97.6364C1366.54 97.6364 1368 99.0935 1368 100.891C1368 102.688 1366.54 104.145 1364.74 104.145Z" fill="#D2D6DB" fill-opacity="0.4"/>
<path d="M1364.74 123.673C1362.94 123.673 1361.48 122.216 1361.48 120.418C1361.48 118.621 1362.94 117.164 1364.74 117.164C1366.54 117.164 1368 118.621 1368 120.418C1368 122.216 1366.54 123.673 1364.74 123.673Z" fill="#D2D6DB" fill-opacity="0.4"/>
<path d="M1364.74 143.2C1362.94 143.2 1361.48 141.743 1361.48 139.945C1361.48 138.148 1362.94 136.691 1364.74 136.691C1366.54 136.691 1368 138.148 1368 139.945C1368 141.743 1366.54 143.2 1364.74 143.2Z" fill="#D2D6DB" fill-opacity="0.4"/>
<path d="M1364.74 162.727C1362.94 162.727 1361.48 161.27 1361.48 159.473C1361.48 157.675 1362.94 156.218 1364.74 156.218C1366.54 156.218 1368 157.675 1368 159.473C1368 161.27 1366.54 162.727 1364.74 162.727Z" fill="#D2D6DB" fill-opacity="0.4"/>
<path d="M1364.74 182.255C1362.94 182.255 1361.48 180.797 1361.48 179C1361.48 177.203 1362.94 175.745 1364.74 175.745C1366.54 175.745 1368 177.203 1368 179C1368 180.797 1366.54 182.255 1364.74 182.255Z" fill="#D2D6DB" fill-opacity="0.4"/>
<path d="M1364.74 201.782C1362.94 201.782 1361.48 200.325 1361.48 198.527C1361.48 196.73 1362.94 195.273 1364.74 195.273C1366.54 195.273 1368 196.73 1368 198.527C1368 200.325 1366.54 201.782 1364.74 201.782Z" fill="#D2D6DB" fill-opacity="0.4"/>
<path d="M1364.74 221.309C1362.94 221.309 1361.48 219.852 1361.48 218.055C1361.48 216.257 1362.94 214.8 1364.74 214.8C1366.54 214.8 1368 216.257 1368 218.055C1368 219.852 1366.54 221.309 1364.74 221.309Z" fill="#D2D6DB" fill-opacity="0.4"/>
<path d="M1364.74 240.836C1362.94 240.836 1361.48 239.379 1361.48 237.582C1361.48 235.784 1362.94 234.327 1364.74 234.327C1366.54 234.327 1368 235.784 1368 237.582C1368 239.379 1366.54 240.836 1364.74 240.836Z" fill="#D2D6DB" fill-opacity="0.4"/>
<path d="M1364.74 260.364C1362.94 260.364 1361.48 258.907 1361.48 257.109C1361.48 255.312 1362.94 253.855 1364.74 253.855C1366.54 253.855 1368 255.312 1368 257.109C1368 258.907 1366.54 260.364 1364.74 260.364Z" fill="#D2D6DB" fill-opacity="0.4"/>
<path d="M1364.74 279.891C1362.94 279.891 1361.48 278.434 1361.48 276.636C1361.48 274.839 1362.94 273.382 1364.74 273.382C1366.54 273.382 1368 274.839 1368 276.636C1368 278.434 1366.54 279.891 1364.74 279.891Z" fill="#D2D6DB" fill-opacity="0.4"/>
<path d="M1364.74 299.418C1362.94 299.418 1361.48 297.961 1361.48 296.164C1361.48 294.366 1362.94 292.909 1364.74 292.909C1366.54 292.909 1368 294.366 1368 296.164C1368 297.961 1366.54 299.418 1364.74 299.418Z" fill="#D2D6DB" fill-opacity="0.4"/>
<path d="M1364.74 318.945C1362.94 318.945 1361.48 317.488 1361.48 315.691C1361.48 313.893 1362.94 312.436 1364.74 312.436C1366.54 312.436 1368 313.893 1368 315.691C1368 317.488 1366.54 318.945 1364.74 318.945Z" fill="#D2D6DB" fill-opacity="0.4"/>
<path d="M1364.74 338.473C1362.94 338.473 1361.48 337.016 1361.48 335.218C1361.48 333.421 1362.94 331.964 1364.74 331.964C1366.54 331.964 1368 333.421 1368 335.218C1368 337.016 1366.54 338.473 1364.74 338.473Z" fill="#D2D6DB" fill-opacity="0.4"/>
<path d="M1364.74 358C1362.94 358 1361.48 356.543 1361.48 354.745C1361.48 352.948 1362.94 351.491 1364.74 351.491C1366.54 351.491 1368 352.948 1368 354.745C1368 356.543 1366.54 358 1364.74 358Z" fill="#D2D6DB" fill-opacity="0.4"/>
<path d="M1345.19 6.5091C1343.39 6.5091 1341.94 5.05199 1341.94 3.25455C1341.94 1.45712 1343.39 7.60351e-06 1345.19 7.68208e-06C1346.99 7.76065e-06 1348.45 1.45712 1348.45 3.25455C1348.45 5.05199 1346.99 6.5091 1345.19 6.5091Z" fill="#D2D6DB" fill-opacity="0.4"/>
<path d="M1345.19 26.0364C1343.39 26.0364 1341.94 24.5793 1341.94 22.7818C1341.94 20.9844 1343.39 19.5273 1345.19 19.5273C1346.99 19.5273 1348.45 20.9844 1348.45 22.7818C1348.45 24.5793 1346.99 26.0364 1345.19 26.0364Z" fill="#D2D6DB" fill-opacity="0.4"/>
<path d="M1345.19 45.5636C1343.39 45.5636 1341.94 44.1065 1341.94 42.3091C1341.94 40.5117 1343.39 39.0546 1345.19 39.0546C1346.99 39.0546 1348.45 40.5117 1348.45 42.3091C1348.45 44.1065 1346.99 45.5636 1345.19 45.5636Z" fill="#D2D6DB" fill-opacity="0.4"/>
<path d="M1345.19 65.0909C1343.39 65.0909 1341.94 63.6338 1341.94 61.8364C1341.94 60.0389 1343.39 58.5818 1345.19 58.5818C1346.99 58.5818 1348.45 60.0389 1348.45 61.8364C1348.45 63.6338 1346.99 65.0909 1345.19 65.0909Z" fill="#D2D6DB" fill-opacity="0.4"/>
<path d="M1345.19 84.6182C1343.39 84.6182 1341.94 83.1611 1341.94 81.3636C1341.94 79.5662 1343.39 78.1091 1345.19 78.1091C1346.99 78.1091 1348.45 79.5662 1348.45 81.3636C1348.45 83.1611 1346.99 84.6182 1345.19 84.6182Z" fill="#D2D6DB" fill-opacity="0.4"/>
<path d="M1345.19 104.145C1343.39 104.145 1341.94 102.688 1341.94 100.891C1341.94 99.0935 1343.39 97.6364 1345.19 97.6364C1346.99 97.6364 1348.45 99.0935 1348.45 100.891C1348.45 102.688 1346.99 104.145 1345.19 104.145Z" fill="#D2D6DB" fill-opacity="0.4"/>
<path d="M1345.19 123.673C1343.39 123.673 1341.94 122.216 1341.94 120.418C1341.94 118.621 1343.39 117.164 1345.19 117.164C1346.99 117.164 1348.45 118.621 1348.45 120.418C1348.45 122.216 1346.99 123.673 1345.19 123.673Z" fill="#D2D6DB" fill-opacity="0.4"/>
<path d="M1345.19 143.2C1343.39 143.2 1341.94 141.743 1341.94 139.945C1341.94 138.148 1343.39 136.691 1345.19 136.691C1346.99 136.691 1348.45 138.148 1348.45 139.945C1348.45 141.743 1346.99 143.2 1345.19 143.2Z" fill="#D2D6DB" fill-opacity="0.4"/>
<path d="M1345.19 162.727C1343.39 162.727 1341.94 161.27 1341.94 159.473C1341.94 157.675 1343.39 156.218 1345.19 156.218C1346.99 156.218 1348.45 157.675 1348.45 159.473C1348.45 161.27 1346.99 162.727 1345.19 162.727Z" fill="#D2D6DB" fill-opacity="0.4"/>
<path d="M1345.19 182.255C1343.39 182.255 1341.94 180.797 1341.94 179C1341.94 177.203 1343.39 175.745 1345.19 175.745C1346.99 175.745 1348.45 177.203 1348.45 179C1348.45 180.797 1346.99 182.255 1345.19 182.255Z" fill="#D2D6DB" fill-opacity="0.4"/>
<path d="M1345.19 201.782C1343.39 201.782 1341.94 200.325 1341.94 198.527C1341.94 196.73 1343.39 195.273 1345.19 195.273C1346.99 195.273 1348.45 196.73 1348.45 198.527C1348.45 200.325 1346.99 201.782 1345.19 201.782Z" fill="#D2D6DB" fill-opacity="0.4"/>
<path d="M1345.19 221.309C1343.39 221.309 1341.94 219.852 1341.94 218.055C1341.94 216.257 1343.39 214.8 1345.19 214.8C1346.99 214.8 1348.45 216.257 1348.45 218.055C1348.45 219.852 1346.99 221.309 1345.19 221.309Z" fill="#D2D6DB" fill-opacity="0.4"/>
<path d="M1345.19 240.836C1343.39 240.836 1341.94 239.379 1341.94 237.582C1341.94 235.784 1343.39 234.327 1345.19 234.327C1346.99 234.327 1348.45 235.784 1348.45 237.582C1348.45 239.379 1346.99 240.836 1345.19 240.836Z" fill="#D2D6DB" fill-opacity="0.4"/>
<path d="M1345.19 260.364C1343.39 260.364 1341.94 258.907 1341.94 257.109C1341.94 255.312 1343.39 253.855 1345.19 253.855C1346.99 253.855 1348.45 255.312 1348.45 257.109C1348.45 258.907 1346.99 260.364 1345.19 260.364Z" fill="#D2D6DB" fill-opacity="0.4"/>
<path d="M1345.19 279.891C1343.39 279.891 1341.94 278.434 1341.94 276.636C1341.94 274.839 1343.39 273.382 1345.19 273.382C1346.99 273.382 1348.45 274.839 1348.45 276.636C1348.45 278.434 1346.99 279.891 1345.19 279.891Z" fill="#D2D6DB" fill-opacity="0.4"/>
<path d="M1345.19 299.418C1343.39 299.418 1341.94 297.961 1341.94 296.164C1341.94 294.366 1343.39 292.909 1345.19 292.909C1346.99 292.909 1348.45 294.366 1348.45 296.164C1348.45 297.961 1346.99 299.418 1345.19 299.418Z" fill="#D2D6DB" fill-opacity="0.4"/>
<path d="M1345.19 318.945C1343.39 318.945 1341.94 317.488 1341.94 315.691C1341.94 313.893 1343.39 312.436 1345.19 312.436C1346.99 312.436 1348.45 313.893 1348.45 315.691C1348.45 317.488 1346.99 318.945 1345.19 318.945Z" fill="#D2D6DB" fill-opacity="0.4"/>
<path d="M1345.19 338.473C1343.39 338.473 1341.94 337.016 1341.94 335.218C1341.94 333.421 1343.39 331.964 1345.19 331.964C1346.99 331.964 1348.45 333.421 1348.45 335.218C1348.45 337.016 1346.99 338.473 1345.19 338.473Z" fill="#D2D6DB" fill-opacity="0.4"/>
<path d="M1345.19 358C1343.39 358 1341.94 356.543 1341.94 354.745C1341.94 352.948 1343.39 351.491 1345.19 351.491C1346.99 351.491 1348.45 352.948 1348.45 354.745C1348.45 356.543 1346.99 358 1345.19 358Z" fill="#D2D6DB" fill-opacity="0.4"/>
<path d="M1325.65 6.5091C1323.85 6.5091 1322.39 5.05199 1322.39 3.25455C1322.39 1.45712 1323.85 6.74995e-06 1325.65 6.82851e-06C1327.44 6.90708e-06 1328.9 1.45712 1328.9 3.25455C1328.9 5.05199 1327.44 6.5091 1325.65 6.5091Z" fill="#D2D6DB" fill-opacity="0.4"/>
<path d="M1325.65 26.0364C1323.85 26.0364 1322.39 24.5793 1322.39 22.7818C1322.39 20.9844 1323.85 19.5273 1325.65 19.5273C1327.44 19.5273 1328.9 20.9844 1328.9 22.7818C1328.9 24.5793 1327.44 26.0364 1325.65 26.0364Z" fill="#D2D6DB" fill-opacity="0.4"/>
<path d="M1325.65 45.5636C1323.85 45.5636 1322.39 44.1065 1322.39 42.3091C1322.39 40.5117 1323.85 39.0546 1325.65 39.0546C1327.44 39.0546 1328.9 40.5117 1328.9 42.3091C1328.9 44.1065 1327.44 45.5636 1325.65 45.5636Z" fill="#D2D6DB" fill-opacity="0.4"/>
<path d="M1325.65 65.0909C1323.85 65.0909 1322.39 63.6338 1322.39 61.8364C1322.39 60.0389 1323.85 58.5818 1325.65 58.5818C1327.44 58.5818 1328.9 60.0389 1328.9 61.8364C1328.9 63.6338 1327.44 65.0909 1325.65 65.0909Z" fill="#D2D6DB" fill-opacity="0.4"/>
<path d="M1325.65 84.6182C1323.85 84.6182 1322.39 83.1611 1322.39 81.3636C1322.39 79.5662 1323.85 78.1091 1325.65 78.1091C1327.44 78.1091 1328.9 79.5662 1328.9 81.3636C1328.9 83.1611 1327.44 84.6182 1325.65 84.6182Z" fill="#D2D6DB" fill-opacity="0.4"/>
<path d="M1325.65 104.145C1323.85 104.145 1322.39 102.688 1322.39 100.891C1322.39 99.0935 1323.85 97.6364 1325.65 97.6364C1327.44 97.6364 1328.9 99.0935 1328.9 100.891C1328.9 102.688 1327.44 104.145 1325.65 104.145Z" fill="#D2D6DB" fill-opacity="0.4"/>
<path d="M1325.65 123.673C1323.85 123.673 1322.39 122.216 1322.39 120.418C1322.39 118.621 1323.85 117.164 1325.65 117.164C1327.44 117.164 1328.9 118.621 1328.9 120.418C1328.9 122.216 1327.44 123.673 1325.65 123.673Z" fill="#D2D6DB" fill-opacity="0.4"/>
<path d="M1325.65 143.2C1323.85 143.2 1322.39 141.743 1322.39 139.945C1322.39 138.148 1323.85 136.691 1325.65 136.691C1327.44 136.691 1328.9 138.148 1328.9 139.945C1328.9 141.743 1327.44 143.2 1325.65 143.2Z" fill="#D2D6DB" fill-opacity="0.4"/>
<path d="M1325.65 162.727C1323.85 162.727 1322.39 161.27 1322.39 159.473C1322.39 157.675 1323.85 156.218 1325.65 156.218C1327.44 156.218 1328.9 157.675 1328.9 159.473C1328.9 161.27 1327.44 162.727 1325.65 162.727Z" fill="#D2D6DB" fill-opacity="0.4"/>
<path d="M1325.65 182.255C1323.85 182.255 1322.39 180.797 1322.39 179C1322.39 177.203 1323.85 175.745 1325.65 175.745C1327.44 175.745 1328.9 177.203 1328.9 179C1328.9 180.797 1327.44 182.255 1325.65 182.255Z" fill="#D2D6DB" fill-opacity="0.4"/>
<path d="M1325.65 201.782C1323.85 201.782 1322.39 200.325 1322.39 198.527C1322.39 196.73 1323.85 195.273 1325.65 195.273C1327.44 195.273 1328.9 196.73 1328.9 198.527C1328.9 200.325 1327.44 201.782 1325.65 201.782Z" fill="#D2D6DB" fill-opacity="0.4"/>
<path d="M1325.65 221.309C1323.85 221.309 1322.39 219.852 1322.39 218.055C1322.39 216.257 1323.85 214.8 1325.65 214.8C1327.44 214.8 1328.9 216.257 1328.9 218.055C1328.9 219.852 1327.44 221.309 1325.65 221.309Z" fill="#D2D6DB" fill-opacity="0.4"/>
<path d="M1325.65 240.836C1323.85 240.836 1322.39 239.379 1322.39 237.582C1322.39 235.784 1323.85 234.327 1325.65 234.327C1327.44 234.327 1328.9 235.784 1328.9 237.582C1328.9 239.379 1327.44 240.836 1325.65 240.836Z" fill="#D2D6DB" fill-opacity="0.4"/>
<path d="M1325.65 260.364C1323.85 260.364 1322.39 258.907 1322.39 257.109C1322.39 255.312 1323.85 253.855 1325.65 253.855C1327.44 253.855 1328.9 255.312 1328.9 257.109C1328.9 258.907 1327.44 260.364 1325.65 260.364Z" fill="#D2D6DB" fill-opacity="0.4"/>
<path d="M1325.65 279.891C1323.85 279.891 1322.39 278.434 1322.39 276.636C1322.39 274.839 1323.85 273.382 1325.65 273.382C1327.44 273.382 1328.9 274.839 1328.9 276.636C1328.9 278.434 1327.44 279.891 1325.65 279.891Z" fill="#D2D6DB" fill-opacity="0.4"/>
<path d="M1325.65 299.418C1323.85 299.418 1322.39 297.961 1322.39 296.164C1322.39 294.366 1323.85 292.909 1325.65 292.909C1327.44 292.909 1328.9 294.366 1328.9 296.164C1328.9 297.961 1327.44 299.418 1325.65 299.418Z" fill="#D2D6DB" fill-opacity="0.4"/>
<path d="M1325.65 318.945C1323.85 318.945 1322.39 317.488 1322.39 315.691C1322.39 313.893 1323.85 312.436 1325.65 312.436C1327.44 312.436 1328.9 313.893 1328.9 315.691C1328.9 317.488 1327.44 318.945 1325.65 318.945Z" fill="#D2D6DB" fill-opacity="0.4"/>
<path d="M1325.65 338.473C1323.85 338.473 1322.39 337.016 1322.39 335.218C1322.39 333.421 1323.85 331.964 1325.65 331.964C1327.44 331.964 1328.9 333.421 1328.9 335.218C1328.9 337.016 1327.44 338.473 1325.65 338.473Z" fill="#D2D6DB" fill-opacity="0.4"/>
<path d="M1325.65 358C1323.85 358 1322.39 356.543 1322.39 354.745C1322.39 352.948 1323.85 351.491 1325.65 351.491C1327.44 351.491 1328.9 352.948 1328.9 354.745C1328.9 356.543 1327.44 358 1325.65 358Z" fill="#D2D6DB" fill-opacity="0.4"/>
<path d="M1306.1 6.5091C1304.3 6.5091 1302.84 5.05199 1302.84 3.25455C1302.84 1.45712 1304.3 5.89638e-06 1306.1 5.97495e-06C1307.9 6.05352e-06 1309.35 1.45712 1309.35 3.25455C1309.35 5.05199 1307.9 6.5091 1306.1 6.5091Z" fill="#D2D6DB" fill-opacity="0.4"/>
<path d="M1306.1 26.0364C1304.3 26.0364 1302.84 24.5793 1302.84 22.7818C1302.84 20.9844 1304.3 19.5273 1306.1 19.5273C1307.9 19.5273 1309.35 20.9844 1309.35 22.7818C1309.35 24.5793 1307.9 26.0364 1306.1 26.0364Z" fill="#D2D6DB" fill-opacity="0.4"/>
<path d="M1306.1 45.5636C1304.3 45.5636 1302.84 44.1065 1302.84 42.3091C1302.84 40.5117 1304.3 39.0546 1306.1 39.0546C1307.9 39.0546 1309.35 40.5117 1309.35 42.3091C1309.35 44.1065 1307.9 45.5636 1306.1 45.5636Z" fill="#D2D6DB" fill-opacity="0.4"/>
<path d="M1306.1 65.0909C1304.3 65.0909 1302.84 63.6338 1302.84 61.8364C1302.84 60.0389 1304.3 58.5818 1306.1 58.5818C1307.9 58.5818 1309.35 60.0389 1309.35 61.8364C1309.35 63.6338 1307.9 65.0909 1306.1 65.0909Z" fill="#D2D6DB" fill-opacity="0.4"/>
<path d="M1306.1 84.6182C1304.3 84.6182 1302.84 83.1611 1302.84 81.3636C1302.84 79.5662 1304.3 78.1091 1306.1 78.1091C1307.9 78.1091 1309.35 79.5662 1309.35 81.3636C1309.35 83.1611 1307.9 84.6182 1306.1 84.6182Z" fill="#D2D6DB" fill-opacity="0.4"/>
<path d="M1306.1 104.145C1304.3 104.145 1302.84 102.688 1302.84 100.891C1302.84 99.0935 1304.3 97.6364 1306.1 97.6364C1307.9 97.6364 1309.35 99.0935 1309.35 100.891C1309.35 102.688 1307.9 104.145 1306.1 104.145Z" fill="#D2D6DB" fill-opacity="0.4"/>
<path d="M1306.1 123.673C1304.3 123.673 1302.84 122.216 1302.84 120.418C1302.84 118.621 1304.3 117.164 1306.1 117.164C1307.9 117.164 1309.35 118.621 1309.35 120.418C1309.35 122.216 1307.9 123.673 1306.1 123.673Z" fill="#D2D6DB" fill-opacity="0.4"/>
<path d="M1306.1 143.2C1304.3 143.2 1302.84 141.743 1302.84 139.945C1302.84 138.148 1304.3 136.691 1306.1 136.691C1307.9 136.691 1309.35 138.148 1309.35 139.945C1309.35 141.743 1307.9 143.2 1306.1 143.2Z" fill="#D2D6DB" fill-opacity="0.4"/>
<path d="M1306.1 162.727C1304.3 162.727 1302.84 161.27 1302.84 159.473C1302.84 157.675 1304.3 156.218 1306.1 156.218C1307.9 156.218 1309.35 157.675 1309.35 159.473C1309.35 161.27 1307.9 162.727 1306.1 162.727Z" fill="#D2D6DB" fill-opacity="0.4"/>
<path d="M1306.1 182.255C1304.3 182.255 1302.84 180.797 1302.84 179C1302.84 177.203 1304.3 175.745 1306.1 175.745C1307.9 175.745 1309.35 177.203 1309.35 179C1309.35 180.797 1307.9 182.255 1306.1 182.255Z" fill="#D2D6DB" fill-opacity="0.4"/>
<path d="M1306.1 201.782C1304.3 201.782 1302.84 200.325 1302.84 198.527C1302.84 196.73 1304.3 195.273 1306.1 195.273C1307.9 195.273 1309.35 196.73 1309.35 198.527C1309.35 200.325 1307.9 201.782 1306.1 201.782Z" fill="#D2D6DB" fill-opacity="0.4"/>
<path d="M1306.1 221.309C1304.3 221.309 1302.84 219.852 1302.84 218.055C1302.84 216.257 1304.3 214.8 1306.1 214.8C1307.9 214.8 1309.35 216.257 1309.35 218.055C1309.35 219.852 1307.9 221.309 1306.1 221.309Z" fill="#D2D6DB" fill-opacity="0.4"/>
<path d="M1306.1 240.836C1304.3 240.836 1302.84 239.379 1302.84 237.582C1302.84 235.784 1304.3 234.327 1306.1 234.327C1307.9 234.327 1309.35 235.784 1309.35 237.582C1309.35 239.379 1307.9 240.836 1306.1 240.836Z" fill="#D2D6DB" fill-opacity="0.4"/>
<path d="M1306.1 260.364C1304.3 260.364 1302.84 258.907 1302.84 257.109C1302.84 255.312 1304.3 253.855 1306.1 253.855C1307.9 253.855 1309.35 255.312 1309.35 257.109C1309.35 258.907 1307.9 260.364 1306.1 260.364Z" fill="#D2D6DB" fill-opacity="0.4"/>
<path d="M1306.1 279.891C1304.3 279.891 1302.84 278.434 1302.84 276.636C1302.84 274.839 1304.3 273.382 1306.1 273.382C1307.9 273.382 1309.35 274.839 1309.35 276.636C1309.35 278.434 1307.9 279.891 1306.1 279.891Z" fill="#D2D6DB" fill-opacity="0.4"/>
<path d="M1306.1 299.418C1304.3 299.418 1302.84 297.961 1302.84 296.164C1302.84 294.366 1304.3 292.909 1306.1 292.909C1307.9 292.909 1309.35 294.366 1309.35 296.164C1309.35 297.961 1307.9 299.418 1306.1 299.418Z" fill="#D2D6DB" fill-opacity="0.4"/>
<path d="M1306.1 318.945C1304.3 318.945 1302.84 317.488 1302.84 315.691C1302.84 313.893 1304.3 312.436 1306.1 312.436C1307.9 312.436 1309.35 313.893 1309.35 315.691C1309.35 317.488 1307.9 318.945 1306.1 318.945Z" fill="#D2D6DB" fill-opacity="0.4"/>
<path d="M1306.1 338.473C1304.3 338.473 1302.84 337.016 1302.84 335.218C1302.84 333.421 1304.3 331.964 1306.1 331.964C1307.9 331.964 1309.35 333.421 1309.35 335.218C1309.35 337.016 1307.9 338.473 1306.1 338.473Z" fill="#D2D6DB" fill-opacity="0.4"/>
<path d="M1306.1 358C1304.3 358 1302.84 356.543 1302.84 354.745C1302.84 352.948 1304.3 351.491 1306.1 351.491C1307.9 351.491 1309.35 352.948 1309.35 354.745C1309.35 356.543 1307.9 358 1306.1 358Z" fill="#D2D6DB" fill-opacity="0.4"/>
<path d="M1286.55 6.5091C1284.75 6.5091 1283.29 5.05199 1283.29 3.25455C1283.29 1.45711 1284.75 5.04282e-06 1286.55 5.12139e-06C1288.35 5.19995e-06 1289.81 1.45711 1289.81 3.25455C1289.81 5.05199 1288.35 6.5091 1286.55 6.5091Z" fill="#D2D6DB" fill-opacity="0.4"/>
<path d="M1286.55 26.0364C1284.75 26.0364 1283.29 24.5793 1283.29 22.7818C1283.29 20.9844 1284.75 19.5273 1286.55 19.5273C1288.35 19.5273 1289.81 20.9844 1289.81 22.7818C1289.81 24.5793 1288.35 26.0364 1286.55 26.0364Z" fill="#D2D6DB" fill-opacity="0.4"/>
<path d="M1286.55 45.5636C1284.75 45.5636 1283.29 44.1065 1283.29 42.3091C1283.29 40.5117 1284.75 39.0546 1286.55 39.0546C1288.35 39.0546 1289.81 40.5117 1289.81 42.3091C1289.81 44.1065 1288.35 45.5636 1286.55 45.5636Z" fill="#D2D6DB" fill-opacity="0.4"/>
<path d="M1286.55 65.0909C1284.75 65.0909 1283.29 63.6338 1283.29 61.8364C1283.29 60.0389 1284.75 58.5818 1286.55 58.5818C1288.35 58.5818 1289.81 60.0389 1289.81 61.8364C1289.81 63.6338 1288.35 65.0909 1286.55 65.0909Z" fill="#D2D6DB" fill-opacity="0.4"/>
<path d="M1286.55 84.6182C1284.75 84.6182 1283.29 83.1611 1283.29 81.3636C1283.29 79.5662 1284.75 78.1091 1286.55 78.1091C1288.35 78.1091 1289.81 79.5662 1289.81 81.3636C1289.81 83.1611 1288.35 84.6182 1286.55 84.6182Z" fill="#D2D6DB" fill-opacity="0.4"/>
<path d="M1286.55 104.145C1284.75 104.145 1283.29 102.688 1283.29 100.891C1283.29 99.0935 1284.75 97.6364 1286.55 97.6364C1288.35 97.6364 1289.81 99.0935 1289.81 100.891C1289.81 102.688 1288.35 104.145 1286.55 104.145Z" fill="#D2D6DB" fill-opacity="0.4"/>
<path d="M1286.55 123.673C1284.75 123.673 1283.29 122.216 1283.29 120.418C1283.29 118.621 1284.75 117.164 1286.55 117.164C1288.35 117.164 1289.81 118.621 1289.81 120.418C1289.81 122.216 1288.35 123.673 1286.55 123.673Z" fill="#D2D6DB" fill-opacity="0.4"/>
<path d="M1286.55 143.2C1284.75 143.2 1283.29 141.743 1283.29 139.945C1283.29 138.148 1284.75 136.691 1286.55 136.691C1288.35 136.691 1289.81 138.148 1289.81 139.945C1289.81 141.743 1288.35 143.2 1286.55 143.2Z" fill="#D2D6DB" fill-opacity="0.4"/>
<path d="M1286.55 162.727C1284.75 162.727 1283.29 161.27 1283.29 159.473C1283.29 157.675 1284.75 156.218 1286.55 156.218C1288.35 156.218 1289.81 157.675 1289.81 159.473C1289.81 161.27 1288.35 162.727 1286.55 162.727Z" fill="#D2D6DB" fill-opacity="0.4"/>
<path d="M1286.55 182.255C1284.75 182.255 1283.29 180.797 1283.29 179C1283.29 177.203 1284.75 175.745 1286.55 175.745C1288.35 175.745 1289.81 177.203 1289.81 179C1289.81 180.797 1288.35 182.255 1286.55 182.255Z" fill="#D2D6DB" fill-opacity="0.4"/>
<path d="M1286.55 201.782C1284.75 201.782 1283.29 200.325 1283.29 198.527C1283.29 196.73 1284.75 195.273 1286.55 195.273C1288.35 195.273 1289.81 196.73 1289.81 198.527C1289.81 200.325 1288.35 201.782 1286.55 201.782Z" fill="#D2D6DB" fill-opacity="0.4"/>
<path d="M1286.55 221.309C1284.75 221.309 1283.29 219.852 1283.29 218.055C1283.29 216.257 1284.75 214.8 1286.55 214.8C1288.35 214.8 1289.81 216.257 1289.81 218.055C1289.81 219.852 1288.35 221.309 1286.55 221.309Z" fill="#D2D6DB" fill-opacity="0.4"/>
<path d="M1286.55 240.836C1284.75 240.836 1283.29 239.379 1283.29 237.582C1283.29 235.784 1284.75 234.327 1286.55 234.327C1288.35 234.327 1289.81 235.784 1289.81 237.582C1289.81 239.379 1288.35 240.836 1286.55 240.836Z" fill="#D2D6DB" fill-opacity="0.4"/>
<path d="M1286.55 260.364C1284.75 260.364 1283.29 258.907 1283.29 257.109C1283.29 255.312 1284.75 253.855 1286.55 253.855C1288.35 253.855 1289.81 255.312 1289.81 257.109C1289.81 258.907 1288.35 260.364 1286.55 260.364Z" fill="#D2D6DB" fill-opacity="0.4"/>
<path d="M1286.55 279.891C1284.75 279.891 1283.29 278.434 1283.29 276.636C1283.29 274.839 1284.75 273.382 1286.55 273.382C1288.35 273.382 1289.81 274.839 1289.81 276.636C1289.81 278.434 1288.35 279.891 1286.55 279.891Z" fill="#D2D6DB" fill-opacity="0.4"/>
<path d="M1286.55 299.418C1284.75 299.418 1283.29 297.961 1283.29 296.164C1283.29 294.366 1284.75 292.909 1286.55 292.909C1288.35 292.909 1289.81 294.366 1289.81 296.164C1289.81 297.961 1288.35 299.418 1286.55 299.418Z" fill="#D2D6DB" fill-opacity="0.4"/>
<path d="M1286.55 318.945C1284.75 318.945 1283.29 317.488 1283.29 315.691C1283.29 313.893 1284.75 312.436 1286.55 312.436C1288.35 312.436 1289.81 313.893 1289.81 315.691C1289.81 317.488 1288.35 318.945 1286.55 318.945Z" fill="#D2D6DB" fill-opacity="0.4"/>
<path d="M1286.55 338.473C1284.75 338.473 1283.29 337.016 1283.29 335.218C1283.29 333.421 1284.75 331.964 1286.55 331.964C1288.35 331.964 1289.81 333.421 1289.81 335.218C1289.81 337.016 1288.35 338.473 1286.55 338.473Z" fill="#D2D6DB" fill-opacity="0.4"/>
<path d="M1286.55 358C1284.75 358 1283.29 356.543 1283.29 354.745C1283.29 352.948 1284.75 351.491 1286.55 351.491C1288.35 351.491 1289.81 352.948 1289.81 354.745C1289.81 356.543 1288.35 358 1286.55 358Z" fill="#D2D6DB" fill-opacity="0.4"/>
<path d="M1267 6.5091C1265.2 6.5091 1263.74 5.05199 1263.74 3.25455C1263.74 1.45711 1265.2 4.18925e-06 1267 4.26782e-06C1268.8 4.34639e-06 1270.26 1.45711 1270.26 3.25455C1270.26 5.05199 1268.8 6.5091 1267 6.5091Z" fill="#D2D6DB" fill-opacity="0.4"/>
<path d="M1267 26.0364C1265.2 26.0364 1263.74 24.5793 1263.74 22.7818C1263.74 20.9844 1265.2 19.5273 1267 19.5273C1268.8 19.5273 1270.26 20.9844 1270.26 22.7818C1270.26 24.5793 1268.8 26.0364 1267 26.0364Z" fill="#D2D6DB" fill-opacity="0.4"/>
<path d="M1267 45.5636C1265.2 45.5636 1263.74 44.1065 1263.74 42.3091C1263.74 40.5117 1265.2 39.0546 1267 39.0546C1268.8 39.0546 1270.26 40.5117 1270.26 42.3091C1270.26 44.1065 1268.8 45.5636 1267 45.5636Z" fill="#D2D6DB" fill-opacity="0.4"/>
<path d="M1267 65.0909C1265.2 65.0909 1263.74 63.6338 1263.74 61.8364C1263.74 60.0389 1265.2 58.5818 1267 58.5818C1268.8 58.5818 1270.26 60.0389 1270.26 61.8364C1270.26 63.6338 1268.8 65.0909 1267 65.0909Z" fill="#D2D6DB" fill-opacity="0.4"/>
<path d="M1267 84.6182C1265.2 84.6182 1263.74 83.1611 1263.74 81.3636C1263.74 79.5662 1265.2 78.1091 1267 78.1091C1268.8 78.1091 1270.26 79.5662 1270.26 81.3636C1270.26 83.1611 1268.8 84.6182 1267 84.6182Z" fill="#D2D6DB" fill-opacity="0.4"/>
<path d="M1267 104.145C1265.2 104.145 1263.74 102.688 1263.74 100.891C1263.74 99.0935 1265.2 97.6364 1267 97.6364C1268.8 97.6364 1270.26 99.0935 1270.26 100.891C1270.26 102.688 1268.8 104.145 1267 104.145Z" fill="#D2D6DB" fill-opacity="0.4"/>
<path d="M1267 123.673C1265.2 123.673 1263.74 122.216 1263.74 120.418C1263.74 118.621 1265.2 117.164 1267 117.164C1268.8 117.164 1270.26 118.621 1270.26 120.418C1270.26 122.216 1268.8 123.673 1267 123.673Z" fill="#D2D6DB" fill-opacity="0.4"/>
<path d="M1267 143.2C1265.2 143.2 1263.74 141.743 1263.74 139.945C1263.74 138.148 1265.2 136.691 1267 136.691C1268.8 136.691 1270.26 138.148 1270.26 139.945C1270.26 141.743 1268.8 143.2 1267 143.2Z" fill="#D2D6DB" fill-opacity="0.4"/>
<path d="M1267 162.727C1265.2 162.727 1263.74 161.27 1263.74 159.473C1263.74 157.675 1265.2 156.218 1267 156.218C1268.8 156.218 1270.26 157.675 1270.26 159.473C1270.26 161.27 1268.8 162.727 1267 162.727Z" fill="#D2D6DB" fill-opacity="0.4"/>
<path d="M1267 182.255C1265.2 182.255 1263.74 180.797 1263.74 179C1263.74 177.203 1265.2 175.745 1267 175.745C1268.8 175.745 1270.26 177.203 1270.26 179C1270.26 180.797 1268.8 182.255 1267 182.255Z" fill="#D2D6DB" fill-opacity="0.4"/>
<path d="M1267 201.782C1265.2 201.782 1263.74 200.325 1263.74 198.527C1263.74 196.73 1265.2 195.273 1267 195.273C1268.8 195.273 1270.26 196.73 1270.26 198.527C1270.26 200.325 1268.8 201.782 1267 201.782Z" fill="#D2D6DB" fill-opacity="0.4"/>
<path d="M1267 221.309C1265.2 221.309 1263.74 219.852 1263.74 218.055C1263.74 216.257 1265.2 214.8 1267 214.8C1268.8 214.8 1270.26 216.257 1270.26 218.055C1270.26 219.852 1268.8 221.309 1267 221.309Z" fill="#D2D6DB" fill-opacity="0.4"/>
<path d="M1267 240.836C1265.2 240.836 1263.74 239.379 1263.74 237.582C1263.74 235.784 1265.2 234.327 1267 234.327C1268.8 234.327 1270.26 235.784 1270.26 237.582C1270.26 239.379 1268.8 240.836 1267 240.836Z" fill="#D2D6DB" fill-opacity="0.4"/>
<path d="M1267 260.364C1265.2 260.364 1263.74 258.907 1263.74 257.109C1263.74 255.312 1265.2 253.855 1267 253.855C1268.8 253.855 1270.26 255.312 1270.26 257.109C1270.26 258.907 1268.8 260.364 1267 260.364Z" fill="#D2D6DB" fill-opacity="0.4"/>
<path d="M1267 279.891C1265.2 279.891 1263.74 278.434 1263.74 276.636C1263.74 274.839 1265.2 273.382 1267 273.382C1268.8 273.382 1270.26 274.839 1270.26 276.636C1270.26 278.434 1268.8 279.891 1267 279.891Z" fill="#D2D6DB" fill-opacity="0.4"/>
<path d="M1267 299.418C1265.2 299.418 1263.74 297.961 1263.74 296.164C1263.74 294.366 1265.2 292.909 1267 292.909C1268.8 292.909 1270.26 294.366 1270.26 296.164C1270.26 297.961 1268.8 299.418 1267 299.418Z" fill="#D2D6DB" fill-opacity="0.4"/>
<path d="M1267 318.945C1265.2 318.945 1263.74 317.488 1263.74 315.691C1263.74 313.893 1265.2 312.436 1267 312.436C1268.8 312.436 1270.26 313.893 1270.26 315.691C1270.26 317.488 1268.8 318.945 1267 318.945Z" fill="#D2D6DB" fill-opacity="0.4"/>
<path d="M1267 338.473C1265.2 338.473 1263.74 337.016 1263.74 335.218C1263.74 333.421 1265.2 331.964 1267 331.964C1268.8 331.964 1270.26 333.421 1270.26 335.218C1270.26 337.016 1268.8 338.473 1267 338.473Z" fill="#D2D6DB" fill-opacity="0.4"/>
<path d="M1267 358C1265.2 358 1263.74 356.543 1263.74 354.745C1263.74 352.948 1265.2 351.491 1267 351.491C1268.8 351.491 1270.26 352.948 1270.26 354.745C1270.26 356.543 1268.8 358 1267 358Z" fill="#D2D6DB" fill-opacity="0.4"/>
<path d="M1247.45 6.50909C1245.65 6.50909 1244.19 5.05198 1244.19 3.25455C1244.19 1.45711 1245.65 3.33569e-06 1247.45 3.41426e-06C1249.25 3.49283e-06 1250.71 1.45711 1250.71 3.25455C1250.71 5.05199 1249.25 6.50909 1247.45 6.50909Z" fill="#D2D6DB" fill-opacity="0.4"/>
<path d="M1247.45 26.0364C1245.65 26.0364 1244.19 24.5793 1244.19 22.7818C1244.19 20.9844 1245.65 19.5273 1247.45 19.5273C1249.25 19.5273 1250.71 20.9844 1250.71 22.7818C1250.71 24.5793 1249.25 26.0364 1247.45 26.0364Z" fill="#D2D6DB" fill-opacity="0.4"/>
<path d="M1247.45 45.5636C1245.65 45.5636 1244.19 44.1065 1244.19 42.3091C1244.19 40.5117 1245.65 39.0546 1247.45 39.0546C1249.25 39.0546 1250.71 40.5117 1250.71 42.3091C1250.71 44.1065 1249.25 45.5636 1247.45 45.5636Z" fill="#D2D6DB" fill-opacity="0.4"/>
<path d="M1247.45 65.0909C1245.65 65.0909 1244.19 63.6338 1244.19 61.8364C1244.19 60.0389 1245.65 58.5818 1247.45 58.5818C1249.25 58.5818 1250.71 60.0389 1250.71 61.8364C1250.71 63.6338 1249.25 65.0909 1247.45 65.0909Z" fill="#D2D6DB" fill-opacity="0.4"/>
<path d="M1247.45 84.6182C1245.65 84.6182 1244.19 83.1611 1244.19 81.3636C1244.19 79.5662 1245.65 78.1091 1247.45 78.1091C1249.25 78.1091 1250.71 79.5662 1250.71 81.3636C1250.71 83.1611 1249.25 84.6182 1247.45 84.6182Z" fill="#D2D6DB" fill-opacity="0.4"/>
<path d="M1247.45 104.145C1245.65 104.145 1244.19 102.688 1244.19 100.891C1244.19 99.0935 1245.65 97.6364 1247.45 97.6364C1249.25 97.6364 1250.71 99.0935 1250.71 100.891C1250.71 102.688 1249.25 104.145 1247.45 104.145Z" fill="#D2D6DB" fill-opacity="0.4"/>
<path d="M1247.45 123.673C1245.65 123.673 1244.19 122.216 1244.19 120.418C1244.19 118.621 1245.65 117.164 1247.45 117.164C1249.25 117.164 1250.71 118.621 1250.71 120.418C1250.71 122.216 1249.25 123.673 1247.45 123.673Z" fill="#D2D6DB" fill-opacity="0.4"/>
<path d="M1247.45 143.2C1245.65 143.2 1244.19 141.743 1244.19 139.945C1244.19 138.148 1245.65 136.691 1247.45 136.691C1249.25 136.691 1250.71 138.148 1250.71 139.945C1250.71 141.743 1249.25 143.2 1247.45 143.2Z" fill="#D2D6DB" fill-opacity="0.4"/>
<path d="M1247.45 162.727C1245.65 162.727 1244.19 161.27 1244.19 159.473C1244.19 157.675 1245.65 156.218 1247.45 156.218C1249.25 156.218 1250.71 157.675 1250.71 159.473C1250.71 161.27 1249.25 162.727 1247.45 162.727Z" fill="#D2D6DB" fill-opacity="0.4"/>
<path d="M1247.45 182.255C1245.65 182.255 1244.19 180.797 1244.19 179C1244.19 177.203 1245.65 175.745 1247.45 175.745C1249.25 175.745 1250.71 177.203 1250.71 179C1250.71 180.797 1249.25 182.255 1247.45 182.255Z" fill="#D2D6DB" fill-opacity="0.4"/>
<path d="M1247.45 201.782C1245.65 201.782 1244.19 200.325 1244.19 198.527C1244.19 196.73 1245.65 195.273 1247.45 195.273C1249.25 195.273 1250.71 196.73 1250.71 198.527C1250.71 200.325 1249.25 201.782 1247.45 201.782Z" fill="#D2D6DB" fill-opacity="0.4"/>
<path d="M1247.45 221.309C1245.65 221.309 1244.19 219.852 1244.19 218.055C1244.19 216.257 1245.65 214.8 1247.45 214.8C1249.25 214.8 1250.71 216.257 1250.71 218.055C1250.71 219.852 1249.25 221.309 1247.45 221.309Z" fill="#D2D6DB" fill-opacity="0.4"/>
<path d="M1247.45 240.836C1245.65 240.836 1244.19 239.379 1244.19 237.582C1244.19 235.784 1245.65 234.327 1247.45 234.327C1249.25 234.327 1250.71 235.784 1250.71 237.582C1250.71 239.379 1249.25 240.836 1247.45 240.836Z" fill="#D2D6DB" fill-opacity="0.4"/>
<path d="M1247.45 260.364C1245.65 260.364 1244.19 258.907 1244.19 257.109C1244.19 255.312 1245.65 253.855 1247.45 253.855C1249.25 253.855 1250.71 255.312 1250.71 257.109C1250.71 258.907 1249.25 260.364 1247.45 260.364Z" fill="#D2D6DB" fill-opacity="0.4"/>
<path d="M1247.45 279.891C1245.65 279.891 1244.19 278.434 1244.19 276.636C1244.19 274.839 1245.65 273.382 1247.45 273.382C1249.25 273.382 1250.71 274.839 1250.71 276.636C1250.71 278.434 1249.25 279.891 1247.45 279.891Z" fill="#D2D6DB" fill-opacity="0.4"/>
<path d="M1247.45 299.418C1245.65 299.418 1244.19 297.961 1244.19 296.164C1244.19 294.366 1245.65 292.909 1247.45 292.909C1249.25 292.909 1250.71 294.366 1250.71 296.164C1250.71 297.961 1249.25 299.418 1247.45 299.418Z" fill="#D2D6DB" fill-opacity="0.4"/>
<path d="M1247.45 318.945C1245.65 318.945 1244.19 317.488 1244.19 315.691C1244.19 313.893 1245.65 312.436 1247.45 312.436C1249.25 312.436 1250.71 313.893 1250.71 315.691C1250.71 317.488 1249.25 318.945 1247.45 318.945Z" fill="#D2D6DB" fill-opacity="0.4"/>
<path d="M1247.45 338.473C1245.65 338.473 1244.19 337.016 1244.19 335.218C1244.19 333.421 1245.65 331.964 1247.45 331.964C1249.25 331.964 1250.71 333.421 1250.71 335.218C1250.71 337.016 1249.25 338.473 1247.45 338.473Z" fill="#D2D6DB" fill-opacity="0.4"/>
<path d="M1247.45 358C1245.65 358 1244.19 356.543 1244.19 354.745C1244.19 352.948 1245.65 351.491 1247.45 351.491C1249.25 351.491 1250.71 352.948 1250.71 354.745C1250.71 356.543 1249.25 358 1247.45 358Z" fill="#D2D6DB" fill-opacity="0.4"/>
<path d="M1227.9 6.50909C1226.1 6.50909 1224.65 5.05198 1224.65 3.25455C1224.65 1.45711 1226.1 2.48212e-06 1227.9 2.56069e-06C1229.7 2.63926e-06 1231.16 1.45711 1231.16 3.25455C1231.16 5.05198 1229.7 6.50909 1227.9 6.50909Z" fill="#D2D6DB" fill-opacity="0.4"/>
<path d="M1227.9 26.0364C1226.1 26.0364 1224.65 24.5793 1224.65 22.7818C1224.65 20.9844 1226.1 19.5273 1227.9 19.5273C1229.7 19.5273 1231.16 20.9844 1231.16 22.7818C1231.16 24.5793 1229.7 26.0364 1227.9 26.0364Z" fill="#D2D6DB" fill-opacity="0.4"/>
<path d="M1227.9 45.5636C1226.1 45.5636 1224.65 44.1065 1224.65 42.3091C1224.65 40.5117 1226.1 39.0546 1227.9 39.0546C1229.7 39.0546 1231.16 40.5117 1231.16 42.3091C1231.16 44.1065 1229.7 45.5636 1227.9 45.5636Z" fill="#D2D6DB" fill-opacity="0.4"/>
<path d="M1227.9 65.0909C1226.1 65.0909 1224.65 63.6338 1224.65 61.8364C1224.65 60.0389 1226.1 58.5818 1227.9 58.5818C1229.7 58.5818 1231.16 60.0389 1231.16 61.8364C1231.16 63.6338 1229.7 65.0909 1227.9 65.0909Z" fill="#D2D6DB" fill-opacity="0.4"/>
<path d="M1227.9 84.6182C1226.1 84.6182 1224.65 83.1611 1224.65 81.3636C1224.65 79.5662 1226.1 78.1091 1227.9 78.1091C1229.7 78.1091 1231.16 79.5662 1231.16 81.3636C1231.16 83.1611 1229.7 84.6182 1227.9 84.6182Z" fill="#D2D6DB" fill-opacity="0.4"/>
<path d="M1227.9 104.145C1226.1 104.145 1224.65 102.688 1224.65 100.891C1224.65 99.0935 1226.1 97.6364 1227.9 97.6364C1229.7 97.6364 1231.16 99.0935 1231.16 100.891C1231.16 102.688 1229.7 104.145 1227.9 104.145Z" fill="#D2D6DB" fill-opacity="0.4"/>
<path d="M1227.9 123.673C1226.1 123.673 1224.65 122.216 1224.65 120.418C1224.65 118.621 1226.1 117.164 1227.9 117.164C1229.7 117.164 1231.16 118.621 1231.16 120.418C1231.16 122.216 1229.7 123.673 1227.9 123.673Z" fill="#D2D6DB" fill-opacity="0.4"/>
<path d="M1227.9 143.2C1226.1 143.2 1224.65 141.743 1224.65 139.945C1224.65 138.148 1226.1 136.691 1227.9 136.691C1229.7 136.691 1231.16 138.148 1231.16 139.945C1231.16 141.743 1229.7 143.2 1227.9 143.2Z" fill="#D2D6DB" fill-opacity="0.4"/>
<path d="M1227.9 162.727C1226.1 162.727 1224.65 161.27 1224.65 159.473C1224.65 157.675 1226.1 156.218 1227.9 156.218C1229.7 156.218 1231.16 157.675 1231.16 159.473C1231.16 161.27 1229.7 162.727 1227.9 162.727Z" fill="#D2D6DB" fill-opacity="0.4"/>
<path d="M1227.9 182.255C1226.1 182.255 1224.65 180.797 1224.65 179C1224.65 177.203 1226.1 175.745 1227.9 175.745C1229.7 175.745 1231.16 177.203 1231.16 179C1231.16 180.797 1229.7 182.255 1227.9 182.255Z" fill="#D2D6DB" fill-opacity="0.4"/>
<path d="M1227.9 201.782C1226.1 201.782 1224.65 200.325 1224.65 198.527C1224.65 196.73 1226.1 195.273 1227.9 195.273C1229.7 195.273 1231.16 196.73 1231.16 198.527C1231.16 200.325 1229.7 201.782 1227.9 201.782Z" fill="#D2D6DB" fill-opacity="0.4"/>
<path d="M1227.9 221.309C1226.1 221.309 1224.65 219.852 1224.65 218.055C1224.65 216.257 1226.1 214.8 1227.9 214.8C1229.7 214.8 1231.16 216.257 1231.16 218.055C1231.16 219.852 1229.7 221.309 1227.9 221.309Z" fill="#D2D6DB" fill-opacity="0.4"/>
<path d="M1227.9 240.836C1226.1 240.836 1224.65 239.379 1224.65 237.582C1224.65 235.784 1226.1 234.327 1227.9 234.327C1229.7 234.327 1231.16 235.784 1231.16 237.582C1231.16 239.379 1229.7 240.836 1227.9 240.836Z" fill="#D2D6DB" fill-opacity="0.4"/>
<path d="M1227.9 260.364C1226.1 260.364 1224.65 258.907 1224.65 257.109C1224.65 255.312 1226.1 253.855 1227.9 253.855C1229.7 253.855 1231.16 255.312 1231.16 257.109C1231.16 258.907 1229.7 260.364 1227.9 260.364Z" fill="#D2D6DB" fill-opacity="0.4"/>
<path d="M1227.9 279.891C1226.1 279.891 1224.65 278.434 1224.65 276.636C1224.65 274.839 1226.1 273.382 1227.9 273.382C1229.7 273.382 1231.16 274.839 1231.16 276.636C1231.16 278.434 1229.7 279.891 1227.9 279.891Z" fill="#D2D6DB" fill-opacity="0.4"/>
<path d="M1227.9 299.418C1226.1 299.418 1224.65 297.961 1224.65 296.164C1224.65 294.366 1226.1 292.909 1227.9 292.909C1229.7 292.909 1231.16 294.366 1231.16 296.164C1231.16 297.961 1229.7 299.418 1227.9 299.418Z" fill="#D2D6DB" fill-opacity="0.4"/>
<path d="M1227.9 318.945C1226.1 318.945 1224.65 317.488 1224.65 315.691C1224.65 313.893 1226.1 312.436 1227.9 312.436C1229.7 312.436 1231.16 313.893 1231.16 315.691C1231.16 317.488 1229.7 318.945 1227.9 318.945Z" fill="#D2D6DB" fill-opacity="0.4"/>
<path d="M1227.9 338.473C1226.1 338.473 1224.65 337.016 1224.65 335.218C1224.65 333.421 1226.1 331.964 1227.9 331.964C1229.7 331.964 1231.16 333.421 1231.16 335.218C1231.16 337.016 1229.7 338.473 1227.9 338.473Z" fill="#D2D6DB" fill-opacity="0.4"/>
<path d="M1227.9 358C1226.1 358 1224.65 356.543 1224.65 354.745C1224.65 352.948 1226.1 351.491 1227.9 351.491C1229.7 351.491 1231.16 352.948 1231.16 354.745C1231.16 356.543 1229.7 358 1227.9 358Z" fill="#D2D6DB" fill-opacity="0.4"/>
<path d="M1208.35 6.50909C1206.56 6.50909 1205.1 5.05198 1205.1 3.25455C1205.1 1.45711 1206.56 1.62856e-06 1208.35 1.70713e-06C1210.15 1.7857e-06 1211.61 1.45711 1211.61 3.25455C1211.61 5.05198 1210.15 6.50909 1208.35 6.50909Z" fill="#D2D6DB" fill-opacity="0.4"/>
<path d="M1208.35 26.0364C1206.56 26.0364 1205.1 24.5793 1205.1 22.7818C1205.1 20.9844 1206.56 19.5273 1208.35 19.5273C1210.15 19.5273 1211.61 20.9844 1211.61 22.7818C1211.61 24.5793 1210.15 26.0364 1208.35 26.0364Z" fill="#D2D6DB" fill-opacity="0.4"/>
<path d="M1208.35 45.5636C1206.56 45.5636 1205.1 44.1065 1205.1 42.3091C1205.1 40.5117 1206.56 39.0545 1208.35 39.0545C1210.15 39.0545 1211.61 40.5117 1211.61 42.3091C1211.61 44.1065 1210.15 45.5636 1208.35 45.5636Z" fill="#D2D6DB" fill-opacity="0.4"/>
<path d="M1208.35 65.0909C1206.56 65.0909 1205.1 63.6338 1205.1 61.8364C1205.1 60.0389 1206.56 58.5818 1208.35 58.5818C1210.15 58.5818 1211.61 60.0389 1211.61 61.8364C1211.61 63.6338 1210.15 65.0909 1208.35 65.0909Z" fill="#D2D6DB" fill-opacity="0.4"/>
<path d="M1208.35 84.6182C1206.56 84.6182 1205.1 83.1611 1205.1 81.3636C1205.1 79.5662 1206.56 78.1091 1208.35 78.1091C1210.15 78.1091 1211.61 79.5662 1211.61 81.3636C1211.61 83.1611 1210.15 84.6182 1208.35 84.6182Z" fill="#D2D6DB" fill-opacity="0.4"/>
<path d="M1208.35 104.145C1206.56 104.145 1205.1 102.688 1205.1 100.891C1205.1 99.0935 1206.56 97.6364 1208.35 97.6364C1210.15 97.6364 1211.61 99.0935 1211.61 100.891C1211.61 102.688 1210.15 104.145 1208.35 104.145Z" fill="#D2D6DB" fill-opacity="0.4"/>
<path d="M1208.35 123.673C1206.56 123.673 1205.1 122.216 1205.1 120.418C1205.1 118.621 1206.56 117.164 1208.35 117.164C1210.15 117.164 1211.61 118.621 1211.61 120.418C1211.61 122.216 1210.15 123.673 1208.35 123.673Z" fill="#D2D6DB" fill-opacity="0.4"/>
<path d="M1208.35 143.2C1206.56 143.2 1205.1 141.743 1205.1 139.945C1205.1 138.148 1206.56 136.691 1208.35 136.691C1210.15 136.691 1211.61 138.148 1211.61 139.945C1211.61 141.743 1210.15 143.2 1208.35 143.2Z" fill="#D2D6DB" fill-opacity="0.4"/>
<path d="M1208.35 162.727C1206.56 162.727 1205.1 161.27 1205.1 159.473C1205.1 157.675 1206.56 156.218 1208.35 156.218C1210.15 156.218 1211.61 157.675 1211.61 159.473C1211.61 161.27 1210.15 162.727 1208.35 162.727Z" fill="#D2D6DB" fill-opacity="0.4"/>
<path d="M1208.35 182.255C1206.56 182.255 1205.1 180.797 1205.1 179C1205.1 177.203 1206.56 175.745 1208.35 175.745C1210.15 175.745 1211.61 177.203 1211.61 179C1211.61 180.797 1210.15 182.255 1208.35 182.255Z" fill="#D2D6DB" fill-opacity="0.4"/>
<path d="M1208.35 201.782C1206.56 201.782 1205.1 200.325 1205.1 198.527C1205.1 196.73 1206.56 195.273 1208.35 195.273C1210.15 195.273 1211.61 196.73 1211.61 198.527C1211.61 200.325 1210.15 201.782 1208.35 201.782Z" fill="#D2D6DB" fill-opacity="0.4"/>
<path d="M1208.35 221.309C1206.56 221.309 1205.1 219.852 1205.1 218.055C1205.1 216.257 1206.56 214.8 1208.35 214.8C1210.15 214.8 1211.61 216.257 1211.61 218.055C1211.61 219.852 1210.15 221.309 1208.35 221.309Z" fill="#D2D6DB" fill-opacity="0.4"/>
<path d="M1208.35 240.836C1206.56 240.836 1205.1 239.379 1205.1 237.582C1205.1 235.784 1206.56 234.327 1208.35 234.327C1210.15 234.327 1211.61 235.784 1211.61 237.582C1211.61 239.379 1210.15 240.836 1208.35 240.836Z" fill="#D2D6DB" fill-opacity="0.4"/>
<path d="M1208.35 260.364C1206.56 260.364 1205.1 258.907 1205.1 257.109C1205.1 255.312 1206.56 253.855 1208.35 253.855C1210.15 253.855 1211.61 255.312 1211.61 257.109C1211.61 258.907 1210.15 260.364 1208.35 260.364Z" fill="#D2D6DB" fill-opacity="0.4"/>
<path d="M1208.35 279.891C1206.56 279.891 1205.1 278.434 1205.1 276.636C1205.1 274.839 1206.56 273.382 1208.35 273.382C1210.15 273.382 1211.61 274.839 1211.61 276.636C1211.61 278.434 1210.15 279.891 1208.35 279.891Z" fill="#D2D6DB" fill-opacity="0.4"/>
<path d="M1208.35 299.418C1206.56 299.418 1205.1 297.961 1205.1 296.164C1205.1 294.366 1206.56 292.909 1208.35 292.909C1210.15 292.909 1211.61 294.366 1211.61 296.164C1211.61 297.961 1210.15 299.418 1208.35 299.418Z" fill="#D2D6DB" fill-opacity="0.4"/>
<path d="M1208.35 318.945C1206.56 318.945 1205.1 317.488 1205.1 315.691C1205.1 313.893 1206.56 312.436 1208.35 312.436C1210.15 312.436 1211.61 313.893 1211.61 315.691C1211.61 317.488 1210.15 318.945 1208.35 318.945Z" fill="#D2D6DB" fill-opacity="0.4"/>
<path d="M1208.35 338.473C1206.56 338.473 1205.1 337.016 1205.1 335.218C1205.1 333.421 1206.56 331.964 1208.35 331.964C1210.15 331.964 1211.61 333.421 1211.61 335.218C1211.61 337.016 1210.15 338.473 1208.35 338.473Z" fill="#D2D6DB" fill-opacity="0.4"/>
<path d="M1208.35 358C1206.56 358 1205.1 356.543 1205.1 354.745C1205.1 352.948 1206.56 351.491 1208.35 351.491C1210.15 351.491 1211.61 352.948 1211.61 354.745C1211.61 356.543 1210.15 358 1208.35 358Z" fill="#D2D6DB" fill-opacity="0.4"/>
<path d="M1188.81 6.50909C1187.01 6.50909 1185.55 5.05198 1185.55 3.25455C1185.55 1.45711 1187.01 7.74996e-07 1188.81 8.53564e-07C1190.61 9.32132e-07 1192.06 1.45711 1192.06 3.25455C1192.06 5.05198 1190.61 6.50909 1188.81 6.50909Z" fill="#D2D6DB" fill-opacity="0.4"/>
<path d="M1188.81 26.0364C1187.01 26.0364 1185.55 24.5793 1185.55 22.7818C1185.55 20.9844 1187.01 19.5273 1188.81 19.5273C1190.61 19.5273 1192.06 20.9844 1192.06 22.7818C1192.06 24.5793 1190.61 26.0364 1188.81 26.0364Z" fill="#D2D6DB" fill-opacity="0.4"/>
<path d="M1188.81 45.5636C1187.01 45.5636 1185.55 44.1065 1185.55 42.3091C1185.55 40.5117 1187.01 39.0545 1188.81 39.0545C1190.61 39.0545 1192.06 40.5117 1192.06 42.3091C1192.06 44.1065 1190.61 45.5636 1188.81 45.5636Z" fill="#D2D6DB" fill-opacity="0.4"/>
<path d="M1188.81 65.0909C1187.01 65.0909 1185.55 63.6338 1185.55 61.8364C1185.55 60.0389 1187.01 58.5818 1188.81 58.5818C1190.61 58.5818 1192.06 60.0389 1192.06 61.8364C1192.06 63.6338 1190.61 65.0909 1188.81 65.0909Z" fill="#D2D6DB" fill-opacity="0.4"/>
<path d="M1188.81 84.6182C1187.01 84.6182 1185.55 83.1611 1185.55 81.3636C1185.55 79.5662 1187.01 78.1091 1188.81 78.1091C1190.61 78.1091 1192.06 79.5662 1192.06 81.3636C1192.06 83.1611 1190.61 84.6182 1188.81 84.6182Z" fill="#D2D6DB" fill-opacity="0.4"/>
<path d="M1188.81 104.145C1187.01 104.145 1185.55 102.688 1185.55 100.891C1185.55 99.0935 1187.01 97.6364 1188.81 97.6364C1190.61 97.6364 1192.06 99.0935 1192.06 100.891C1192.06 102.688 1190.61 104.145 1188.81 104.145Z" fill="#D2D6DB" fill-opacity="0.4"/>
<path d="M1188.81 123.673C1187.01 123.673 1185.55 122.216 1185.55 120.418C1185.55 118.621 1187.01 117.164 1188.81 117.164C1190.61 117.164 1192.06 118.621 1192.06 120.418C1192.06 122.216 1190.61 123.673 1188.81 123.673Z" fill="#D2D6DB" fill-opacity="0.4"/>
<path d="M1188.81 143.2C1187.01 143.2 1185.55 141.743 1185.55 139.945C1185.55 138.148 1187.01 136.691 1188.81 136.691C1190.61 136.691 1192.06 138.148 1192.06 139.945C1192.06 141.743 1190.61 143.2 1188.81 143.2Z" fill="#D2D6DB" fill-opacity="0.4"/>
<path d="M1188.81 162.727C1187.01 162.727 1185.55 161.27 1185.55 159.473C1185.55 157.675 1187.01 156.218 1188.81 156.218C1190.61 156.218 1192.06 157.675 1192.06 159.473C1192.06 161.27 1190.61 162.727 1188.81 162.727Z" fill="#D2D6DB" fill-opacity="0.4"/>
<path d="M1188.81 182.255C1187.01 182.255 1185.55 180.797 1185.55 179C1185.55 177.203 1187.01 175.745 1188.81 175.745C1190.61 175.745 1192.06 177.203 1192.06 179C1192.06 180.797 1190.61 182.255 1188.81 182.255Z" fill="#D2D6DB" fill-opacity="0.4"/>
<path d="M1188.81 201.782C1187.01 201.782 1185.55 200.325 1185.55 198.527C1185.55 196.73 1187.01 195.273 1188.81 195.273C1190.61 195.273 1192.06 196.73 1192.06 198.527C1192.06 200.325 1190.61 201.782 1188.81 201.782Z" fill="#D2D6DB" fill-opacity="0.4"/>
<path d="M1188.81 221.309C1187.01 221.309 1185.55 219.852 1185.55 218.055C1185.55 216.257 1187.01 214.8 1188.81 214.8C1190.61 214.8 1192.06 216.257 1192.06 218.055C1192.06 219.852 1190.61 221.309 1188.81 221.309Z" fill="#D2D6DB" fill-opacity="0.4"/>
<path d="M1188.81 240.836C1187.01 240.836 1185.55 239.379 1185.55 237.582C1185.55 235.784 1187.01 234.327 1188.81 234.327C1190.61 234.327 1192.06 235.784 1192.06 237.582C1192.06 239.379 1190.61 240.836 1188.81 240.836Z" fill="#D2D6DB" fill-opacity="0.4"/>
<path d="M1188.81 260.364C1187.01 260.364 1185.55 258.907 1185.55 257.109C1185.55 255.312 1187.01 253.855 1188.81 253.855C1190.61 253.855 1192.06 255.312 1192.06 257.109C1192.06 258.907 1190.61 260.364 1188.81 260.364Z" fill="#D2D6DB" fill-opacity="0.4"/>
<path d="M1188.81 279.891C1187.01 279.891 1185.55 278.434 1185.55 276.636C1185.55 274.839 1187.01 273.382 1188.81 273.382C1190.61 273.382 1192.06 274.839 1192.06 276.636C1192.06 278.434 1190.61 279.891 1188.81 279.891Z" fill="#D2D6DB" fill-opacity="0.4"/>
<path d="M1188.81 299.418C1187.01 299.418 1185.55 297.961 1185.55 296.164C1185.55 294.366 1187.01 292.909 1188.81 292.909C1190.61 292.909 1192.06 294.366 1192.06 296.164C1192.06 297.961 1190.61 299.418 1188.81 299.418Z" fill="#D2D6DB" fill-opacity="0.4"/>
<path d="M1188.81 318.945C1187.01 318.945 1185.55 317.488 1185.55 315.691C1185.55 313.893 1187.01 312.436 1188.81 312.436C1190.61 312.436 1192.06 313.893 1192.06 315.691C1192.06 317.488 1190.61 318.945 1188.81 318.945Z" fill="#D2D6DB" fill-opacity="0.4"/>
<path d="M1188.81 338.473C1187.01 338.473 1185.55 337.016 1185.55 335.218C1185.55 333.421 1187.01 331.964 1188.81 331.964C1190.61 331.964 1192.06 333.421 1192.06 335.218C1192.06 337.016 1190.61 338.473 1188.81 338.473Z" fill="#D2D6DB" fill-opacity="0.4"/>
<path d="M1188.81 358C1187.01 358 1185.55 356.543 1185.55 354.745C1185.55 352.948 1187.01 351.491 1188.81 351.491C1190.61 351.491 1192.06 352.948 1192.06 354.745C1192.06 356.543 1190.61 358 1188.81 358Z" fill="#D2D6DB" fill-opacity="0.4"/>
<path d="M1169.26 6.50909C1167.46 6.50909 1166 5.05198 1166 3.25455C1166 1.45711 1167.46 -7.85684e-08 1169.26 0C1171.06 7.85684e-08 1172.52 1.45711 1172.52 3.25455C1172.52 5.05198 1171.06 6.50909 1169.26 6.50909Z" fill="#D2D6DB" fill-opacity="0.4"/>
<path d="M1169.26 26.0364C1167.46 26.0364 1166 24.5793 1166 22.7818C1166 20.9844 1167.46 19.5273 1169.26 19.5273C1171.06 19.5273 1172.52 20.9844 1172.52 22.7818C1172.52 24.5793 1171.06 26.0364 1169.26 26.0364Z" fill="#D2D6DB" fill-opacity="0.4"/>
<path d="M1169.26 45.5636C1167.46 45.5636 1166 44.1065 1166 42.3091C1166 40.5117 1167.46 39.0545 1169.26 39.0545C1171.06 39.0545 1172.52 40.5117 1172.52 42.3091C1172.52 44.1065 1171.06 45.5636 1169.26 45.5636Z" fill="#D2D6DB" fill-opacity="0.4"/>
<path d="M1169.26 65.0909C1167.46 65.0909 1166 63.6338 1166 61.8364C1166 60.0389 1167.46 58.5818 1169.26 58.5818C1171.06 58.5818 1172.52 60.0389 1172.52 61.8364C1172.52 63.6338 1171.06 65.0909 1169.26 65.0909Z" fill="#D2D6DB" fill-opacity="0.4"/>
<path d="M1169.26 84.6182C1167.46 84.6182 1166 83.1611 1166 81.3636C1166 79.5662 1167.46 78.1091 1169.26 78.1091C1171.06 78.1091 1172.52 79.5662 1172.52 81.3636C1172.52 83.1611 1171.06 84.6182 1169.26 84.6182Z" fill="#D2D6DB" fill-opacity="0.4"/>
<path d="M1169.26 104.145C1167.46 104.145 1166 102.688 1166 100.891C1166 99.0935 1167.46 97.6364 1169.26 97.6364C1171.06 97.6364 1172.52 99.0935 1172.52 100.891C1172.52 102.688 1171.06 104.145 1169.26 104.145Z" fill="#D2D6DB" fill-opacity="0.4"/>
<path d="M1169.26 123.673C1167.46 123.673 1166 122.216 1166 120.418C1166 118.621 1167.46 117.164 1169.26 117.164C1171.06 117.164 1172.52 118.621 1172.52 120.418C1172.52 122.216 1171.06 123.673 1169.26 123.673Z" fill="#D2D6DB" fill-opacity="0.4"/>
<path d="M1169.26 143.2C1167.46 143.2 1166 141.743 1166 139.945C1166 138.148 1167.46 136.691 1169.26 136.691C1171.06 136.691 1172.52 138.148 1172.52 139.945C1172.52 141.743 1171.06 143.2 1169.26 143.2Z" fill="#D2D6DB" fill-opacity="0.4"/>
<path d="M1169.26 162.727C1167.46 162.727 1166 161.27 1166 159.473C1166 157.675 1167.46 156.218 1169.26 156.218C1171.06 156.218 1172.52 157.675 1172.52 159.473C1172.52 161.27 1171.06 162.727 1169.26 162.727Z" fill="#D2D6DB" fill-opacity="0.4"/>
<path d="M1169.26 182.255C1167.46 182.255 1166 180.797 1166 179C1166 177.203 1167.46 175.745 1169.26 175.745C1171.06 175.745 1172.52 177.203 1172.52 179C1172.52 180.797 1171.06 182.255 1169.26 182.255Z" fill="#D2D6DB" fill-opacity="0.4"/>
<path d="M1169.26 201.782C1167.46 201.782 1166 200.325 1166 198.527C1166 196.73 1167.46 195.273 1169.26 195.273C1171.06 195.273 1172.52 196.73 1172.52 198.527C1172.52 200.325 1171.06 201.782 1169.26 201.782Z" fill="#D2D6DB" fill-opacity="0.4"/>
<path d="M1169.26 221.309C1167.46 221.309 1166 219.852 1166 218.055C1166 216.257 1167.46 214.8 1169.26 214.8C1171.06 214.8 1172.52 216.257 1172.52 218.055C1172.52 219.852 1171.06 221.309 1169.26 221.309Z" fill="#D2D6DB" fill-opacity="0.4"/>
<path d="M1169.26 240.836C1167.46 240.836 1166 239.379 1166 237.582C1166 235.784 1167.46 234.327 1169.26 234.327C1171.06 234.327 1172.52 235.784 1172.52 237.582C1172.52 239.379 1171.06 240.836 1169.26 240.836Z" fill="#D2D6DB" fill-opacity="0.4"/>
<path d="M1169.26 260.364C1167.46 260.364 1166 258.907 1166 257.109C1166 255.312 1167.46 253.855 1169.26 253.855C1171.06 253.855 1172.52 255.312 1172.52 257.109C1172.52 258.907 1171.06 260.364 1169.26 260.364Z" fill="#D2D6DB" fill-opacity="0.4"/>
<path d="M1169.26 279.891C1167.46 279.891 1166 278.434 1166 276.636C1166 274.839 1167.46 273.382 1169.26 273.382C1171.06 273.382 1172.52 274.839 1172.52 276.636C1172.52 278.434 1171.06 279.891 1169.26 279.891Z" fill="#D2D6DB" fill-opacity="0.4"/>
<path d="M1169.26 299.418C1167.46 299.418 1166 297.961 1166 296.164C1166 294.366 1167.46 292.909 1169.26 292.909C1171.06 292.909 1172.52 294.366 1172.52 296.164C1172.52 297.961 1171.06 299.418 1169.26 299.418Z" fill="#D2D6DB" fill-opacity="0.4"/>
<path d="M1169.26 318.945C1167.46 318.945 1166 317.488 1166 315.691C1166 313.893 1167.46 312.436 1169.26 312.436C1171.06 312.436 1172.52 313.893 1172.52 315.691C1172.52 317.488 1171.06 318.945 1169.26 318.945Z" fill="#D2D6DB" fill-opacity="0.4"/>
<path d="M1169.26 338.473C1167.46 338.473 1166 337.016 1166 335.218C1166 333.421 1167.46 331.964 1169.26 331.964C1171.06 331.964 1172.52 333.421 1172.52 335.218C1172.52 337.016 1171.06 338.473 1169.26 338.473Z" fill="#D2D6DB" fill-opacity="0.4"/>
<path d="M1169.26 358C1167.46 358 1166 356.543 1166 354.745C1166 352.948 1167.46 351.491 1169.26 351.491C1171.06 351.491 1172.52 352.948 1172.52 354.745C1172.52 356.543 1171.06 358 1169.26 358Z" fill="#D2D6DB" fill-opacity="0.4"/>
<rect x="1166" y="379" width="202" height="12" fill="#D8D5FF" fill-opacity="0.6"/>
</svg>
