<svg width="330" height="534" viewBox="0 0 330 534" fill="none" xmlns="http://www.w3.org/2000/svg">
<mask id="mask0_2421_1797" style="mask-type:alpha" maskUnits="userSpaceOnUse" x="86" y="0" width="244" height="534">
<rect width="281.053" height="393.474" transform="matrix(0.866025 0.5 0 1 86.1289 0)" fill="#D9D9D9"/>
</mask>
<g mask="url(#mask0_2421_1797)">
<rect width="56.2105" height="393.474" transform="matrix(0.866025 -0.5 0 1 86.1289 0)" fill="url(#paint0_linear_2421_1797)"/>
<rect width="281.053" height="56.2105" transform="matrix(0.866025 0.5 -0.866025 0.5 134.809 365.368)" fill="url(#paint1_linear_2421_1797)"/>
<rect width="281.053" height="393.474" transform="matrix(0.866025 0.5 0 1 134.809 -28.1049)" fill="url(#paint2_linear_2421_1797)"/>
</g>
<g filter="url(#filter0_b_2421_1797)">
<path fill-rule="evenodd" clip-rule="evenodd" d="M188.873 59.0599H1.88534C0.844098 59.0599 0 59.904 0 60.9453V193.887C0 194.929 0.844098 195.773 1.88534 195.773H136.478C136.849 195.773 137.213 195.883 137.522 196.088L187.543 229.369C188.796 230.202 190.473 229.304 190.473 227.799V197.658C190.473 196.617 191.317 195.773 192.358 195.773H246.658C247.7 195.773 248.544 194.929 248.544 193.887V93.5111L188.873 59.0599Z" fill="#86A0FC"/>
</g>
<defs>
<filter id="filter0_b_2421_1797" x="-7.54138" y="51.5186" width="263.627" height="185.71" filterUnits="userSpaceOnUse" color-interpolation-filters="sRGB">
<feFlood flood-opacity="0" result="BackgroundImageFix"/>
<feGaussianBlur in="BackgroundImageFix" stdDeviation="3.77069"/>
<feComposite in2="SourceAlpha" operator="in" result="effect1_backgroundBlur_2421_1797"/>
<feBlend mode="normal" in="SourceGraphic" in2="effect1_backgroundBlur_2421_1797" result="shape"/>
</filter>
<linearGradient id="paint0_linear_2421_1797" x1="0" y1="0" x2="65.3522" y2="1.52425" gradientUnits="userSpaceOnUse">
<stop stop-color="#766CE1"/>
<stop offset="1" stop-color="#4963BF"/>
</linearGradient>
<linearGradient id="paint1_linear_2421_1797" x1="280.943" y1="56.2244" x2="255.628" y2="-57.1209" gradientUnits="userSpaceOnUse">
<stop stop-color="#BEA2EC"/>
<stop offset="1" stop-color="#8C9EDF"/>
</linearGradient>
<linearGradient id="paint2_linear_2421_1797" x1="-8.60886e-05" y1="-0.360218" x2="241.891" y2="-23.027" gradientUnits="userSpaceOnUse">
<stop stop-color="#442FC8"/>
<stop offset="1" stop-color="#304FBD"/>
</linearGradient>
</defs>
</svg>
