<svg width="98" height="98" viewBox="0 0 98 98" fill="none" xmlns="http://www.w3.org/2000/svg">
<path d="M97.9484 48.9742C97.9484 21.9267 76.0217 0 48.9742 0C21.9267 0 0 21.9267 0 48.9742C0 73.4184 17.9092 93.6796 41.322 97.3534V63.1308H28.8871V48.9742H41.322V38.1846C41.322 25.9104 48.6337 19.1305 59.8204 19.1305C65.1785 19.1305 70.783 20.0871 70.783 20.0871V32.1393H64.6077C58.5238 32.1393 56.6264 35.9145 56.6264 39.7877V48.9742H70.2091L68.0378 63.1308H56.6264V97.3534C80.0391 93.6796 97.9484 73.4188 97.9484 48.9742Z" fill="#1877F2"/>
<path d="M68.0374 63.1309L70.2087 48.9743H56.626V39.7878C56.626 35.9142 58.5234 32.1394 64.6073 32.1394H70.7826V20.0871C70.7826 20.0871 65.1781 19.1306 59.8197 19.1306C48.6333 19.1306 41.3216 25.9105 41.3216 38.1846V48.9743H28.8867V63.1309H41.3216V97.3535C43.853 97.7502 46.4115 97.9491 48.9738 97.9484C51.5361 97.9492 54.0946 97.7503 56.626 97.3535V63.1309H68.0374Z" fill="white"/>
</svg>
