<svg width="1542" height="438" viewBox="0 0 1542 438" fill="none" xmlns="http://www.w3.org/2000/svg">
<path d="M14.1098 114.565C14.1098 106.765 7.79244 100.441 0 100.441V0C63.2063 0 114.445 51.2927 114.445 114.565V323.294C114.445 331.094 120.762 337.418 128.555 337.418C136.347 337.418 142.664 331.094 142.664 323.294V114.565C142.664 51.2927 193.903 0 257.11 0C320.316 0 371.554 51.2927 371.554 114.565V323.294C371.554 331.094 377.872 337.418 385.664 337.418C393.455 337.418 399.774 331.094 399.774 323.294V114.565C399.774 51.2927 451.012 0 514.218 0C577.426 0 628.664 51.2927 628.664 114.565V323.294C628.664 331.094 634.98 337.418 642.774 337.418C650.566 337.418 656.884 331.094 656.884 323.294V114.565C656.884 51.2927 708.122 0 771.328 0V100.441C763.536 100.441 757.218 106.765 757.218 114.565V323.294C757.218 386.566 705.98 437.859 642.774 437.859C579.566 437.859 528.328 386.566 528.328 323.294V114.565C528.328 106.765 522.012 100.441 514.218 100.441C506.426 100.441 500.107 106.765 500.107 114.565V323.294C500.107 386.566 448.869 437.859 385.664 437.859C322.459 437.859 271.22 386.566 271.22 323.294V114.565C271.22 106.765 264.902 100.441 257.11 100.441C249.316 100.441 243 106.765 243 114.565V323.294C243 386.566 191.761 437.859 128.555 437.859C65.3483 437.859 14.1098 386.566 14.1098 323.294V114.565Z" fill="#2B199A" fill-opacity="0.4"/>
<path d="M784.7 114.565C784.7 106.765 778.382 100.441 770.59 100.441V0C833.796 0 885.035 51.2927 885.035 114.565V323.294C885.035 331.094 891.352 337.418 899.144 337.418C906.937 337.418 913.254 331.094 913.254 323.294V114.565C913.254 51.2927 964.493 0 1027.7 0C1090.91 0 1142.14 51.2927 1142.14 114.565V323.294C1142.14 331.094 1148.46 337.418 1156.25 337.418C1164.05 337.418 1170.36 331.094 1170.36 323.294V114.565C1170.36 51.2927 1221.6 0 1284.81 0C1348.02 0 1399.25 51.2927 1399.25 114.565V323.294C1399.25 331.094 1405.57 337.418 1413.36 337.418C1421.16 337.418 1427.47 331.094 1427.47 323.294V114.565C1427.47 51.2927 1478.71 0 1541.92 0V100.441C1534.13 100.441 1527.81 106.765 1527.81 114.565V323.294C1527.81 386.566 1476.57 437.859 1413.36 437.859C1350.16 437.859 1298.92 386.566 1298.92 323.294V114.565C1298.92 106.765 1292.6 100.441 1284.81 100.441C1277.02 100.441 1270.7 106.765 1270.7 114.565V323.294C1270.7 386.566 1219.46 437.859 1156.25 437.859C1093.05 437.859 1041.81 386.566 1041.81 323.294V114.565C1041.81 106.765 1035.49 100.441 1027.7 100.441C1019.91 100.441 1013.59 106.765 1013.59 114.565V323.294C1013.59 386.566 962.351 437.859 899.144 437.859C835.938 437.859 784.7 386.566 784.7 323.294V114.565Z" fill="#2B199A" fill-opacity="0.4"/>
</svg>
