<svg width="451" height="300" viewBox="0 0 451 300" fill="none" xmlns="http://www.w3.org/2000/svg">
<path fill-rule="evenodd" clip-rule="evenodd" d="M450.048 149.999C450.048 232.841 386.722 299.998 308.605 299.998C308.604 299.998 308.604 299.998 308.603 299.998H142.279C142.001 299.999 141.722 300 141.443 300C63.3264 300 0 232.843 0 150.001C0 67.1595 63.3261 0.00287156 141.443 0.00256548V0H308.603C308.604 0 308.604 0 308.605 0C386.722 0 450.048 67.1567 450.048 149.999Z" fill="white" fill-opacity="0.05"/>
<path fill-rule="evenodd" clip-rule="evenodd" d="M292.801 265.715C320.218 234.643 336.854 193.829 336.854 149.127C336.854 104.426 320.218 63.6113 292.801 32.5393C356.246 33.6263 407.343 85.4082 407.343 149.127C407.343 212.846 356.246 264.628 292.801 265.715Z" fill="#FF0F00" fill-opacity="0.1"/>
<path fill-rule="evenodd" clip-rule="evenodd" d="M273.976 173.561C262.758 226.242 215.971 265.756 159.956 265.756C95.5719 265.756 43.3779 213.55 43.3779 149.151C43.3779 84.7515 95.5719 32.5454 159.956 32.5454C217.88 32.5454 265.937 74.8 274.999 130.173H248.485C239.602 90.5447 205.087 60.1627 162.579 58.2932C111.719 56.0563 68.6766 95.4824 66.4403 146.354C64.204 197.225 103.621 240.278 154.48 242.515C198.759 244.462 237.113 214.831 247.773 173.561H273.976Z" fill="#FF0F00" fill-opacity="0.2"/>
<rect x="157.02" y="145.838" width="123.372" height="11.2183" fill="#FF0F00" fill-opacity="0.1"/>
<path d="M144.4 163.4C138.16 164.067 132.427 164.4 127.2 164.4C124.587 164.4 122.667 163.787 121.44 162.56C120.213 161.333 119.6 159.413 119.6 156.8V144C119.6 141.2 120.227 139.173 121.48 137.92C122.76 136.64 124.8 136 127.6 136H142V141.6H129.2C127.6 141.6 126.8 142.4 126.8 144V156.8C126.8 157.413 126.973 157.907 127.32 158.28C127.693 158.627 128.187 158.8 128.8 158.8C131.867 158.8 134.667 158.733 137.2 158.6V152.8H132V148H144.4V163.4ZM164.008 136C167.021 136 169.301 136.787 170.848 138.36C172.421 139.907 173.208 142.187 173.208 145.2V154.8C173.208 157.813 172.421 160.107 170.848 161.68C169.301 163.227 167.021 164 164.008 164H148.408V136H164.008ZM166.008 145.2C166.008 142.8 164.808 141.6 162.408 141.6H155.608V158.4H162.408C164.808 158.4 166.008 157.2 166.008 154.8V145.2ZM213.189 163.4C206.949 164.067 201.216 164.4 195.989 164.4C193.376 164.4 191.456 163.787 190.229 162.56C189.002 161.333 188.389 159.413 188.389 156.8V144C188.389 141.2 189.016 139.173 190.269 137.92C191.549 136.64 193.589 136 196.389 136H210.789V141.6H197.989C196.389 141.6 195.589 142.4 195.589 144V156.8C195.589 157.413 195.762 157.907 196.109 158.28C196.482 158.627 196.976 158.8 197.589 158.8C200.656 158.8 203.456 158.733 205.989 158.6V152.8H200.789V148H213.189V163.4ZM222.197 164H214.397L224.997 136H232.997L243.597 164H235.797L233.997 159H223.997L222.197 164ZM225.797 153.8H232.197L228.997 144.4L225.797 153.8ZM269.595 148.4L263.995 158.4H258.395L252.795 148.4V164H245.595V136H253.195L261.195 150.8L269.195 136H276.795V164H269.595V148.4ZM303.811 164H281.611V136H303.811V141.6H288.811V147H300.611V152.6H288.811V158.4H303.811V164ZM306.162 158.2C313.468 158.6 318.415 158.8 321.002 158.8C321.615 158.8 322.095 158.627 322.442 158.28C322.815 157.907 323.002 157.413 323.002 156.8V153.2H313.802C311.002 153.2 308.962 152.573 307.682 151.32C306.428 150.04 305.802 148 305.802 145.2V144C305.802 141.2 306.428 139.173 307.682 137.92C308.962 136.64 311.002 136 313.802 136H327.842V141.6H315.402C313.802 141.6 313.002 142.4 313.002 144V144.8C313.002 146.4 313.802 147.2 315.402 147.2H322.602C325.215 147.2 327.135 147.813 328.362 149.04C329.588 150.267 330.202 152.187 330.202 154.8V156.8C330.202 159.413 329.588 161.333 328.362 162.56C327.135 163.787 325.215 164.4 322.602 164.4C321.242 164.4 319.802 164.373 318.282 164.32L314.602 164.16C311.882 164.027 309.068 163.84 306.162 163.6V158.2Z" fill="white"/>
</svg>
