<svg width="280" height="186" viewBox="0 0 280 186" fill="none" xmlns="http://www.w3.org/2000/svg">
<path fill-rule="evenodd" clip-rule="evenodd" d="M279.03 92.9992C279.03 144.361 239.767 185.998 191.335 185.998C191.335 185.998 191.334 185.998 191.334 185.998H88.2322C88.0532 186 87.8741 186 87.6949 186C39.2623 186 0 144.363 0 93.001C0 41.639 39.2621 0.001933 87.6945 0.00171V0H191.334C191.334 0 191.335 0 191.335 0C239.767 0 279.03 41.6372 279.03 92.9992Z" fill="white" fill-opacity="0.05"/>
<path fill-rule="evenodd" clip-rule="evenodd" d="M181.537 164.744C198.536 145.479 208.85 120.174 208.85 92.4594C208.85 64.7445 198.535 39.4393 181.537 20.1746C220.873 20.8485 252.553 52.9534 252.553 92.4592C252.553 131.965 220.873 164.07 181.537 164.744Z" fill="#FF0F00" fill-opacity="0.2"/>
<path fill-rule="evenodd" clip-rule="evenodd" d="M169.866 107.608C162.91 140.27 133.902 164.769 99.1732 164.769C59.2548 164.769 26.8945 132.401 26.8945 92.4731C26.8945 52.5455 59.2548 20.1777 99.1732 20.1777C135.086 20.1777 164.882 46.3757 170.499 80.7073H154.061C148.554 56.1376 127.154 37.3009 100.799 36.1418C69.2662 34.7549 42.5797 59.1991 41.1932 90.7393C39.8067 122.279 64.2451 148.972 95.7781 150.359C123.231 151.566 147.01 133.195 153.619 107.608H169.866Z" fill="#FF0F00" fill-opacity="0.2"/>
<rect x="97.3516" y="90.4198" width="76.4909" height="6.95533" fill="#FF0F00" fill-opacity="0.2"/>
</svg>
