<svg width="149" height="24" viewBox="0 0 149 24" fill="none" xmlns="http://www.w3.org/2000/svg">
<path d="M55.2 17.7C52.08 18.0333 49.2133 18.2 46.6 18.2C45.2933 18.2 44.3333 17.8933 43.72 17.28C43.1067 16.6667 42.8 15.7067 42.8 14.4V8C42.8 6.6 43.1133 5.58667 43.74 4.96C44.38 4.32 45.4 4 46.8 4H54V6.8H47.6C46.8 6.8 46.4 7.2 46.4 8V14.4C46.4 14.7067 46.4867 14.9533 46.66 15.14C46.8467 15.3133 47.0933 15.4 47.4 15.4C48.9333 15.4 50.3333 15.3667 51.6 15.3V12.4H49V10H55.2V17.7ZM65.0039 4C66.5106 4 67.6506 4.39333 68.4239 5.18C69.2106 5.95333 69.6039 7.09333 69.6039 8.6V13.4C69.6039 14.9067 69.2106 16.0533 68.4239 16.84C67.6506 17.6133 66.5106 18 65.0039 18H57.2039V4H65.0039ZM66.0039 8.6C66.0039 7.4 65.4039 6.8 64.2039 6.8H60.8039V15.2H64.2039C65.4039 15.2 66.0039 14.6 66.0039 13.4V8.6ZM89.5945 17.7C86.4745 18.0333 83.6079 18.2 80.9945 18.2C79.6879 18.2 78.7279 17.8933 78.1145 17.28C77.5012 16.6667 77.1945 15.7067 77.1945 14.4V8C77.1945 6.6 77.5079 5.58667 78.1345 4.96C78.7745 4.32 79.7945 4 81.1945 4H88.3945V6.8H81.9945C81.1945 6.8 80.7945 7.2 80.7945 8V14.4C80.7945 14.7067 80.8812 14.9533 81.0545 15.14C81.2412 15.3133 81.4879 15.4 81.7945 15.4C83.3279 15.4 84.7279 15.3667 85.9945 15.3V12.4H83.3945V10H89.5945V17.7ZM94.0984 18H90.1984L95.4984 4H99.4984L104.798 18H100.898L99.9984 15.5H94.9984L94.0984 18ZM95.8984 12.9H99.0984L97.4984 8.2L95.8984 12.9ZM117.798 10.2L114.998 15.2H112.198L109.398 10.2V18H105.798V4H109.598L113.598 11.4L117.598 4H121.398V18H117.798V10.2ZM134.905 18H123.805V4H134.905V6.8H127.405V9.5H133.305V12.3H127.405V15.2H134.905V18ZM136.081 15.1C139.734 15.3 142.207 15.4 143.501 15.4C143.807 15.4 144.047 15.3133 144.221 15.14C144.407 14.9533 144.501 14.7067 144.501 14.4V12.6H139.901C138.501 12.6 137.481 12.2867 136.841 11.66C136.214 11.02 135.901 10 135.901 8.6V8C135.901 6.6 136.214 5.58667 136.841 4.96C137.481 4.32 138.501 4 139.901 4H146.921V6.8H140.701C139.901 6.8 139.501 7.2 139.501 8V8.4C139.501 9.2 139.901 9.6 140.701 9.6H144.301C145.607 9.6 146.567 9.90667 147.181 10.52C147.794 11.1333 148.101 12.0933 148.101 13.4V14.4C148.101 15.7067 147.794 16.6667 147.181 17.28C146.567 17.8933 145.607 18.2 144.301 18.2C143.621 18.2 142.901 18.1867 142.141 18.16L140.301 18.08C138.941 18.0133 137.534 17.92 136.081 17.8V15.1Z" fill="white"/>
<path fill-rule="evenodd" clip-rule="evenodd" d="M34.1019 11.3634C34.1019 17.6392 29.3034 22.7267 23.3842 22.7267C23.3841 22.7267 23.3841 22.7267 23.384 22.7267H10.7922C10.7674 22.7269 10.7426 22.727 10.7177 22.727C4.79848 22.727 0 17.6394 0 11.3636C0 5.08783 4.79846 0.000292614 10.7177 0.00026857V0H23.384C23.3841 0 23.3841 0 23.3842 0C29.3034 0 34.1019 5.08755 34.1019 11.3634Z" fill="white"/>
<path fill-rule="evenodd" clip-rule="evenodd" d="M22.187 20.1299C24.2645 17.776 25.525 14.684 25.525 11.2976C25.525 7.91122 24.2644 4.81923 22.1869 2.46533C26.9944 2.54767 30.8662 6.47048 30.8662 11.2976C30.8662 16.1247 26.9944 20.0475 22.187 20.1299Z" fill="#FF0F00" fill-opacity="0.8"/>
<path fill-rule="evenodd" clip-rule="evenodd" d="M20.7604 13.1482C19.9103 17.1391 16.3651 20.1325 12.1207 20.1325C7.24205 20.1325 3.28711 16.1776 3.28711 11.2989C3.28711 6.42027 7.24205 2.46533 12.1207 2.46533C16.5098 2.46533 20.1513 5.6664 20.8379 9.86131H18.8288C18.1558 6.85918 15.5404 4.55754 12.3194 4.41591C8.46557 4.24646 5.20405 7.23323 5.0346 11.0871C4.86514 14.9409 7.85192 18.2024 11.7057 18.3718C15.0609 18.5194 17.9671 16.2746 18.7748 13.1482H20.7604Z" fill="#FF0F00"/>
<rect x="11.8984" y="11.0483" width="9.3484" height="0.849855" fill="#FF0F00" fill-opacity="0.8"/>
</svg>
