<svg width="121" height="121" viewBox="0 0 121 121" fill="none" xmlns="http://www.w3.org/2000/svg">
<path d="M109.088 50.2351H105.058V50.0275H60.0332V70.0385H88.3062C84.1815 81.6874 73.0979 90.0494 60.0332 90.0494C43.4567 90.0494 30.0168 76.6096 30.0168 60.033C30.0168 43.4564 43.4567 30.0166 60.0332 30.0166C67.6849 30.0166 74.6462 32.9031 79.9466 37.6182L94.0969 23.468C85.162 15.1409 73.2105 10.0056 60.0332 10.0056C32.4056 10.0056 10.0059 32.4054 10.0059 60.033C10.0059 87.6606 32.4056 110.06 60.0332 110.06C87.6609 110.06 110.061 87.6606 110.061 60.033C110.061 56.6787 109.715 53.4044 109.088 50.2351Z" fill="#FFC107"/>
<path d="M15.7734 36.7478L32.2099 48.8019C36.6574 37.7908 47.4283 30.0166 60.0327 30.0166C67.6844 30.0166 74.6457 32.9032 79.9461 37.6182L94.0963 23.468C85.1614 15.1409 73.2099 10.0056 60.0327 10.0056C40.8171 10.0056 24.153 20.8541 15.7734 36.7478Z" fill="#FF3D00"/>
<path d="M60.033 110.061C72.955 110.061 84.6965 105.115 93.5738 97.0735L78.0904 83.9714C72.8989 87.9195 66.5552 90.0549 60.033 90.0497C47.0209 90.0497 35.9723 81.7527 31.81 70.1738L15.4961 82.7432C23.7756 98.9446 40.5898 110.061 60.033 110.061Z" fill="#4CAF50"/>
<path d="M109.088 50.2354H105.058V50.0278H60.0332V70.0388H88.3062C86.3331 75.5829 82.779 80.4274 78.0831 83.9739L78.0906 83.9689L93.5741 97.0711C92.4785 98.0666 110.061 85.047 110.061 60.0333C110.061 56.679 109.715 53.4047 109.088 50.2354Z" fill="#1976D2"/>
</svg>
