<svg width="240" height="296" viewBox="0 0 240 296" fill="none" xmlns="http://www.w3.org/2000/svg">
<path d="M0.688591 186.141L16.1903 38.2241L53.7994 65.5314L49.9239 102.511L87.533 129.818L83.6576 166.797L121.267 194.105L117.391 231.084L155 258.391L151.125 295.37L0.688591 186.141Z" fill="#9B7DDA"/>
<path d="M53.7994 65.5314L138.705 27.698L134.83 64.6772L49.9239 102.511L53.7994 65.5314Z" fill="#9F5EC3"/>
<path d="M16.1903 38.2241L101.097 0.390625L138.705 27.698L53.7994 65.5314L16.1903 38.2241Z" fill="url(#paint0_linear_2455_1857)"/>
<path d="M87.533 129.818L172.439 91.9846L168.563 128.964L83.6576 166.797L87.533 129.818Z" fill="#9F5EC3"/>
<path d="M49.9239 102.511L134.83 64.6772L172.439 91.9846L87.533 129.818L49.9239 102.511Z" fill="url(#paint1_linear_2455_1857)"/>
<path d="M121.267 194.105L206.173 156.271L202.298 193.25L117.391 231.084L121.267 194.105Z" fill="#9F5EC3"/>
<path d="M83.6576 166.797L168.563 128.964L206.173 156.271L121.267 194.105L83.6576 166.797Z" fill="url(#paint2_linear_2455_1857)"/>
<path d="M154.999 258.391L239.906 220.558L236.03 257.537L151.124 295.37L154.999 258.391Z" fill="#9F5EC3"/>
<path d="M117.391 231.084L202.298 193.25L239.906 220.558L155 258.391L117.391 231.084Z" fill="url(#paint3_linear_2455_1857)"/>
<defs>
<linearGradient id="paint0_linear_2455_1857" x1="239.883" y1="220.579" x2="156.744" y2="168.372" gradientUnits="userSpaceOnUse">
<stop stop-color="#E1BBE7"/>
<stop offset="1" stop-color="#B9A4EC"/>
</linearGradient>
<linearGradient id="paint1_linear_2455_1857" x1="239.883" y1="220.579" x2="156.744" y2="168.372" gradientUnits="userSpaceOnUse">
<stop stop-color="#E1BBE7"/>
<stop offset="1" stop-color="#B9A4EC"/>
</linearGradient>
<linearGradient id="paint2_linear_2455_1857" x1="239.883" y1="220.579" x2="156.744" y2="168.372" gradientUnits="userSpaceOnUse">
<stop stop-color="#E1BBE7"/>
<stop offset="1" stop-color="#B9A4EC"/>
</linearGradient>
<linearGradient id="paint3_linear_2455_1857" x1="239.883" y1="220.579" x2="156.744" y2="168.372" gradientUnits="userSpaceOnUse">
<stop stop-color="#E1BBE7"/>
<stop offset="1" stop-color="#B9A4EC"/>
</linearGradient>
</defs>
</svg>
