<svg width="1481" height="748" viewBox="0 0 1481 748" fill="none" xmlns="http://www.w3.org/2000/svg">
<path d="M20.6886 431.141L36.1903 283.224L73.7994 310.531L69.9239 347.511L107.533 374.818L103.658 411.797L141.267 439.105L137.391 476.084L175 503.391L171.125 540.37V540.37L20.6886 431.141Z" fill="#9B7DDA"/>
<rect width="92.9544" height="37.1818" transform="matrix(0.913423 -0.407011 -0.104229 0.994553 73.7987 310.531)" fill="#9F5EC3"/>
<rect width="92.9544" height="46.4772" transform="matrix(0.913423 -0.407011 0.809194 0.587542 36.1903 283.224)" fill="url(#paint0_linear_2252_1899)"/>
<rect width="92.9544" height="37.1818" transform="matrix(0.913423 -0.407011 -0.104229 0.994553 107.532 374.818)" fill="#9F5EC3"/>
<rect width="92.9544" height="46.4772" transform="matrix(0.913423 -0.407011 0.809194 0.587542 69.923 347.511)" fill="url(#paint1_linear_2252_1899)"/>
<rect width="92.9544" height="37.1818" transform="matrix(0.913423 -0.407011 -0.104229 0.994553 141.266 439.104)" fill="#9F5EC3"/>
<rect width="92.9544" height="46.4772" transform="matrix(0.913423 -0.407011 0.809194 0.587542 103.657 411.797)" fill="url(#paint2_linear_2252_1899)"/>
<rect width="92.9544" height="37.1818" transform="matrix(0.913423 -0.407011 -0.104229 0.994553 174.999 503.391)" fill="#9F5EC3"/>
<rect width="92.9544" height="46.4772" transform="matrix(0.913423 -0.407011 0.809194 0.587542 137.391 476.084)" fill="url(#paint3_linear_2252_1899)"/>
<defs>
<linearGradient id="paint0_linear_2252_1899" x1="92.9182" y1="46.4887" x2="51.0361" y2="-28.5194" gradientUnits="userSpaceOnUse">
<stop stop-color="#E1BBE7"/>
<stop offset="1" stop-color="#B9A4EC"/>
</linearGradient>
<linearGradient id="paint1_linear_2252_1899" x1="92.9182" y1="46.4887" x2="51.0361" y2="-28.5194" gradientUnits="userSpaceOnUse">
<stop stop-color="#E1BBE7"/>
<stop offset="1" stop-color="#B9A4EC"/>
</linearGradient>
<linearGradient id="paint2_linear_2252_1899" x1="92.9182" y1="46.4887" x2="51.0361" y2="-28.5194" gradientUnits="userSpaceOnUse">
<stop stop-color="#E1BBE7"/>
<stop offset="1" stop-color="#B9A4EC"/>
</linearGradient>
<linearGradient id="paint3_linear_2252_1899" x1="92.9182" y1="46.4887" x2="51.0361" y2="-28.5194" gradientUnits="userSpaceOnUse">
<stop stop-color="#E1BBE7"/>
<stop offset="1" stop-color="#B9A4EC"/>
</linearGradient>
</defs>
</svg>
