<svg width="1481" height="748" viewBox="0 0 1481 748" fill="none" xmlns="http://www.w3.org/2000/svg">
<path fill-rule="evenodd" clip-rule="evenodd" d="M1049.62 450.177C1052.07 440.727 1058.03 432.172 1066.99 426.641C1085.43 415.262 1109.6 420.984 1120.98 439.421L1184.08 541.658C1195.45 560.095 1189.73 584.266 1171.29 595.644C1152.86 607.023 1128.69 601.301 1117.31 582.864L1095.22 547.081L961.375 583.129L960.248 625.163C959.668 646.821 941.64 663.908 919.982 663.327C898.324 662.747 881.237 644.719 881.818 623.061L885.037 502.964C885.617 481.306 903.645 464.219 925.303 464.8C935.832 465.082 945.28 469.488 952.144 476.429L1049.62 450.177Z" fill="#CD6E45"/>
<path d="M1064.81 456.968L1082.25 467.238L1084.93 447.1L1092.91 465.699L1106.91 450.892L1102.4 470.715L1122.37 466.895L1107.09 480.371L1125.4 488.997L1105.18 490.978L1114.84 508.755L1097.4 498.486L1094.72 518.624L1086.74 500.025L1072.74 514.832L1077.25 495.009L1057.28 498.829L1072.56 485.353L1054.25 476.727L1074.47 474.746L1064.81 456.968Z" fill="#FFF7E1"/>
</svg>
