<svg width="1481" height="748" viewBox="0 0 1481 748" fill="none" xmlns="http://www.w3.org/2000/svg">
<path d="M820.997 560.042C823.3 557.562 827.443 558.715 828.134 562.028L832.538 583.125C832.715 583.971 833.15 584.741 833.783 585.329L849.573 599.997C852.053 602.301 850.9 606.443 847.587 607.134L826.49 611.539C825.644 611.715 824.874 612.15 824.286 612.783L809.618 628.573C807.314 631.053 803.172 629.9 802.481 626.587L798.076 605.49C797.9 604.644 797.465 603.874 796.832 603.286L781.042 588.618C778.562 586.314 779.715 582.172 783.028 581.481L804.125 577.076C804.971 576.9 805.741 576.465 806.328 575.832L820.997 560.042Z" fill="#FF4C24"/>
<path d="M820.997 560.042C823.3 557.562 827.443 558.715 828.134 562.028L832.538 583.125C832.715 583.971 833.15 584.741 833.783 585.329L849.573 599.997C852.053 602.301 850.9 606.443 847.587 607.134L826.49 611.539C825.644 611.715 824.874 612.15 824.286 612.783L809.618 628.573C807.314 631.053 803.172 629.9 802.481 626.587L798.076 605.49C797.9 604.644 797.465 603.874 796.832 603.286L781.042 588.618C778.562 586.314 779.715 582.172 783.028 581.481L804.125 577.076C804.971 576.9 805.741 576.465 806.328 575.832L820.997 560.042Z" fill="black" fill-opacity="0.2"/>
</svg>
