<svg width="1481" height="748" viewBox="0 0 1481 748" fill="none" xmlns="http://www.w3.org/2000/svg">
<path d="M1140 297.4C1139.86 316.417 1155.24 332.32 1174.35 332.92L1175.23 332.948C1194.34 333.548 1209.95 318.619 1210.1 299.602L1210.34 266.909C1210.48 247.893 1195.1 231.99 1175.99 231.389L1175.11 231.362C1156 230.761 1140.39 245.69 1140.25 264.707L1140 297.4Z" fill="#D9D9D9"/>
<path d="M1260.65 280.632C1270.29 264.204 1291.67 258.328 1308.42 267.509L1309.19 267.93C1325.94 277.111 1331.7 297.871 1322.07 314.299L1305.51 342.541C1295.88 358.969 1274.49 364.845 1257.74 355.664L1256.97 355.243C1240.23 346.062 1234.46 325.303 1244.09 308.874L1260.65 280.632Z" fill="#D9D9D9"/>
<path d="M1152.18 239.226C1157.63 234.657 1164.56 231.788 1172.17 231.391C1172.6 228.694 1173.18 225.992 1173.92 223.297C1184.54 184.773 1224.56 162.109 1263.3 172.675C1302.04 183.24 1324.83 223.035 1314.2 261.558C1311.74 270.481 1307.71 278.552 1302.47 285.557L1322.02 290.889C1326.64 283.534 1330.28 275.396 1332.7 266.604C1346.13 217.92 1317.33 167.63 1268.37 154.278C1219.42 140.926 1168.85 169.568 1155.42 218.252C1153.49 225.248 1152.43 232.278 1152.18 239.226Z" fill="white"/>
</svg>
