<svg width="1481" height="748" viewBox="0 0 1481 748" fill="none" xmlns="http://www.w3.org/2000/svg">
<path fill-rule="evenodd" clip-rule="evenodd" d="M350 282.823C340.283 289.628 328.468 293.619 315.725 293.619C282.584 293.619 255.717 266.626 255.717 233.329C255.717 212.938 265.792 194.911 281.215 184C243.277 185.57 213 216.967 213 255.469C213 294.975 244.875 327 284.196 327C313.873 327 339.309 308.756 350 282.823Z" fill="#F2C94C"/>
<path fill-rule="evenodd" clip-rule="evenodd" d="M350 282.823C340.283 289.628 328.468 293.619 315.725 293.619C282.584 293.619 255.717 266.626 255.717 233.329C255.717 212.938 265.792 194.911 281.215 184C243.277 185.57 213 216.967 213 255.469C213 294.975 244.875 327 284.196 327C313.873 327 339.309 308.756 350 282.823Z" fill="#364BE7" fill-opacity="0.53"/>
</svg>
