<svg width="1481" height="748" viewBox="0 0 1481 748" fill="none" xmlns="http://www.w3.org/2000/svg">
<path d="M20.6886 431.141L36.1903 283.224L73.7994 310.531L69.9239 347.511L107.533 374.818L103.658 411.797L141.267 439.105L137.391 476.084L175 503.391L171.125 540.37L20.6886 431.141Z" fill="#9B7DDA"/>
<path d="M73.7994 310.531L158.705 272.698L154.83 309.677L69.9239 347.511L73.7994 310.531Z" fill="#9F5EC3"/>
<path d="M36.1903 283.224L121.097 245.391L158.705 272.698L73.7994 310.531L36.1903 283.224Z" fill="url(#paint0_linear_2472_1862)"/>
<path d="M107.533 374.818L192.439 336.985L188.563 373.964L103.658 411.797L107.533 374.818Z" fill="#9F5EC3"/>
<path d="M69.9239 347.511L154.83 309.677L192.439 336.985L107.533 374.818L69.9239 347.511Z" fill="url(#paint1_linear_2472_1862)"/>
<path d="M141.267 439.105L226.173 401.271L222.298 438.25L137.391 476.084L141.267 439.105Z" fill="#9F5EC3"/>
<path d="M103.658 411.797L188.563 373.964L226.173 401.271L141.267 439.105L103.658 411.797Z" fill="url(#paint2_linear_2472_1862)"/>
<path d="M174.999 503.391L259.906 465.558L256.03 502.537L171.124 540.37L174.999 503.391Z" fill="#9F5EC3"/>
<path d="M137.391 476.084L222.298 438.25L259.906 465.558L175 503.391L137.391 476.084Z" fill="url(#paint3_linear_2472_1862)"/>
<defs>
<linearGradient id="paint0_linear_2472_1862" x1="259.883" y1="465.579" x2="176.744" y2="413.372" gradientUnits="userSpaceOnUse">
<stop stop-color="#E1BBE7"/>
<stop offset="1" stop-color="#B9A4EC"/>
</linearGradient>
<linearGradient id="paint1_linear_2472_1862" x1="259.883" y1="465.579" x2="176.744" y2="413.372" gradientUnits="userSpaceOnUse">
<stop stop-color="#E1BBE7"/>
<stop offset="1" stop-color="#B9A4EC"/>
</linearGradient>
<linearGradient id="paint2_linear_2472_1862" x1="259.883" y1="465.579" x2="176.744" y2="413.372" gradientUnits="userSpaceOnUse">
<stop stop-color="#E1BBE7"/>
<stop offset="1" stop-color="#B9A4EC"/>
</linearGradient>
<linearGradient id="paint3_linear_2472_1862" x1="259.883" y1="465.579" x2="176.744" y2="413.372" gradientUnits="userSpaceOnUse">
<stop stop-color="#E1BBE7"/>
<stop offset="1" stop-color="#B9A4EC"/>
</linearGradient>
</defs>
</svg>
