<svg width="1481" height="748" viewBox="0 0 1481 748" fill="none" xmlns="http://www.w3.org/2000/svg">
<g clip-path="url(#clip0_2259_1716)">
<path d="M777.455 740.275C767.084 746.201 753.873 742.598 747.947 732.228L742.979 723.534L734.286 728.502C723.915 734.428 710.704 730.825 704.778 720.455C698.852 710.084 702.455 696.873 712.825 690.947L721.519 685.979L716.551 677.286C710.625 666.915 714.228 653.704 724.599 647.778C734.969 641.852 748.18 645.455 754.107 655.825L759.074 664.519L767.767 659.551C778.138 653.625 791.349 657.228 797.275 667.599C803.201 677.969 799.598 691.18 789.228 697.107L780.534 702.074L785.502 710.767C791.428 721.138 787.825 734.349 777.455 740.275Z" fill="#C6A0C2"/>
</g>
<defs>
<clipPath id="clip0_2259_1716">
<rect width="1480.86" height="748.009" fill="white"/>
</clipPath>
</defs>
</svg>
