<svg width="1481" height="748" viewBox="0 0 1481 748" fill="none" xmlns="http://www.w3.org/2000/svg">
<path d="M1277.54 308.953C1240.13 297.933 1200.88 319.321 1189.86 356.724C1178.84 394.128 1200.23 433.382 1237.63 444.401C1200.23 433.382 1160.97 454.769 1149.95 492.172C1138.93 529.576 1160.32 568.83 1197.72 579.85C1235.13 590.87 1274.38 569.482 1285.4 532.079C1274.38 569.482 1295.77 608.736 1333.17 619.756C1370.58 630.776 1409.83 609.389 1420.85 571.985C1431.87 534.581 1410.48 495.328 1373.08 484.308C1410.48 495.328 1449.74 473.94 1460.76 436.537C1471.78 399.134 1450.39 359.879 1412.98 348.859C1375.58 337.839 1336.33 359.227 1325.31 396.63C1336.33 359.227 1314.94 319.973 1277.54 308.953Z" fill="#A483D0"/>
<path d="M1277.54 308.953C1240.13 297.933 1200.88 319.321 1189.86 356.724C1178.84 394.128 1200.23 433.382 1237.63 444.401C1200.23 433.382 1160.97 454.769 1149.95 492.172C1138.93 529.576 1160.32 568.83 1197.72 579.85C1235.13 590.87 1274.38 569.482 1285.4 532.079C1274.38 569.482 1295.77 608.736 1333.17 619.756C1370.58 630.776 1409.83 609.389 1420.85 571.985C1431.87 534.581 1410.48 495.328 1373.08 484.308C1410.48 495.328 1449.74 473.94 1460.76 436.537C1471.78 399.134 1450.39 359.879 1412.98 348.859C1375.58 337.839 1336.33 359.227 1325.31 396.63C1336.33 359.227 1314.94 319.973 1277.54 308.953Z" fill="#364BE7" fill-opacity="0.32"/>
</svg>
