<svg width="385" height="364" viewBox="0 0 385 364" fill="none" xmlns="http://www.w3.org/2000/svg">
<path d="M298.396 149.201C282.543 144.531 265.906 153.596 261.235 169.448C256.565 185.301 265.63 201.938 281.482 206.609C265.63 201.938 248.992 211.003 244.322 226.856C239.651 242.709 248.716 259.346 264.569 264.016C280.421 268.687 297.058 259.622 301.729 243.769C297.058 259.622 306.123 276.259 321.976 280.93C337.829 285.6 354.466 276.536 359.136 260.683C363.807 244.83 354.742 228.193 338.89 223.522C354.742 228.193 371.379 219.128 376.05 203.276C380.721 187.423 371.656 170.786 355.803 166.115C339.95 161.444 323.313 170.509 318.643 186.362C323.313 170.509 314.249 153.872 298.396 149.201Z" fill="#A483D0"/>
<path d="M298.396 149.201C282.543 144.531 265.906 153.596 261.235 169.448C256.565 185.301 265.63 201.938 281.482 206.609C265.63 201.938 248.992 211.003 244.322 226.856C239.651 242.709 248.716 259.346 264.569 264.016C280.421 268.687 297.058 259.622 301.729 243.769C297.058 259.622 306.123 276.259 321.976 280.93C337.829 285.6 354.466 276.536 359.136 260.683C363.807 244.83 354.742 228.193 338.89 223.522C354.742 228.193 371.379 219.128 376.05 203.276C380.721 187.423 371.656 170.786 355.803 166.115C339.95 161.444 323.313 170.509 318.643 186.362C323.313 170.509 314.249 153.872 298.396 149.201Z" fill="#364BE7" fill-opacity="0.32"/>
<path fill-rule="evenodd" clip-rule="evenodd" d="M179.607 124.697C168.778 128.012 162.717 139.573 166.068 150.519C169.419 161.464 180.914 167.649 191.743 164.334L236.466 150.64C247.295 147.325 253.356 135.764 250.005 124.818C246.654 113.873 235.159 107.688 224.33 111.003L179.607 124.697ZM234.26 143.434C241.151 141.324 245.008 133.967 242.875 127.002C240.743 120.036 233.428 116.1 226.537 118.21C219.646 120.32 215.788 127.677 217.921 134.642C220.054 141.607 227.369 145.543 234.26 143.434Z" fill="#49198F"/>
<path d="M312.436 114.018L267.045 103.555L228.309 164.161L247.997 168.699L218.146 223.24L293.539 156.019L273.305 151.354L312.436 114.018Z" fill="#B7B5FF"/>
<path d="M312.436 108.884L267.045 98.4207L228.309 159.027L247.997 163.565L218.146 218.106L293.539 150.884L273.305 146.22L312.436 108.884Z" fill="#4743BC"/>
<path d="M270.884 69.1151C270.817 78.0929 278.038 85.6007 287.011 85.8841L287.423 85.8972C296.397 86.1806 303.726 79.1325 303.792 70.1547L303.907 54.7206C303.974 45.7428 296.753 38.235 287.78 37.9516L287.368 37.9385C278.394 37.6551 271.066 44.7032 270.999 53.681L270.884 69.1151Z" fill="#D9D9D9"/>
<path d="M327.528 61.199C332.051 53.4433 342.091 50.6695 349.954 55.0036L350.315 55.2026C358.177 59.5367 360.885 69.3374 356.362 77.093L348.587 90.4262C344.065 98.1819 334.024 100.956 326.162 96.6216L325.801 96.4226C317.938 92.0885 315.23 82.2878 319.753 74.5322L327.528 61.199Z" fill="#D9D9D9"/>
<path d="M276.604 41.6514C279.16 39.4941 282.414 38.14 285.989 37.9526C286.187 36.6792 286.459 35.4037 286.808 34.1313C291.796 15.9443 310.583 5.2445 328.77 10.2325C346.957 15.2205 357.657 34.0075 352.669 52.1944C351.514 56.4065 349.618 60.2171 347.162 63.5241L356.34 66.0414C358.509 62.569 360.216 58.727 361.354 54.5764C367.658 31.593 354.136 7.85117 331.153 1.54765C308.169 -4.75588 284.427 8.76589 278.124 31.7494C277.218 35.0524 276.721 38.3711 276.604 41.6514Z" fill="white"/>
<path d="M157.938 129.962L176.498 220.952L112.335 210.858L157.938 129.962Z" fill="#AD2E0F"/>
<path d="M157.938 129.962L176.498 220.952L112.335 210.858L157.938 129.962Z" fill="#000AFF" fill-opacity="0.2"/>
<path fill-rule="evenodd" clip-rule="evenodd" d="M214.272 273.241C215.271 269.387 217.701 265.898 221.357 263.642C228.877 259.001 238.735 261.335 243.376 268.855L269.11 310.553C273.751 318.072 271.417 327.931 263.898 332.571C256.378 337.212 246.52 334.879 241.879 327.359L232.872 312.764L178.28 327.467L177.821 344.611C177.584 353.444 170.231 360.413 161.398 360.176C152.564 359.94 145.596 352.587 145.832 343.754L147.145 294.771C147.382 285.938 154.735 278.969 163.568 279.206C167.862 279.321 171.716 281.117 174.515 283.949L214.272 273.241Z" fill="#CD6E45"/>
<path fill-rule="evenodd" clip-rule="evenodd" d="M111 63.5211C105.822 67.1381 99.5266 69.2591 92.7367 69.2591C75.0775 69.2591 60.7618 54.9132 60.7618 37.2168C60.7618 26.3795 66.1303 16.7989 74.3481 11C54.133 11.8343 38 28.521 38 48.9837C38 69.9796 54.9847 87 75.9363 87C91.7497 87 105.303 77.304 111 63.5211Z" fill="#F2C94C"/>
<path fill-rule="evenodd" clip-rule="evenodd" d="M111 63.5211C105.822 67.1381 99.5266 69.2591 92.7367 69.2591C75.0775 69.2591 60.7618 54.9132 60.7618 37.2168C60.7618 26.3795 66.1303 16.7989 74.3481 11C54.133 11.8343 38 28.521 38 48.9837C38 69.9796 54.9847 87 75.9363 87C91.7497 87 105.303 77.304 111 63.5211Z" fill="#364BE7" fill-opacity="0.53"/>
<path d="M341.935 270.745L344.765 281.035L353.103 274.373L349.344 284.362L360.005 283.873L351.093 289.745L360.005 295.616L349.344 295.128L353.103 305.116L344.765 298.454L341.935 308.745L339.105 298.454L330.767 305.116L334.526 295.128L323.865 295.616L332.777 289.745L323.865 283.873L334.526 284.362L330.767 274.373L339.105 281.035L341.935 270.745Z" fill="#FFE0B7"/>
<path d="M207.935 238.134L210.765 248.424L219.103 241.763L215.344 251.751L226.005 251.263L217.093 257.134L226.005 263.006L215.344 262.517L219.103 272.506L210.765 265.844L207.935 276.134L205.105 265.844L196.767 272.506L200.526 262.517L189.865 263.006L198.777 257.134L189.865 251.263L200.526 251.751L196.767 241.763L205.105 248.424L207.935 238.134Z" fill="#FFF7E1"/>
<path d="M33.9349 60.6105L36.7647 70.9007L45.1027 64.2392L41.3438 74.2275L52.0048 73.7391L43.0929 79.6105L52.0048 85.4819L41.3438 84.9934L45.1027 94.9819L36.7647 88.3203L33.9349 98.6105L31.1048 88.3203L22.7669 94.9819L26.5258 84.9934L15.8647 85.4819L24.7768 79.6105L15.8647 73.7391L26.5258 74.2275L22.7669 64.2392L31.1048 70.9007L33.9349 60.6105Z" fill="#FFE0B7"/>
<path fill-rule="evenodd" clip-rule="evenodd" d="M154 254C167.255 254 178 243.255 178 230C178 216.745 167.255 206 154 206C140.745 206 130 216.745 130 230C130 243.255 140.745 254 154 254ZM154 242C160.627 242 166 236.627 166 230C166 223.373 160.627 218 154 218C147.373 218 142 223.373 142 230C142 236.627 147.373 242 154 242Z" fill="#A44343"/>
<path fill-rule="evenodd" clip-rule="evenodd" d="M86.446 94.6274L109.027 89.3137L114.341 111.895L114.341 111.895L136.922 106.581L142.236 129.163L119.655 134.476L124.968 157.058L102.387 162.371L97.0734 139.79L74.4921 145.104L69.1784 122.522L91.7597 117.209L91.7597 117.209L86.446 94.6274Z" fill="#5452F6"/>
<path fill-rule="evenodd" clip-rule="evenodd" d="M89.446 90.4932L112.027 85.1795L117.341 107.761L117.341 107.761L139.922 102.447L145.236 125.029L122.655 130.342L127.968 152.924L105.387 158.237L100.073 135.656L77.4921 140.97L72.1784 118.388L94.7597 113.075L94.7597 113.075L89.446 90.4932Z" fill="#6470C6"/>
<path d="M0 236.451L8.21614 158.052L28.1495 172.526L26.0955 192.125L46.0288 206.598L43.9748 226.198L63.9082 240.671L61.8541 260.271L81.7875 274.744L79.7334 294.344L0 236.451Z" fill="#9B7DDA"/>
<path d="M28.1495 172.526L73.151 152.473L71.097 172.073L26.0955 192.125L28.1495 172.526Z" fill="#9F5EC3"/>
<path d="M8.21614 158.052L53.2179 138L73.151 152.473L28.1495 172.526L8.21614 158.052Z" fill="url(#paint0_linear_250_1694)"/>
<path d="M46.0288 206.598L91.0304 186.546L88.9764 206.146L43.9748 226.198L46.0288 206.598Z" fill="#9F5EC3"/>
<path d="M26.0955 192.125L71.097 172.073L91.0304 186.546L46.0288 206.598L26.0955 192.125Z" fill="url(#paint1_linear_250_1694)"/>
<path d="M63.9082 240.671L108.91 220.619L106.856 240.218L61.8541 260.271L63.9082 240.671Z" fill="#9F5EC3"/>
<path d="M43.9748 226.198L88.9764 206.146L108.91 220.619L63.9082 240.671L43.9748 226.198Z" fill="url(#paint2_linear_250_1694)"/>
<path d="M81.7875 274.744L126.789 254.692L124.735 274.291L79.7334 294.344L81.7875 274.744Z" fill="#9F5EC3"/>
<path d="M61.8541 260.271L106.856 240.218L126.789 254.692L81.7875 274.744L61.8541 260.271Z" fill="url(#paint3_linear_250_1694)"/>
<path d="M136.029 302.852C137.25 301.538 139.445 302.149 139.812 303.905L142.146 315.087C142.24 315.535 142.47 315.943 142.806 316.255L151.175 324.029C152.489 325.25 151.878 327.445 150.122 327.812L138.94 330.146C138.492 330.24 138.084 330.47 137.773 330.806L129.998 339.175C128.777 340.489 126.582 339.878 126.215 338.122L123.881 326.94C123.787 326.492 123.557 326.084 123.222 325.773L114.852 317.998C113.538 316.777 114.149 314.582 115.905 314.215L127.087 311.881C127.535 311.787 127.943 311.557 128.255 311.222L136.029 302.852Z" fill="#FF4C24"/>
<path d="M136.029 302.852C137.25 301.538 139.445 302.149 139.812 303.905L142.146 315.087C142.24 315.535 142.47 315.943 142.806 316.255L151.175 324.029C152.489 325.25 151.878 327.445 150.122 327.812L138.94 330.146C138.492 330.24 138.084 330.47 137.773 330.806L129.998 339.175C128.777 340.489 126.582 339.878 126.215 338.122L123.881 326.94C123.787 326.492 123.557 326.084 123.222 325.773L114.852 317.998C113.538 316.777 114.149 314.582 115.905 314.215L127.087 311.881C127.535 311.787 127.943 311.557 128.255 311.222L136.029 302.852Z" fill="black" fill-opacity="0.2"/>
<path d="M330.47 112.294C330.773 110.526 332.945 109.837 334.213 111.106L342.283 119.191C342.606 119.515 343.022 119.731 343.473 119.808L354.732 121.74C356.5 122.043 357.189 124.215 355.92 125.482L347.835 133.552C347.511 133.876 347.295 134.292 347.218 134.743L345.286 146.001C344.983 147.769 342.811 148.459 341.544 147.189L333.474 139.104C333.15 138.78 332.734 138.565 332.283 138.487L321.025 136.556C319.257 136.253 318.567 134.081 319.837 132.813L327.922 124.743C328.246 124.42 328.461 124.004 328.539 123.553L330.47 112.294Z" fill="#FFBEF9"/>
<defs>
<linearGradient id="paint0_linear_250_1694" x1="126.777" y1="254.703" x2="82.7122" y2="227.033" gradientUnits="userSpaceOnUse">
<stop stop-color="#E1BBE7"/>
<stop offset="1" stop-color="#B9A4EC"/>
</linearGradient>
<linearGradient id="paint1_linear_250_1694" x1="126.777" y1="254.703" x2="82.7122" y2="227.033" gradientUnits="userSpaceOnUse">
<stop stop-color="#E1BBE7"/>
<stop offset="1" stop-color="#B9A4EC"/>
</linearGradient>
<linearGradient id="paint2_linear_250_1694" x1="126.777" y1="254.703" x2="82.7122" y2="227.033" gradientUnits="userSpaceOnUse">
<stop stop-color="#E1BBE7"/>
<stop offset="1" stop-color="#B9A4EC"/>
</linearGradient>
<linearGradient id="paint3_linear_250_1694" x1="126.777" y1="254.703" x2="82.7122" y2="227.033" gradientUnits="userSpaceOnUse">
<stop stop-color="#E1BBE7"/>
<stop offset="1" stop-color="#B9A4EC"/>
</linearGradient>
</defs>
</svg>
