<svg width="1481" height="748" viewBox="0 0 1481 748" fill="none" xmlns="http://www.w3.org/2000/svg">
<path d="M1053.22 331.398C1053.79 328.063 1057.89 326.762 1060.28 329.157L1075.51 344.411C1076.12 345.022 1076.9 345.429 1077.75 345.575L1098.99 349.219C1102.33 349.792 1103.63 353.89 1101.24 356.281L1085.98 371.506C1085.37 372.117 1084.96 372.902 1084.82 373.753L1081.17 394.995C1080.6 398.331 1076.5 399.631 1074.11 397.236L1058.89 381.982C1058.28 381.371 1057.49 380.964 1056.64 380.818L1035.4 377.174C1032.06 376.602 1030.76 372.504 1033.16 370.113L1048.41 354.887C1049.02 354.276 1049.43 353.492 1049.58 352.64L1053.22 331.398Z" fill="#FFBEF9"/>
</svg>
