<svg width="58" height="20" viewBox="0 0 58 20" fill="none" xmlns="http://www.w3.org/2000/svg">
<rect width="57.4884" height="19.8998" rx="9.94991" fill="#5452F6"/>
<path d="M9.0708 7.26749V13.4497H8.45169V7.26749H9.0708ZM15.1337 13.4497H14.5146L11.0919 8.24922V13.4497H10.4728V7.26749H11.0919L14.5146 12.4591V7.26749H15.1337V13.4497ZM19.5342 9.91196V10.4338H16.0938V9.91196H19.5342ZM22.9973 13.5116C22.5904 13.5116 22.2308 13.4409 21.9183 13.2994C21.6117 13.1578 21.3699 12.9603 21.193 12.7068C21.0162 12.4532 20.9218 12.1702 20.91 11.8577H21.5645C21.594 12.1584 21.7266 12.4238 21.9625 12.6537C22.1983 12.8778 22.5433 12.9898 22.9973 12.9898C23.4159 12.9898 23.7461 12.8837 23.9879 12.6714C24.2355 12.4532 24.3593 12.1791 24.3593 11.8489C24.3593 11.5835 24.2915 11.3713 24.1559 11.2121C24.0203 11.047 23.8522 10.9261 23.6518 10.8495C23.4513 10.7669 23.1742 10.6785 22.8204 10.5841C22.4077 10.4721 22.0804 10.363 21.8387 10.2569C21.5969 10.1508 21.3906 9.98566 21.2196 9.76161C21.0486 9.53755 20.9631 9.23389 20.9631 8.85064C20.9631 8.53224 21.0456 8.24922 21.2107 8.00158C21.3758 7.74804 21.6087 7.55051 21.9094 7.409C22.2101 7.26749 22.5551 7.19674 22.9442 7.19674C23.5162 7.19674 23.9761 7.33825 24.3239 7.62127C24.6777 7.89839 24.8811 8.25806 24.9342 8.70028H24.262C24.2208 8.44674 24.0822 8.22269 23.8463 8.02811C23.6105 7.82764 23.2921 7.7274 22.8912 7.7274C22.5197 7.7274 22.2101 7.82764 21.9625 8.02811C21.7149 8.22269 21.591 8.49096 21.591 8.83295C21.591 9.09238 21.6588 9.3017 21.7945 9.4609C21.9301 9.6201 22.0981 9.74097 22.2986 9.82352C22.505 9.90606 22.7821 9.99451 23.13 10.0888C23.5309 10.2009 23.8552 10.3129 24.1028 10.4249C24.3505 10.5311 24.5598 10.6962 24.7308 10.9202C24.9018 11.1443 24.9873 11.445 24.9873 11.8223C24.9873 12.1113 24.9106 12.3854 24.7573 12.6449C24.604 12.9043 24.377 13.1136 24.0763 13.2728C23.7756 13.432 23.4159 13.5116 22.9973 13.5116ZM29.801 7.26749V7.78047H28.0852V13.4497H27.466V7.78047H25.7414V7.26749H29.801ZM33.5557 13.5116C32.9837 13.5116 32.4649 13.379 31.9991 13.1136C31.5333 12.8424 31.1647 12.468 30.8935 11.9904C30.6282 11.5069 30.4955 10.9615 30.4955 10.3542C30.4955 9.74686 30.6282 9.20441 30.8935 8.72681C31.1647 8.24332 31.5333 7.86891 31.9991 7.60358C32.4649 7.33235 32.9837 7.19674 33.5557 7.19674C34.1335 7.19674 34.6553 7.33235 35.1211 7.60358C35.5869 7.86891 35.9525 8.24332 36.2178 8.72681C36.4832 9.20441 36.6158 9.74686 36.6158 10.3542C36.6158 10.9615 36.4832 11.5069 36.2178 11.9904C35.9525 12.468 35.5869 12.8424 35.1211 13.1136C34.6553 13.379 34.1335 13.5116 33.5557 13.5116ZM33.5557 12.9721C34.0156 12.9721 34.4283 12.866 34.7939 12.6537C35.1594 12.4414 35.4484 12.1378 35.6606 11.7427C35.8729 11.3418 35.979 10.8789 35.979 10.3542C35.979 9.82941 35.8729 9.36951 35.6606 8.97446C35.4484 8.57941 35.1594 8.27575 34.7939 8.06349C34.4283 7.85122 34.0156 7.74509 33.5557 7.74509C33.0958 7.74509 32.683 7.85122 32.3175 8.06349C31.9519 8.27575 31.663 8.57941 31.4507 8.97446C31.2384 9.36951 31.1323 9.82941 31.1323 10.3542C31.1323 10.8789 31.2384 11.3418 31.4507 11.7427C31.663 12.1378 31.9519 12.4414 32.3175 12.6537C32.683 12.866 33.0958 12.9721 33.5557 12.9721ZM37.4656 10.3542C37.4656 9.74686 37.5983 9.20441 37.8636 8.72681C38.129 8.24332 38.4916 7.86891 38.9515 7.60358C39.4114 7.33235 39.9244 7.19674 40.4904 7.19674C41.1803 7.19674 41.7699 7.36183 42.2593 7.69202C42.7546 8.01632 43.1142 8.47622 43.3383 9.07174H42.6131C42.4362 8.65311 42.1649 8.32587 41.7994 8.09002C41.4397 7.85417 41.0034 7.73625 40.4904 7.73625C40.0364 7.73625 39.6266 7.84238 39.261 8.05464C38.9014 8.26691 38.6184 8.57351 38.412 8.97446C38.2056 9.36951 38.1024 9.82941 38.1024 10.3542C38.1024 10.8789 38.2056 11.3389 38.412 11.7339C38.6184 12.1289 38.9014 12.4326 39.261 12.6449C39.6266 12.8571 40.0364 12.9633 40.4904 12.9633C41.0034 12.9633 41.4397 12.8483 41.7994 12.6183C42.1649 12.3825 42.4362 12.0582 42.6131 11.6455H43.3383C43.1142 12.2351 42.7546 12.692 42.2593 13.0163C41.764 13.3406 41.1744 13.5028 40.4904 13.5028C39.9244 13.5028 39.4114 13.3701 38.9515 13.1048C38.4916 12.8335 38.129 12.4591 37.8636 11.9815C37.5983 11.5039 37.4656 10.9615 37.4656 10.3542ZM47.8709 13.4497L45.1911 10.593V13.4497H44.572V7.26749H45.1911V10.1596L47.8709 7.26749H48.6581L45.7659 10.3542L48.6846 13.4497H47.8709Z" fill="#F0F0F0"/>
</svg>
