<svg width="909" height="1290" viewBox="0 0 909 1290" fill="none" xmlns="http://www.w3.org/2000/svg">
<path d="M523.426 662.79C452.587 641.919 378.241 682.426 357.37 753.265C336.499 824.105 377.006 898.45 447.845 919.321C377.006 898.45 302.661 938.956 281.79 1009.8C260.919 1080.64 301.426 1154.98 372.265 1175.85C443.105 1196.72 517.45 1156.22 538.321 1085.38C517.45 1156.22 557.956 1230.56 628.796 1251.43C699.636 1272.3 773.98 1231.8 794.852 1160.96C815.723 1090.12 775.216 1015.77 704.376 994.901C775.216 1015.77 849.56 975.266 870.432 904.425C891.302 833.587 850.796 759.241 779.956 738.37C709.116 717.499 634.772 758.006 613.901 828.845C634.772 758.006 594.266 683.661 523.426 662.79Z" fill="#CD6E45" fill-opacity="0.2"/>
<path d="M270.236 11.7989C276.757 11.7989 282.043 6.51619 282.043 -3.66988e-06L366 0C366 52.8544 323.125 95.7013 270.236 95.7013L95.7636 95.7013C89.2434 95.7013 83.957 100.984 83.957 107.5C83.957 114.016 89.2434 119.299 95.7636 119.299L270.236 119.299C323.125 119.299 366 162.146 366 215.001C366 267.854 323.125 310.701 270.236 310.701L95.7636 310.701C89.2434 310.701 83.957 315.985 83.957 322.5C83.957 329.015 89.2434 334.299 95.7636 334.299L270.236 334.299C323.125 334.299 366 377.146 366 429.999C366 482.855 323.125 525.702 270.236 525.702L95.7636 525.702C89.2434 525.702 83.957 530.983 83.957 537.501C83.957 544.016 89.2434 549.3 95.7636 549.3L270.236 549.3C323.125 549.3 366 592.146 366 645L282.043 645C282.043 638.485 276.757 633.201 270.236 633.201L95.7635 633.201C42.8753 633.201 1.92559e-05 590.354 2.15662e-05 537.501C2.38766e-05 484.645 42.8754 441.798 95.7636 441.798L270.236 441.798C276.757 441.798 282.043 436.517 282.043 429.999C282.043 423.484 276.757 418.2 270.236 418.2L95.7636 418.2C42.8754 418.2 2.86539e-05 375.354 3.09642e-05 322.5C3.32745e-05 269.646 42.8754 226.8 95.7636 226.8L270.236 226.8C276.757 226.8 282.043 221.516 282.043 215.001C282.043 208.483 276.757 203.202 270.236 203.202L95.7636 203.202C42.8754 203.202 3.80518e-05 160.354 4.03621e-05 107.5C4.26725e-05 54.6456 42.8754 11.7989 95.7636 11.7989L270.236 11.7989Z" fill="#2B199A" fill-opacity="0.3"/>
<path d="M270.236 655.799C276.757 655.799 282.043 650.516 282.043 644L366 644C366 696.854 323.125 739.701 270.236 739.701L95.7636 739.701C89.2434 739.701 83.957 744.984 83.957 751.5C83.957 758.016 89.2434 763.299 95.7636 763.299L270.236 763.299C323.125 763.299 366 806.146 366 859.001C366 911.854 323.125 954.701 270.236 954.701L95.7636 954.701C89.2434 954.701 83.957 959.985 83.957 966.5C83.957 973.015 89.2434 978.299 95.7636 978.299L270.236 978.299C323.125 978.299 366 1021.15 366 1074C366 1126.86 323.125 1169.7 270.236 1169.7L95.7636 1169.7C89.2434 1169.7 83.957 1174.98 83.957 1181.5C83.957 1188.02 89.2434 1193.3 95.7636 1193.3L270.236 1193.3C323.125 1193.3 366 1236.15 366 1289L282.043 1289C282.043 1282.48 276.757 1277.2 270.236 1277.2L95.7635 1277.2C42.8753 1277.2 1.92559e-05 1234.35 2.15662e-05 1181.5C2.38766e-05 1128.64 42.8754 1085.8 95.7636 1085.8L270.236 1085.8C276.757 1085.8 282.043 1080.52 282.043 1074C282.043 1067.48 276.757 1062.2 270.236 1062.2L95.7636 1062.2C42.8754 1062.2 2.86539e-05 1019.35 3.09642e-05 966.5C3.32745e-05 913.646 42.8754 870.8 95.7636 870.8L270.236 870.8C276.757 870.8 282.043 865.516 282.043 859.001C282.043 852.483 276.757 847.202 270.236 847.202L95.7636 847.202C42.8754 847.202 3.80518e-05 804.354 4.03621e-05 751.5C4.26725e-05 698.646 42.8754 655.799 95.7636 655.799L270.236 655.799Z" fill="#2B199A" fill-opacity="0.3"/>
</svg>
