<svg width="1513" height="84" viewBox="0 0 1513 84" fill="none" xmlns="http://www.w3.org/2000/svg">
<path d="M17 6.00089L0 15.2409V72.8681L8.5 83.3401H221.754L228.5 72.8681L432.878 72.8672L438.5 69.7872H916.878L922.5 72.8672H1158.82L1168.37 83.3392H1503.44L1513 72.8672V6H1172L1158.82 15.24L239.622 15.2409L225.702 6.00089H17Z" fill="#9D1C1C"/>
<path d="M17 0.000892639L0 9.24089V66.8681L8.5 77.3401H221.754L228.5 66.8681L432.878 66.8672L438.5 63.7872H916.878L922.5 66.8672H1158.82L1168.37 77.3392H1503.44L1513 66.8672V0H1172L1158.82 9.24L239.622 9.24089L225.702 0.000892639H17Z" fill="#E83A22"/>
</svg>
