<svg width="1368" height="84" viewBox="0 0 1368 84" preserveAspectRatio="none" fill="none" xmlns="http://www.w3.org/2000/svg">
<path d="M15.3708 7.00089L0 16.2003V73.574L7.68539 84H200.502L206.601 73.574L391.393 73.5732L396.476 70.5067H829.008L834.091 73.5732H1047.76L1056.4 83.9991H1359.36L1368 73.5732V7H1059.68L1047.76 16.1994L216.658 16.2003L204.072 7.00089H15.3708Z" fill="#9D1C1C"/>
<path d="M15.3708 0.000888714L0 9.20026V66.574L7.68539 77H200.502L206.601 66.574L391.393 66.5732L396.476 63.5067H829.008L834.091 66.5732H1047.76L1056.4 76.9991H1359.36L1368 66.5732V0H1059.68L1047.76 9.19937L216.658 9.20026L204.072 0.000888714H15.3708Z" fill="#E83A22"/>
</svg>
