<svg width="86" height="87" viewBox="0 0 86 87" fill="none" xmlns="http://www.w3.org/2000/svg">
<rect y="0.55957" width="86" height="86" rx="14.5763" fill="white" fill-opacity="0.26"/>
<path d="M22.1539 45.544L18.8688 40.2887H16.5074V47.8469H18.8688V42.5916L22.1539 47.8469H24.4934V40.2887H22.1347L22.1539 45.544ZM40.8151 42.8351V42.0801H39.5825V41.0626H37.284V42.0801H36.0323V42.8351H37.284V47.8469H39.5825V42.8351H40.8151ZM25.808 47.8252H28.0873V42.8135H25.808V47.8252ZM25.808 41.8366H28.1065V40.2887H25.808V41.8366ZM65.8827 42.4671C64.0351 42.4671 62.5374 43.7309 62.5374 45.2788C62.5374 46.8267 64.0351 48.0904 65.8827 48.0904C67.7302 48.0904 69.2307 46.8267 69.2307 45.2788C69.2307 43.7309 67.7302 42.4671 65.8827 42.4671ZM66.8065 46.3396C66.8065 47.1325 66.3336 47.4599 65.8827 47.4599C65.4317 47.4599 64.9371 47.1325 64.9371 46.3396V44.2207C64.9371 43.4251 65.4099 43.1003 65.8827 43.1003C66.3336 43.1003 66.8065 43.4251 66.8065 44.2207V46.3396ZM59.5393 43.0597C59.149 42.8135 58.7066 42.6598 58.2465 42.6105C56.604 42.4671 55.3304 43.9149 55.3304 45.2382C55.3304 46.9917 56.686 47.6223 56.891 47.7251C57.6699 48.0715 58.6565 48.0904 59.5174 47.5411V47.8252H61.7776V40.2887H59.5174C59.5393 40.2887 59.5393 41.8988 59.5393 43.0597ZM59.5611 45.3004V46.1961C59.5611 46.9701 59.0255 47.1731 58.6565 47.1731C58.2875 47.1731 57.7519 46.9701 57.7519 46.1961V44.4047C57.7519 43.628 58.2875 43.4251 58.6565 43.4251C59.0063 43.4251 59.5584 43.628 59.5584 44.4047L59.5611 45.3004ZM33.4441 42.5916C32.7632 42.613 32.1137 42.8806 31.6184 43.3439V42.8135H29.3391V47.8252H31.6184V44.5265C31.6184 44.0989 32.0885 43.6091 32.7062 43.6091C33.3211 43.6091 33.7529 44.0989 33.7529 44.5265V47.8252H36.0323V45.0975C36.0323 43.1193 34.3078 42.5483 33.4441 42.5916ZM52.0234 42.5916C51.3413 42.6079 50.6901 42.8763 50.1977 43.3439V42.8135H47.9183V47.8252H50.1977V44.5265C50.1977 44.0989 50.6705 43.6091 51.2855 43.6091C51.9004 43.6091 52.3322 44.0989 52.3322 44.5265V47.8252H54.6116V45.0975C54.6116 43.1193 52.887 42.5483 52.0234 42.5916ZM47.2406 45.341C47.2406 43.7931 45.721 42.4888 43.8734 42.4888C42.0068 42.4888 40.5063 43.7525 40.5063 45.3004C40.5063 46.8483 42.0068 48.1121 43.8734 48.1121C45.4149 48.1121 46.7267 47.2353 47.1176 46.0554H44.8382V46.3585C44.8382 47.2759 44.2233 47.4788 43.8953 47.4788C43.5455 47.4788 42.9305 47.2759 42.9305 46.3612V45.3194L47.2406 45.341ZM43.0945 43.5685C43.1791 43.433 43.2968 43.3208 43.4368 43.2423C43.5767 43.1637 43.7344 43.1214 43.8953 43.1193C44.2014 43.1193 44.5102 43.2627 44.6961 43.5685C44.8382 43.812 44.8382 44.1178 44.8382 44.5454H42.9305C42.9305 44.1178 42.9497 43.8337 43.0945 43.5685ZM70.1326 41.225C70.1326 40.9814 69.9477 40.8597 69.5778 40.8597H69.064V42.1424H69.3728V41.612H69.5368L69.7828 42.1424H70.1326L69.8456 41.5714C70.0287 41.5118 70.1326 41.3874 70.1326 41.225ZM69.5368 41.409H69.3728V41.041H69.5149C69.7044 41.041 69.8001 41.1023 69.8019 41.225C69.8019 41.3684 69.7226 41.409 69.5368 41.409ZM69.5559 40.3482C69.2458 40.3517 68.9496 40.4756 68.7308 40.6933C68.512 40.9109 68.3883 41.2048 68.3862 41.5118C68.3862 42.1424 68.9218 42.6728 69.5586 42.6728C69.87 42.6728 70.1685 42.5503 70.3887 42.3323C70.6088 42.1144 70.7325 41.8187 70.7325 41.5105C70.7325 41.2022 70.6088 40.9066 70.3887 40.6886C70.1685 40.4707 69.8672 40.3482 69.5559 40.3482ZM69.5559 42.4482C69.3065 42.4446 69.0683 42.3448 68.8921 42.1699C68.716 41.995 68.6158 41.7588 68.613 41.5118C68.6151 41.2639 68.7154 41.0267 68.8922 40.8511C69.069 40.6756 69.3083 40.5756 69.5586 40.5728C69.8086 40.5763 70.0471 40.6766 70.2234 40.8521C70.3996 41.0276 70.4994 41.2644 70.5015 41.5118C70.4987 41.7588 70.3986 41.995 70.2224 42.1699C70.0463 42.3448 69.8054 42.4446 69.5559 42.4482ZM66.9923 36.0509H18.5599C13.4272 36.0292 10 39.6987 10 44.0772C10 48.4558 13.4272 52.0847 18.5818 52.0847H67.0114C72.166 52.0847 75.5932 48.4585 75.5932 44.0772C75.5741 39.6987 72.125 36.0509 66.9923 36.0509ZM66.9704 50.1281H18.5818C14.4959 50.1498 12.0115 47.4193 12.0115 44.0772C12.0115 40.7352 14.5177 38.048 18.5818 38.0263H66.9704C71.0345 38.0263 73.5407 40.7352 73.5407 44.0772C73.5407 47.4193 71.0564 50.1281 66.9704 50.1281Z" fill="white"/>
</svg>
