<svg width="362" height="369" viewBox="0 0 362 369" fill="none" xmlns="http://www.w3.org/2000/svg">
<path d="M186.032 177.423L283.281 233.57L186.032 289.716L88.7833 233.57L186.032 177.423Z" fill="url(#paint0_linear_2025_20107)"/>
<path d="M97.882 97.6951L186.709 177.423L89.4599 233.57L0.633301 153.842L97.882 97.6951Z" fill="url(#paint1_linear_2025_20107)"/>
<path d="M264.522 185.845L361.771 241.992L283.727 233.57L186.478 177.423L264.522 185.845Z" fill="url(#paint2_linear_2025_20107)"/>
<path d="M186.032 289.716L283.281 233.57V312.175L186.032 368.322V289.716Z" fill="url(#paint3_linear_2025_20107)"/>
<path d="M261.347 120.594C248.534 116.819 235.087 124.146 231.312 136.959C227.537 149.772 234.863 163.219 247.676 166.994C234.863 163.219 221.416 170.546 217.641 183.359C213.866 196.172 221.193 209.619 234.006 213.394C246.819 217.169 260.266 209.843 264.041 197.029C260.266 209.843 267.593 223.29 280.406 227.065C293.219 230.84 306.666 223.513 310.441 210.7C314.217 197.887 306.89 184.44 294.077 180.665C306.89 184.44 320.337 177.113 324.112 164.3C327.887 151.487 320.56 138.04 307.747 134.264C294.934 130.489 281.487 137.816 277.712 150.629C281.487 137.816 274.16 124.369 261.347 120.594Z" fill="#A483D0"/>
<path d="M261.347 120.594C248.534 116.819 235.087 124.146 231.312 136.959C227.537 149.772 234.863 163.219 247.676 166.994C234.863 163.219 221.416 170.546 217.641 183.359C213.866 196.172 221.193 209.619 234.006 213.394C246.819 217.169 260.266 209.843 264.041 197.029C260.266 209.843 267.593 223.29 280.406 227.065C293.219 230.84 306.666 223.513 310.441 210.7C314.217 197.887 306.89 184.44 294.077 180.665C306.89 184.44 320.337 177.113 324.112 164.3C327.887 151.487 320.56 138.04 307.747 134.264C294.934 130.489 281.487 137.816 277.712 150.629C281.487 137.816 274.16 124.369 261.347 120.594Z" fill="#364BE7" fill-opacity="0.32"/>
<path fill-rule="evenodd" clip-rule="evenodd" d="M141.786 118.678C133.033 121.358 128.134 130.702 130.843 139.549C133.552 148.395 142.843 153.395 151.595 150.715L187.743 139.647C196.495 136.967 201.394 127.623 198.686 118.776C195.977 109.929 186.686 104.93 177.934 107.61L141.786 118.678ZM185.959 133.822C191.529 132.117 194.647 126.17 192.923 120.541C191.199 114.911 185.287 111.729 179.717 113.435C174.148 115.14 171.03 121.086 172.754 126.716C174.477 132.346 180.39 135.527 185.959 133.822Z" fill="#49198F"/>
<path d="M273.211 94.4569L236.523 86L205.214 134.985L221.127 138.653L197 182.737L257.937 128.404L241.583 124.635L273.211 94.4569Z" fill="#B7B5FF"/>
<path d="M272.695 92.1564L236.007 83.6995L204.699 132.685L220.611 136.353L196.484 180.437L257.422 126.104L241.067 122.334L272.695 92.1564Z" fill="#4743BC"/>
<path d="M239.111 55.8631C239.057 63.1195 244.893 69.1877 252.146 69.4168L252.479 69.4274C259.732 69.6565 265.655 63.9598 265.709 56.7034L265.802 44.2285C265.856 36.9721 260.02 30.9039 252.767 30.6748L252.434 30.6643C245.181 30.4351 239.257 36.1319 239.203 43.3883L239.111 55.8631Z" fill="#D9D9D9"/>
<path d="M284.894 49.4648C288.549 43.1962 296.665 40.9542 303.02 44.4573L303.311 44.6182C309.667 48.1212 311.855 56.0427 308.199 62.3113L301.915 73.088C298.26 79.3567 290.144 81.5986 283.789 78.0955L283.498 77.9347C277.143 74.4316 274.954 66.5101 278.61 60.2415L284.894 49.4648Z" fill="#D9D9D9"/>
<path d="M243.734 33.6652C245.8 31.9215 248.43 30.8271 251.319 30.6756C251.48 29.6464 251.7 28.6155 251.982 27.587C256.013 12.8872 271.198 4.23893 285.898 8.27054C300.598 12.3022 309.246 27.487 305.214 42.1867C304.281 45.5912 302.749 48.6711 300.763 51.3441L308.182 53.3787C309.934 50.5721 311.314 47.4668 312.234 44.112C317.329 25.5354 306.4 6.3458 287.823 1.2509C269.247 -3.84399 250.057 7.08513 244.962 25.6618C244.23 28.3315 243.829 31.0138 243.734 33.6652Z" fill="white"/>
<path d="M147.82 105.044L162.822 178.587L110.962 170.428L147.82 105.044Z" fill="#AD2E0F"/>
<path d="M147.82 105.044L162.822 178.587L110.962 170.428L147.82 105.044Z" fill="#000AFF" fill-opacity="0.2"/>
<path fill-rule="evenodd" clip-rule="evenodd" d="M191.627 206.41C192.435 203.295 194.399 200.475 197.354 198.651C203.432 194.9 211.4 196.787 215.151 202.865L235.951 236.567C239.702 242.645 237.816 250.613 231.738 254.364C225.66 258.116 217.692 256.229 213.941 250.151L206.661 238.355L162.537 250.239L162.165 264.096C161.974 271.235 156.031 276.868 148.891 276.677C141.752 276.485 136.119 270.542 136.31 263.403L137.371 223.812C137.563 216.672 143.506 211.04 150.645 211.231C154.116 211.324 157.231 212.776 159.494 215.065L191.627 206.41Z" fill="#CD6E45"/>
<path fill-rule="evenodd" clip-rule="evenodd" d="M137.764 93.0487C134.332 96.8275 129.75 99.6275 124.399 100.845C110.481 104.01 96.627 95.2694 93.455 81.3223C91.5125 72.781 94.0263 64.2679 99.4636 58.2246C83.6809 62.5056 73.957 78.5487 77.6248 94.6762C81.3882 111.224 97.8253 121.594 114.338 117.838C126.801 115.004 135.745 104.933 137.764 93.0487Z" fill="#F2C94C"/>
<path fill-rule="evenodd" clip-rule="evenodd" d="M137.764 93.0487C134.332 96.8275 129.75 99.6275 124.399 100.845C110.481 104.01 96.627 95.2694 93.455 81.3223C91.5125 72.781 94.0263 64.2679 99.4636 58.2246C83.6809 62.5056 73.957 78.5487 77.6248 94.6762C81.3882 111.224 97.8253 121.594 114.338 117.838C126.801 115.004 135.745 104.933 137.764 93.0487Z" fill="#364BE7" fill-opacity="0.28"/>
<path d="M208.944 85.5259L211.232 94.2893L217.971 88.6161L214.933 97.1225L223.55 96.7066L216.346 101.707L223.55 106.707L214.933 106.291L217.971 114.797L211.232 109.124L208.944 117.888L206.657 109.124L199.918 114.797L202.956 106.291L194.339 106.707L201.542 101.707L194.339 96.7066L202.956 97.1225L199.918 88.6161L206.657 94.2893L208.944 85.5259Z" fill="#FFE0B7"/>
<path d="M188.231 214.97L190.518 223.733L197.258 218.06L194.219 226.566L202.836 226.15L195.633 231.151L202.836 236.151L194.219 235.735L197.258 244.241L190.518 238.568L188.231 247.331L185.944 238.568L179.204 244.241L182.243 235.735L173.626 236.151L180.829 231.151L173.626 226.15L182.243 226.566L179.204 218.06L185.944 223.733L188.231 214.97Z" fill="#FFF7E1"/>
<path d="M22.5378 105.63L24.825 114.394L31.5643 108.721L28.5261 117.227L37.143 116.811L29.9398 121.811L37.143 126.811L28.5261 126.395L31.5643 134.902L24.825 129.229L22.5378 137.992L20.2504 129.229L13.5111 134.902L16.5493 126.395L7.93237 126.811L15.1357 121.811L7.93237 116.811L16.5493 117.227L13.5111 108.721L20.2504 114.394L22.5378 105.63Z" fill="#FFE0B7"/>
<path fill-rule="evenodd" clip-rule="evenodd" d="M104.115 227.23C114.829 227.23 123.514 218.545 123.514 207.832C123.514 197.118 114.829 188.433 104.115 188.433C93.4019 188.433 84.717 197.118 84.717 207.832C84.717 218.545 93.4019 227.23 104.115 227.23ZM104.115 217.531C109.472 217.531 113.814 213.188 113.814 207.832C113.814 202.475 109.472 198.132 104.115 198.132C98.7586 198.132 94.4162 202.475 94.4162 207.832C94.4162 213.188 98.7586 217.531 104.115 217.531Z" fill="#A44343"/>
<path d="M53.9567 111.295L72.2084 107L76.5032 125.252L80.7981 143.503L85.0928 161.755L66.8412 166.05L62.5464 147.798L44.2948 152.093L40 133.841L58.2516 129.546L53.9567 111.295Z" fill="#5452F6"/>
<path d="M76.5032 125.252L94.755 120.957L99.0498 139.208L80.7981 143.503L76.5032 125.252Z" fill="#5452F6"/>
<path d="M54.9567 109.295L73.2084 105L77.5032 123.252L81.7981 141.503L86.0928 159.755L67.8412 164.05L63.5464 145.798L45.2948 150.093L41 131.841L59.2516 127.546L54.9567 109.295Z" fill="#6470C6"/>
<path d="M77.5032 123.252L95.755 118.957L100.05 137.208L81.7981 141.503L77.5032 123.252Z" fill="#6470C6"/>
<path d="M128.387 230.344C129.374 229.281 131.148 229.775 131.444 231.194L133.331 240.232C133.407 240.595 133.593 240.924 133.864 241.176L140.628 247.46C141.691 248.447 141.197 250.221 139.778 250.518L130.74 252.404C130.377 252.48 130.048 252.666 129.796 252.937L123.512 259.702C122.525 260.764 120.751 260.27 120.455 258.851L118.568 249.813C118.492 249.451 118.306 249.121 118.035 248.869L111.27 242.585C110.208 241.599 110.702 239.824 112.121 239.528L121.159 237.641C121.521 237.565 121.851 237.379 122.103 237.108L128.387 230.344Z" fill="#FF4C24"/>
<path d="M128.387 230.344C129.374 229.281 131.148 229.775 131.444 231.194L133.331 240.232C133.407 240.595 133.593 240.924 133.864 241.176L140.628 247.46C141.691 248.447 141.197 250.221 139.778 250.518L130.74 252.404C130.377 252.48 130.048 252.666 129.796 252.937L123.512 259.702C122.525 260.764 120.751 260.27 120.455 258.851L118.568 249.813C118.492 249.451 118.306 249.121 118.035 248.869L111.27 242.585C110.208 241.599 110.702 239.824 112.121 239.528L121.159 237.641C121.521 237.565 121.851 237.379 122.103 237.108L128.387 230.344Z" fill="black" fill-opacity="0.2"/>
<path d="M287.272 90.763C287.517 89.334 289.273 88.7769 290.297 89.803L296.82 96.3376C297.081 96.5995 297.417 96.7737 297.782 96.8362L306.882 98.3974C308.311 98.6425 308.868 100.398 307.842 101.422L301.307 107.945C301.045 108.206 300.871 108.543 300.809 108.907L299.247 118.007C299.002 119.436 297.247 119.993 296.222 118.967L289.7 112.433C289.438 112.171 289.102 111.997 288.737 111.934L279.638 110.373C278.209 110.128 277.651 108.372 278.678 107.348L285.212 100.825C285.474 100.564 285.648 100.228 285.711 99.8629L287.272 90.763Z" fill="#FFBEF9"/>
<rect width="112.293" height="78.6052" transform="matrix(0.866025 0.5 0 1 88.7834 233.57)" fill="url(#paint4_linear_2025_20107)"/>
<defs>
<linearGradient id="paint0_linear_2025_20107" x1="47.3348" y1="97.6951" x2="289.422" y2="389.592" gradientUnits="userSpaceOnUse">
<stop stop-color="#6A52F2"/>
<stop offset="1" stop-color="#20165A"/>
</linearGradient>
<linearGradient id="paint1_linear_2025_20107" x1="361.65" y1="368.375" x2="140.03" y2="83.8903" gradientUnits="userSpaceOnUse">
<stop stop-color="#E5D5FF"/>
<stop offset="1" stop-color="#BDCBFD"/>
</linearGradient>
<linearGradient id="paint2_linear_2025_20107" x1="245.168" y1="368.528" x2="-188.35" y2="254.04" gradientUnits="userSpaceOnUse">
<stop stop-color="#E5D5FF"/>
<stop offset="1" stop-color="#BDCBFD"/>
</linearGradient>
<linearGradient id="paint3_linear_2025_20107" x1="186.032" y1="289.644" x2="276.3" y2="273.479" gradientUnits="userSpaceOnUse">
<stop stop-color="#5844D7"/>
<stop offset="1" stop-color="#6F65E1"/>
</linearGradient>
<linearGradient id="paint4_linear_2025_20107" x1="0" y1="0" x2="123.887" y2="28.895" gradientUnits="userSpaceOnUse">
<stop stop-color="#93C3FC"/>
<stop offset="1" stop-color="#9593FC"/>
</linearGradient>
</defs>
</svg>
