<svg width="86" height="87" viewBox="0 0 86 87" fill="none" xmlns="http://www.w3.org/2000/svg">
<rect y="0.779785" width="86" height="86" rx="14.5763" fill="white" fill-opacity="0.26"/>
<path d="M75.0243 57.0521C73.7707 58.5885 70.701 59.6835 70.701 59.6835L47.8686 67.6543V61.7745L64.6722 55.9542C66.5788 55.2921 66.8703 54.3527 65.3223 53.8604C63.7743 53.3652 60.9727 53.5067 59.0632 54.1745L47.8686 58.0056V51.908L48.5129 51.693C48.5129 51.693 51.7488 50.581 56.2966 50.0915C60.8474 49.6048 66.4184 50.1594 70.7913 51.7694C75.7181 53.2832 76.272 55.5157 75.0243 57.0521ZM50.0405 47.0413V32.0137C50.0405 30.2481 49.7052 28.624 47.9998 28.1656C46.6967 27.7581 45.8862 28.9352 45.8862 30.698V68.339L35.4408 65.1162V20.2373C39.8808 21.0381 46.3527 22.9338 49.8306 24.0713C58.6784 27.0225 61.6782 30.698 61.6782 38.9743C61.6782 47.0413 56.5532 50.1 50.0405 47.0441M16.273 61.1634C11.2121 59.7769 10.3696 56.8908 12.6755 55.2299C14.8066 53.6963 18.4332 52.5418 18.4332 52.5418L33.4118 47.3638V53.2662L22.6312 57.0153C20.7275 57.6774 20.436 58.6168 21.9811 59.1091C23.532 59.6043 26.3336 59.4628 28.2401 58.7979L33.4118 56.9757V62.2527L32.3798 62.4225C27.2081 63.2431 21.7012 62.9007 16.273 61.1634Z" fill="white"/>
</svg>
