<svg width="441" height="549" viewBox="0 0 441 549" fill="none" xmlns="http://www.w3.org/2000/svg">
<rect width="211.614" height="211.614" transform="matrix(0.94825 0.317525 -0.74911 0.662446 179.593 110.137)" fill="#FDBDCB"/>
<rect width="211.614" height="198.388" transform="matrix(0.94825 0.317525 0.19914 0.979971 21.0723 250.32)" fill="#FC93AA"/>
<rect width="211.614" height="198.388" transform="matrix(0.74911 -0.662446 0.19914 0.979971 221.736 317.512)" fill="#E16580"/>
<circle cx="72.4477" cy="72.4477" r="72.4477" transform="matrix(0.258732 0.965949 -0.70717 0.707043 209.241 0)" fill="#FCB193"/>
<path d="M199.726 35.5C213.39 39.1625 223.189 52.0711 227.986 69.9808L251.312 76.2332C246.515 58.3235 236.716 45.4149 223.052 41.7524L199.726 35.5Z" fill="#FDCFBD"/>
<path d="M195.498 191.185C223.793 162.895 238.338 108.63 227.986 69.9806L251.312 76.233C261.664 114.882 247.119 169.147 218.824 197.437L195.498 191.185Z" fill="#E18865"/>
<path d="M153.78 206.909C167.444 210.572 182.386 204.295 195.498 191.185L218.823 197.438C205.712 210.547 190.77 216.824 177.106 213.162L153.78 206.909Z" fill="#E18865"/>
</svg>
