<svg width="610" height="478" viewBox="0 0 610 478" fill="none" xmlns="http://www.w3.org/2000/svg">
<rect x="34.4043" y="132.03" width="77.4108" height="77.4108" rx="7.89906" fill="white"/>
<path d="M95.3852 149.408C98.3663 149.408 100.757 151.781 100.757 154.74V186.731C100.757 189.69 98.3663 192.063 95.3852 192.063H52.4143C49.4332 192.063 47.043 189.69 47.043 186.731V154.74C47.043 151.781 49.4332 149.408 52.4143 149.408H95.3852ZM64.4999 178.733V162.738H61.1428V172.069L54.4286 162.738H51.0715V178.733H54.4286V169.403L61.2771 178.733H64.4999ZM77.9283 166.097V162.738H67.1856V178.733H77.9283V175.401H71.2141V172.442H77.9283V169.083H71.2141V166.097H77.9283ZM96.7281 176.068V162.738H93.371V174.735H90.363V165.404H87.0059V174.735H83.9711V162.738H80.614V176.068C80.614 176.775 80.8969 177.453 81.4006 177.953C81.9043 178.453 82.5874 178.733 83.2997 178.733H94.0424C94.7547 178.733 95.4378 178.453 95.9414 177.953C96.4451 177.453 96.7281 176.775 96.7281 176.068Z" fill="#CD6E45"/>
<path d="M126.792 153.206C126.792 152.121 127.028 151.152 127.502 150.299C127.976 149.436 128.624 148.767 129.446 148.293C130.267 147.809 131.183 147.566 132.194 147.566C133.427 147.566 134.48 147.861 135.354 148.451C136.239 149.03 136.881 149.852 137.281 150.916H135.986C135.67 150.168 135.186 149.583 134.533 149.162C133.89 148.741 133.111 148.53 132.194 148.53C131.384 148.53 130.652 148.72 129.999 149.099C129.356 149.478 128.851 150.026 128.482 150.742C128.113 151.447 127.929 152.269 127.929 153.206C127.929 154.144 128.113 154.965 128.482 155.671C128.851 156.376 129.356 156.919 129.999 157.298C130.652 157.677 131.384 157.867 132.194 157.867C133.111 157.867 133.89 157.661 134.533 157.251C135.186 156.829 135.67 156.25 135.986 155.513H137.281C136.881 156.566 136.239 157.382 135.354 157.961C134.469 158.541 133.416 158.83 132.194 158.83C131.183 158.83 130.267 158.593 129.446 158.119C128.624 157.635 127.976 156.966 127.502 156.113C127.028 155.26 126.792 154.291 126.792 153.206ZM143.261 158.862C142.45 158.862 141.718 158.683 141.065 158.325C140.422 157.956 139.912 157.44 139.532 156.777C139.164 156.103 138.98 155.318 138.98 154.423C138.98 153.527 139.169 152.748 139.548 152.085C139.927 151.411 140.443 150.894 141.096 150.536C141.749 150.168 142.481 149.983 143.292 149.983C144.103 149.983 144.835 150.168 145.488 150.536C146.152 150.894 146.668 151.411 147.037 152.085C147.416 152.748 147.605 153.527 147.605 154.423C147.605 155.307 147.416 156.087 147.037 156.761C146.657 157.435 146.136 157.956 145.473 158.325C144.809 158.683 144.072 158.862 143.261 158.862ZM143.261 157.898C143.83 157.898 144.356 157.772 144.841 157.519C145.325 157.256 145.715 156.866 146.01 156.35C146.315 155.823 146.468 155.181 146.468 154.423C146.468 153.664 146.32 153.027 146.025 152.511C145.731 151.985 145.341 151.595 144.856 151.342C144.372 151.079 143.845 150.947 143.277 150.947C142.708 150.947 142.181 151.079 141.697 151.342C141.212 151.595 140.823 151.985 140.528 152.511C140.243 153.027 140.101 153.664 140.101 154.423C140.101 155.181 140.243 155.823 140.528 156.35C140.823 156.866 141.207 157.256 141.681 157.519C142.165 157.772 142.692 157.898 143.261 157.898ZM153.665 149.952C154.698 149.952 155.54 150.273 156.193 150.916C156.846 151.547 157.173 152.469 157.173 153.68V158.736H156.083V153.807C156.083 152.869 155.846 152.153 155.372 151.658C154.908 151.163 154.271 150.916 153.46 150.916C152.628 150.916 151.965 151.179 151.47 151.705C150.975 152.232 150.727 153.006 150.727 154.028V158.736H149.621V150.11H150.727V151.579C151.001 151.052 151.396 150.652 151.912 150.378C152.428 150.094 153.012 149.952 153.665 149.952ZM159.113 154.407C159.113 153.522 159.292 152.748 159.65 152.085C160.008 151.411 160.498 150.894 161.119 150.536C161.751 150.168 162.462 149.983 163.252 149.983C164.01 149.983 164.695 150.168 165.306 150.536C165.917 150.905 166.364 151.384 166.649 151.974V147.045H167.754V158.736H166.649V156.808C166.385 157.409 165.953 157.904 165.353 158.293C164.753 158.672 164.047 158.862 163.236 158.862C162.446 158.862 161.735 158.678 161.103 158.309C160.482 157.94 159.992 157.419 159.634 156.745C159.287 156.071 159.113 155.292 159.113 154.407ZM166.649 154.423C166.649 153.728 166.506 153.117 166.222 152.59C165.938 152.064 165.548 151.658 165.053 151.374C164.568 151.089 164.031 150.947 163.442 150.947C162.831 150.947 162.283 151.084 161.799 151.358C161.314 151.632 160.93 152.032 160.645 152.559C160.371 153.075 160.235 153.691 160.235 154.407C160.235 155.113 160.371 155.734 160.645 156.271C160.93 156.798 161.314 157.203 161.799 157.488C162.283 157.761 162.831 157.898 163.442 157.898C164.031 157.898 164.568 157.756 165.053 157.472C165.548 157.187 165.938 156.782 166.222 156.255C166.506 155.729 166.649 155.118 166.649 154.423ZM170.832 148.483C170.611 148.483 170.421 148.404 170.263 148.246C170.105 148.088 170.026 147.893 170.026 147.661C170.026 147.429 170.105 147.24 170.263 147.092C170.421 146.934 170.611 146.855 170.832 146.855C171.053 146.855 171.243 146.934 171.401 147.092C171.559 147.24 171.638 147.429 171.638 147.661C171.638 147.893 171.559 148.088 171.401 148.246C171.243 148.404 171.053 148.483 170.832 148.483ZM171.385 150.11V158.736H170.279V150.11H171.385ZM175.327 151.042V156.397C175.327 156.924 175.427 157.287 175.627 157.488C175.827 157.688 176.18 157.788 176.685 157.788H177.697V158.736H176.512C175.732 158.736 175.153 158.557 174.774 158.198C174.395 157.83 174.205 157.23 174.205 156.397V151.042H173.004V150.11H174.205V147.945H175.327V150.11H177.697V151.042H175.327ZM180.073 148.483C179.852 148.483 179.663 148.404 179.505 148.246C179.347 148.088 179.268 147.893 179.268 147.661C179.268 147.429 179.347 147.24 179.505 147.092C179.663 146.934 179.852 146.855 180.073 146.855C180.294 146.855 180.484 146.934 180.642 147.092C180.8 147.24 180.879 147.429 180.879 147.661C180.879 147.893 180.8 148.088 180.642 148.246C180.484 148.404 180.294 148.483 180.073 148.483ZM180.626 150.11V158.736H179.52V150.11H180.626ZM186.906 158.862C186.095 158.862 185.363 158.683 184.71 158.325C184.068 157.956 183.557 157.44 183.178 156.777C182.809 156.103 182.625 155.318 182.625 154.423C182.625 153.527 182.814 152.748 183.194 152.085C183.573 151.411 184.089 150.894 184.742 150.536C185.395 150.168 186.127 149.983 186.938 149.983C187.749 149.983 188.481 150.168 189.134 150.536C189.797 150.894 190.313 151.411 190.682 152.085C191.061 152.748 191.251 153.527 191.251 154.423C191.251 155.307 191.061 156.087 190.682 156.761C190.303 157.435 189.781 157.956 189.118 158.325C188.454 158.683 187.717 158.862 186.906 158.862ZM186.906 157.898C187.475 157.898 188.002 157.772 188.486 157.519C188.97 157.256 189.36 156.866 189.655 156.35C189.961 155.823 190.113 155.181 190.113 154.423C190.113 153.664 189.966 153.027 189.671 152.511C189.376 151.985 188.986 151.595 188.502 151.342C188.017 151.079 187.491 150.947 186.922 150.947C186.353 150.947 185.827 151.079 185.342 151.342C184.858 151.595 184.468 151.985 184.173 152.511C183.889 153.027 183.747 153.664 183.747 154.423C183.747 155.181 183.889 155.823 184.173 156.35C184.468 156.866 184.852 157.256 185.326 157.519C185.811 157.772 186.337 157.898 186.906 157.898ZM197.311 149.952C198.343 149.952 199.186 150.273 199.839 150.916C200.492 151.547 200.818 152.469 200.818 153.68V158.736H199.728V153.807C199.728 152.869 199.491 152.153 199.017 151.658C198.554 151.163 197.916 150.916 197.105 150.916C196.273 150.916 195.61 151.179 195.115 151.705C194.62 152.232 194.372 153.006 194.372 154.028V158.736H193.267V150.11H194.372V151.579C194.646 151.052 195.041 150.652 195.557 150.378C196.073 150.094 196.658 149.952 197.311 149.952Z" fill="#833016"/>
<path d="M142.384 190.736H138.332L131.555 180.475V190.736H127.502V174.1H131.555L138.332 184.408V174.1H142.384V190.736ZM157.786 183.911C157.786 184.29 157.763 184.685 157.715 185.096H148.544C148.608 185.917 148.868 186.549 149.326 186.991C149.8 187.418 150.377 187.631 151.056 187.631C152.067 187.631 152.77 187.205 153.165 186.352H157.478C157.257 187.221 156.854 188.003 156.27 188.698C155.701 189.393 154.982 189.938 154.113 190.333C153.244 190.728 152.273 190.925 151.198 190.925C149.903 190.925 148.75 190.649 147.739 190.096C146.728 189.543 145.938 188.753 145.369 187.726C144.8 186.699 144.516 185.499 144.516 184.124C144.516 182.75 144.792 181.549 145.345 180.522C145.914 179.495 146.704 178.705 147.715 178.152C148.726 177.599 149.887 177.323 151.198 177.323C152.478 177.323 153.616 177.592 154.611 178.129C155.606 178.666 156.38 179.432 156.933 180.427C157.502 181.423 157.786 182.584 157.786 183.911ZM153.639 182.844C153.639 182.149 153.402 181.596 152.928 181.186C152.454 180.775 151.862 180.57 151.151 180.57C150.472 180.57 149.895 180.767 149.421 181.162C148.963 181.557 148.679 182.118 148.568 182.844H153.639ZM178.906 177.513L175.327 190.736H170.848L168.763 182.157L166.607 190.736H162.152L158.55 177.513H162.602L164.474 186.968L166.701 177.513H170.991L173.242 186.92L175.09 177.513H178.906Z" fill="#833016"/>
<rect x="320.35" y="132.03" width="77.4108" height="77.4108" rx="7.89906" fill="white"/>
<path fill-rule="evenodd" clip-rule="evenodd" d="M370.383 153.719C371.43 151.876 373.162 150.419 375.353 149.766C379.861 148.421 384.604 150.985 385.949 155.493L393.404 180.486C394.748 184.993 392.184 189.737 387.677 191.082C383.17 192.426 378.426 189.862 377.081 185.355L374.472 176.607H344.379L341.77 185.355C340.425 189.862 335.682 192.426 331.174 191.082C326.667 189.737 324.103 184.994 325.447 180.486L332.902 155.493C334.247 150.986 338.99 148.422 343.498 149.766C345.689 150.419 347.421 151.876 348.467 153.719H370.383Z" fill="#CD6E45"/>
<path d="M420.304 150.868C420.304 151.816 419.993 152.58 419.372 153.159C418.751 153.738 417.819 154.028 416.576 154.028H414.348V158.736H413.242V147.693H416.576C417.808 147.693 418.735 147.982 419.356 148.562C419.988 149.141 420.304 149.91 420.304 150.868ZM416.576 153.08C418.303 153.08 419.167 152.343 419.167 150.868C419.167 150.131 418.961 149.573 418.551 149.194C418.14 148.814 417.482 148.625 416.576 148.625H414.348V153.08H416.576ZM423.266 151.642C423.508 151.105 423.876 150.689 424.371 150.394C424.877 150.099 425.493 149.952 426.22 149.952V151.105H425.92C425.119 151.105 424.477 151.321 423.992 151.753C423.508 152.185 423.266 152.906 423.266 153.917V158.736H422.16V150.11H423.266V151.642ZM431.659 158.862C430.848 158.862 430.116 158.683 429.463 158.325C428.821 157.956 428.31 157.44 427.931 156.777C427.562 156.103 427.378 155.318 427.378 154.423C427.378 153.527 427.567 152.748 427.947 152.085C428.326 151.411 428.842 150.894 429.495 150.536C430.148 150.168 430.88 149.983 431.691 149.983C432.502 149.983 433.234 150.168 433.887 150.536C434.55 150.894 435.066 151.411 435.435 152.085C435.814 152.748 436.004 153.527 436.004 154.423C436.004 155.307 435.814 156.087 435.435 156.761C435.056 157.435 434.534 157.956 433.871 158.325C433.207 158.683 432.47 158.862 431.659 158.862ZM431.659 157.898C432.228 157.898 432.754 157.772 433.239 157.519C433.723 157.256 434.113 156.866 434.408 156.35C434.713 155.823 434.866 155.181 434.866 154.423C434.866 153.664 434.719 153.027 434.424 152.511C434.129 151.985 433.739 151.595 433.255 151.342C432.77 151.079 432.244 150.947 431.675 150.947C431.106 150.947 430.58 151.079 430.095 151.342C429.611 151.595 429.221 151.985 428.926 152.511C428.642 153.027 428.5 153.664 428.5 154.423C428.5 155.181 428.642 155.823 428.926 156.35C429.221 156.866 429.605 157.256 430.079 157.519C430.564 157.772 431.09 157.898 431.659 157.898ZM437.514 154.407C437.514 153.522 437.693 152.748 438.051 152.085C438.409 151.411 438.899 150.894 439.52 150.536C440.152 150.168 440.863 149.983 441.653 149.983C442.411 149.983 443.096 150.168 443.707 150.536C444.318 150.905 444.765 151.384 445.05 151.974V147.045H446.156V158.736H445.05V156.808C444.786 157.409 444.355 157.904 443.754 158.293C443.154 158.672 442.448 158.862 441.637 158.862C440.847 158.862 440.136 158.678 439.505 158.309C438.883 157.94 438.393 157.419 438.035 156.745C437.688 156.071 437.514 155.292 437.514 154.407ZM445.05 154.423C445.05 153.728 444.907 153.117 444.623 152.59C444.339 152.064 443.949 151.658 443.454 151.374C442.97 151.089 442.432 150.947 441.843 150.947C441.232 150.947 440.684 151.084 440.2 151.358C439.715 151.632 439.331 152.032 439.046 152.559C438.773 153.075 438.636 153.691 438.636 154.407C438.636 155.113 438.773 155.734 439.046 156.271C439.331 156.798 439.715 157.203 440.2 157.488C440.684 157.761 441.232 157.898 441.843 157.898C442.432 157.898 442.97 157.756 443.454 157.472C443.949 157.187 444.339 156.782 444.623 156.255C444.907 155.729 445.05 155.118 445.05 154.423ZM456.153 150.11V158.736H455.047V157.219C454.794 157.756 454.404 158.167 453.878 158.451C453.351 158.736 452.761 158.878 452.108 158.878C451.076 158.878 450.234 158.562 449.581 157.93C448.928 157.287 448.601 156.361 448.601 155.149V150.11H449.691V155.023C449.691 155.96 449.923 156.677 450.386 157.172C450.86 157.667 451.503 157.914 452.314 157.914C453.146 157.914 453.809 157.651 454.304 157.124C454.799 156.598 455.047 155.823 455.047 154.802V150.11H456.153ZM458.172 154.423C458.172 153.527 458.351 152.748 458.709 152.085C459.067 151.411 459.562 150.894 460.194 150.536C460.826 150.168 461.547 149.983 462.358 149.983C463.422 149.983 464.296 150.247 464.981 150.773C465.676 151.3 466.124 152.016 466.324 152.922H465.139C464.991 152.3 464.67 151.816 464.175 151.468C463.691 151.11 463.085 150.931 462.358 150.931C461.779 150.931 461.258 151.063 460.794 151.326C460.331 151.59 459.962 151.985 459.688 152.511C459.425 153.027 459.294 153.664 459.294 154.423C459.294 155.181 459.425 155.823 459.688 156.35C459.962 156.877 460.331 157.272 460.794 157.535C461.258 157.798 461.779 157.93 462.358 157.93C463.085 157.93 463.691 157.756 464.175 157.409C464.67 157.05 464.991 156.555 465.139 155.924H466.324C466.124 156.808 465.676 157.519 464.981 158.056C464.286 158.593 463.412 158.862 462.358 158.862C461.547 158.862 460.826 158.683 460.194 158.325C459.562 157.956 459.067 157.44 458.709 156.777C458.351 156.103 458.172 155.318 458.172 154.423ZM469.804 151.042V156.397C469.804 156.924 469.904 157.287 470.104 157.488C470.304 157.688 470.657 157.788 471.162 157.788H472.173V158.736H470.989C470.209 158.736 469.63 158.557 469.251 158.198C468.872 157.83 468.682 157.23 468.682 156.397V151.042H467.481V150.11H468.682V147.945H469.804V150.11H472.173V151.042H469.804ZM484.794 147.693V148.609H481.729V158.736H480.623V148.609H477.543V147.693H484.794ZM493.649 150.11L488.531 162.796H487.377L489.052 158.688L485.513 150.11H486.73L489.668 157.472L492.512 150.11H493.649ZM496.239 152.006C496.513 151.426 496.945 150.947 497.534 150.568C498.135 150.178 498.846 149.983 499.667 149.983C500.446 149.983 501.147 150.168 501.768 150.536C502.4 150.894 502.89 151.411 503.237 152.085C503.596 152.748 503.775 153.522 503.775 154.407C503.775 155.292 503.596 156.071 503.237 156.745C502.89 157.419 502.4 157.94 501.768 158.309C501.147 158.678 500.446 158.862 499.667 158.862C498.856 158.862 498.15 158.672 497.55 158.293C496.95 157.904 496.513 157.419 496.239 156.84V162.812H495.149V150.11H496.239V152.006ZM502.653 154.407C502.653 153.691 502.511 153.075 502.226 152.559C501.953 152.032 501.573 151.632 501.089 151.358C500.604 151.084 500.057 150.947 499.446 150.947C498.856 150.947 498.314 151.089 497.819 151.374C497.334 151.658 496.95 152.064 496.665 152.59C496.381 153.117 496.239 153.728 496.239 154.423C496.239 155.118 496.381 155.729 496.665 156.255C496.95 156.782 497.334 157.187 497.819 157.472C498.314 157.756 498.856 157.898 499.446 157.898C500.057 157.898 500.604 157.761 501.089 157.488C501.573 157.203 501.953 156.798 502.226 156.271C502.511 155.734 502.653 155.113 502.653 154.407ZM513.614 153.98C513.614 154.36 513.603 154.649 513.582 154.849H506.426C506.457 155.502 506.615 156.06 506.9 156.524C507.184 156.987 507.558 157.34 508.021 157.582C508.485 157.814 508.99 157.93 509.538 157.93C510.254 157.93 510.854 157.756 511.339 157.409C511.834 157.061 512.16 156.592 512.318 156.003H513.487C513.277 156.845 512.824 157.535 512.129 158.072C511.444 158.599 510.581 158.862 509.538 158.862C508.727 158.862 508 158.683 507.358 158.325C506.715 157.956 506.21 157.44 505.841 156.777C505.483 156.103 505.304 155.318 505.304 154.423C505.304 153.527 505.483 152.743 505.841 152.069C506.199 151.395 506.699 150.879 507.342 150.521C507.984 150.162 508.716 149.983 509.538 149.983C510.359 149.983 511.076 150.162 511.686 150.521C512.308 150.879 512.782 151.363 513.108 151.974C513.445 152.574 513.614 153.243 513.614 153.98ZM512.492 153.949C512.503 153.306 512.371 152.759 512.097 152.306C511.834 151.853 511.47 151.511 511.007 151.279C510.544 151.047 510.038 150.931 509.49 150.931C508.669 150.931 507.969 151.195 507.389 151.721C506.81 152.248 506.489 152.99 506.426 153.949H512.492Z" fill="#833016"/>
<path d="M429.064 174.1L423.164 190.736H418.092L412.192 174.1H416.505L420.628 186.66L424.775 174.1H429.064ZM432.796 176.138C432.085 176.138 431.5 175.933 431.042 175.522C430.6 175.095 430.379 174.574 430.379 173.958C430.379 173.326 430.6 172.805 431.042 172.394C431.5 171.967 432.085 171.754 432.796 171.754C433.491 171.754 434.06 171.967 434.502 172.394C434.96 172.805 435.189 173.326 435.189 173.958C435.189 174.574 434.96 175.095 434.502 175.522C434.06 175.933 433.491 176.138 432.796 176.138ZM434.81 177.513V190.736H430.758V177.513H434.81ZM436.941 184.1C436.941 182.742 437.194 181.549 437.699 180.522C438.221 179.495 438.924 178.705 439.808 178.152C440.693 177.599 441.68 177.323 442.77 177.323C443.639 177.323 444.429 177.505 445.14 177.868C445.867 178.231 446.436 178.721 446.846 179.337V173.2H450.899V190.736H446.846V188.84C446.467 189.472 445.922 189.977 445.211 190.356C444.516 190.736 443.703 190.925 442.77 190.925C441.68 190.925 440.693 190.649 439.808 190.096C438.924 189.527 438.221 188.729 437.699 187.702C437.194 186.66 436.941 185.459 436.941 184.1ZM446.846 184.124C446.846 183.113 446.562 182.315 445.993 181.731C445.44 181.146 444.761 180.854 443.955 180.854C443.15 180.854 442.462 181.146 441.894 181.731C441.341 182.299 441.064 183.089 441.064 184.1C441.064 185.111 441.341 185.917 441.894 186.517C442.462 187.102 443.15 187.394 443.955 187.394C444.761 187.394 445.44 187.102 445.993 186.517C446.562 185.933 446.846 185.135 446.846 184.124ZM466.295 183.911C466.295 184.29 466.271 184.685 466.224 185.096H457.053C457.116 185.917 457.377 186.549 457.835 186.991C458.309 187.418 458.886 187.631 459.565 187.631C460.576 187.631 461.279 187.205 461.674 186.352H465.987C465.766 187.221 465.363 188.003 464.778 188.698C464.21 189.393 463.491 189.938 462.622 190.333C461.753 190.728 460.781 190.925 459.707 190.925C458.412 190.925 457.258 190.649 456.247 190.096C455.236 189.543 454.446 188.753 453.878 187.726C453.309 186.699 453.024 185.499 453.024 184.124C453.024 182.75 453.301 181.549 453.854 180.522C454.423 179.495 455.212 178.705 456.224 178.152C457.235 177.599 458.396 177.323 459.707 177.323C460.987 177.323 462.124 177.592 463.119 178.129C464.115 178.666 464.889 179.432 465.442 180.427C466.01 181.423 466.295 182.584 466.295 183.911ZM462.148 182.844C462.148 182.149 461.911 181.596 461.437 181.186C460.963 180.775 460.371 180.57 459.66 180.57C458.98 180.57 458.404 180.767 457.93 181.162C457.472 181.557 457.187 182.118 457.077 182.844H462.148ZM474.452 190.925C473.156 190.925 471.987 190.649 470.945 190.096C469.918 189.543 469.104 188.753 468.504 187.726C467.919 186.699 467.627 185.499 467.627 184.124C467.627 182.765 467.927 181.573 468.527 180.546C469.128 179.503 469.949 178.705 470.992 178.152C472.035 177.599 473.204 177.323 474.499 177.323C475.795 177.323 476.964 177.599 478.006 178.152C479.049 178.705 479.87 179.503 480.471 180.546C481.071 181.573 481.371 182.765 481.371 184.124C481.371 185.483 481.063 186.683 480.447 187.726C479.847 188.753 479.017 189.543 477.959 190.096C476.916 190.649 475.747 190.925 474.452 190.925ZM474.452 187.418C475.226 187.418 475.881 187.134 476.419 186.565C476.971 185.996 477.248 185.183 477.248 184.124C477.248 183.066 476.979 182.252 476.442 181.683C475.921 181.115 475.273 180.83 474.499 180.83C473.709 180.83 473.054 181.115 472.532 181.683C472.011 182.236 471.75 183.05 471.75 184.124C471.75 185.183 472.003 185.996 472.509 186.565C473.03 187.134 473.678 187.418 474.452 187.418ZM488.545 177.323C489.477 177.323 490.291 177.513 490.986 177.892C491.697 178.271 492.242 178.769 492.621 179.385V177.513H496.673V190.712C496.673 191.928 496.428 193.026 495.938 194.006C495.464 195.001 494.73 195.791 493.735 196.376C492.755 196.96 491.531 197.252 490.061 197.252C488.102 197.252 486.515 196.786 485.298 195.854C484.082 194.938 483.387 193.69 483.213 192.11H487.218C487.344 192.616 487.644 193.011 488.118 193.295C488.592 193.595 489.177 193.745 489.872 193.745C490.709 193.745 491.373 193.5 491.862 193.011C492.368 192.537 492.621 191.77 492.621 190.712V188.84C492.226 189.456 491.681 189.961 490.986 190.356C490.291 190.736 489.477 190.925 488.545 190.925C487.455 190.925 486.467 190.649 485.583 190.096C484.698 189.527 483.995 188.729 483.474 187.702C482.968 186.66 482.715 185.459 482.715 184.1C482.715 182.742 482.968 181.549 483.474 180.522C483.995 179.495 484.698 178.705 485.583 178.152C486.467 177.599 487.455 177.323 488.545 177.323ZM492.621 184.124C492.621 183.113 492.336 182.315 491.768 181.731C491.215 181.146 490.535 180.854 489.73 180.854C488.924 180.854 488.237 181.146 487.668 181.731C487.115 182.299 486.839 183.089 486.839 184.1C486.839 185.111 487.115 185.917 487.668 186.517C488.237 187.102 488.924 187.394 489.73 187.394C490.535 187.394 491.215 187.102 491.768 186.517C492.336 185.933 492.621 185.135 492.621 184.124ZM498.799 184.1C498.799 182.742 499.052 181.549 499.557 180.522C500.079 179.495 500.782 178.705 501.666 178.152C502.551 177.599 503.538 177.323 504.628 177.323C505.56 177.323 506.374 177.513 507.069 177.892C507.78 178.271 508.325 178.769 508.704 179.385V177.513H512.757V190.736H508.704V188.864C508.309 189.48 507.756 189.977 507.046 190.356C506.35 190.736 505.537 190.925 504.605 190.925C503.53 190.925 502.551 190.649 501.666 190.096C500.782 189.527 500.079 188.729 499.557 187.702C499.052 186.66 498.799 185.459 498.799 184.1ZM508.704 184.124C508.704 183.113 508.42 182.315 507.851 181.731C507.298 181.146 506.619 180.854 505.813 180.854C505.008 180.854 504.32 181.146 503.752 181.731C503.199 182.299 502.922 183.089 502.922 184.1C502.922 185.111 503.199 185.917 503.752 186.517C504.32 187.102 505.008 187.394 505.813 187.394C506.619 187.394 507.298 187.102 507.851 186.517C508.42 185.933 508.704 185.135 508.704 184.124ZM532.561 177.37C534.204 177.37 535.507 177.868 536.471 178.863C537.45 179.859 537.94 181.241 537.94 183.01V190.736H533.911V183.555C533.911 182.702 533.682 182.047 533.224 181.588C532.782 181.115 532.166 180.878 531.376 180.878C530.586 180.878 529.962 181.115 529.504 181.588C529.061 182.047 528.84 182.702 528.84 183.555V190.736H524.812V183.555C524.812 182.702 524.582 182.047 524.124 181.588C523.682 181.115 523.066 180.878 522.276 180.878C521.486 180.878 520.862 181.115 520.404 181.588C519.962 182.047 519.74 182.702 519.74 183.555V190.736H515.688V177.513H519.74V179.171C520.151 178.618 520.688 178.184 521.352 177.868C522.015 177.536 522.766 177.37 523.603 177.37C524.598 177.37 525.483 177.584 526.257 178.01C527.047 178.437 527.663 179.045 528.105 179.835C528.564 179.108 529.188 178.516 529.978 178.058C530.767 177.599 531.628 177.37 532.561 177.37ZM553.239 183.911C553.239 184.29 553.215 184.685 553.167 185.096H543.997C544.06 185.917 544.32 186.549 544.779 186.991C545.253 187.418 545.829 187.631 546.509 187.631C547.52 187.631 548.223 187.205 548.618 186.352H552.93C552.709 187.221 552.306 188.003 551.722 188.698C551.153 189.393 550.434 189.938 549.565 190.333C548.697 190.728 547.725 190.925 546.651 190.925C545.355 190.925 544.202 190.649 543.191 190.096C542.18 189.543 541.39 188.753 540.821 187.726C540.252 186.699 539.968 185.499 539.968 184.124C539.968 182.75 540.245 181.549 540.798 180.522C541.366 179.495 542.156 178.705 543.167 178.152C544.178 177.599 545.339 177.323 546.651 177.323C547.93 177.323 549.068 177.592 550.063 178.129C551.058 178.666 551.832 179.432 552.385 180.427C552.954 181.423 553.239 182.584 553.239 183.911ZM549.092 182.844C549.092 182.149 548.855 181.596 548.381 181.186C547.907 180.775 547.314 180.57 546.603 180.57C545.924 180.57 545.347 180.767 544.873 181.162C544.415 181.557 544.131 182.118 544.02 182.844H549.092Z" fill="#833016"/>
<rect x="34.4043" y="229.441" width="77.4108" height="77.4108" rx="7.89906" fill="white"/>
<path d="M79.9879 249.979H54.9414V285.044H90.0064V273.356" stroke="#CD6E45" stroke-width="3.94953" stroke-linecap="round" stroke-linejoin="round"/>
<path d="M64.9609 266.677L73.3098 275.026L93.3469 253.319" stroke="#CD6E45" stroke-width="3.94953" stroke-linecap="round" stroke-linejoin="round"/>
<path d="M130.646 256.257C129.92 256.257 129.277 256.131 128.719 255.878C128.171 255.625 127.739 255.272 127.423 254.819C127.107 254.367 126.939 253.861 126.918 253.303H128.087C128.14 253.84 128.377 254.314 128.798 254.725C129.219 255.125 129.835 255.325 130.646 255.325C131.394 255.325 131.984 255.135 132.416 254.756C132.858 254.367 133.079 253.877 133.079 253.287C133.079 252.813 132.958 252.434 132.716 252.15C132.474 251.855 132.173 251.639 131.815 251.502C131.457 251.354 130.962 251.196 130.33 251.028C129.593 250.828 129.009 250.633 128.577 250.443C128.145 250.254 127.776 249.959 127.471 249.559C127.165 249.158 127.013 248.616 127.013 247.931C127.013 247.363 127.16 246.857 127.455 246.415C127.75 245.962 128.166 245.609 128.703 245.356C129.24 245.104 129.856 244.977 130.551 244.977C131.573 244.977 132.395 245.23 133.016 245.736C133.648 246.231 134.011 246.873 134.106 247.663H132.905C132.832 247.21 132.584 246.81 132.163 246.462C131.742 246.104 131.173 245.925 130.457 245.925C129.793 245.925 129.24 246.104 128.798 246.462C128.356 246.81 128.134 247.289 128.134 247.9C128.134 248.363 128.255 248.737 128.498 249.022C128.74 249.306 129.04 249.522 129.398 249.669C129.767 249.817 130.262 249.975 130.883 250.143C131.599 250.343 132.179 250.543 132.621 250.744C133.063 250.933 133.437 251.228 133.743 251.628C134.048 252.028 134.201 252.566 134.201 253.24C134.201 253.756 134.064 254.245 133.79 254.709C133.516 255.172 133.111 255.546 132.574 255.831C132.036 256.115 131.394 256.257 130.646 256.257ZM137.775 248.453V253.808C137.775 254.335 137.875 254.698 138.076 254.898C138.276 255.099 138.629 255.199 139.134 255.199H140.145V256.146H138.96C138.181 256.146 137.602 255.967 137.222 255.609C136.843 255.241 136.654 254.64 136.654 253.808V248.453H135.453V247.521H136.654V245.356H137.775V247.521H140.145V248.453H137.775ZM145.745 256.273C144.934 256.273 144.202 256.094 143.549 255.736C142.906 255.367 142.395 254.851 142.016 254.188C141.648 253.513 141.463 252.729 141.463 251.834C141.463 250.938 141.653 250.159 142.032 249.495C142.411 248.821 142.927 248.305 143.58 247.947C144.233 247.579 144.965 247.394 145.776 247.394C146.587 247.394 147.319 247.579 147.972 247.947C148.636 248.305 149.152 248.821 149.52 249.495C149.9 250.159 150.089 250.938 150.089 251.834C150.089 252.718 149.9 253.498 149.52 254.172C149.141 254.846 148.62 255.367 147.956 255.736C147.293 256.094 146.556 256.273 145.745 256.273ZM145.745 255.309C146.313 255.309 146.84 255.183 147.325 254.93C147.809 254.667 148.199 254.277 148.494 253.761C148.799 253.234 148.952 252.592 148.952 251.834C148.952 251.075 148.804 250.438 148.509 249.922C148.214 249.395 147.825 249.006 147.34 248.753C146.856 248.49 146.329 248.358 145.76 248.358C145.192 248.358 144.665 248.49 144.181 248.753C143.696 249.006 143.307 249.395 143.012 249.922C142.727 250.438 142.585 251.075 142.585 251.834C142.585 252.592 142.727 253.234 143.012 253.761C143.307 254.277 143.691 254.667 144.165 254.93C144.649 255.183 145.176 255.309 145.745 255.309ZM151.6 251.834C151.6 250.938 151.779 250.159 152.137 249.495C152.495 248.821 152.99 248.305 153.622 247.947C154.254 247.579 154.975 247.394 155.786 247.394C156.85 247.394 157.724 247.658 158.408 248.184C159.104 248.711 159.551 249.427 159.751 250.333H158.566C158.419 249.711 158.098 249.227 157.603 248.879C157.118 248.521 156.513 248.342 155.786 248.342C155.207 248.342 154.685 248.474 154.222 248.737C153.759 249 153.39 249.395 153.116 249.922C152.853 250.438 152.721 251.075 152.721 251.834C152.721 252.592 152.853 253.234 153.116 253.761C153.39 254.288 153.759 254.683 154.222 254.946C154.685 255.209 155.207 255.341 155.786 255.341C156.513 255.341 157.118 255.167 157.603 254.819C158.098 254.461 158.419 253.966 158.566 253.334H159.751C159.551 254.219 159.104 254.93 158.408 255.467C157.713 256.004 156.839 256.273 155.786 256.273C154.975 256.273 154.254 256.094 153.622 255.736C152.99 255.367 152.495 254.851 152.137 254.188C151.779 253.513 151.6 252.729 151.6 251.834ZM166.454 256.146L162.9 252.276V256.146H161.794V244.456H162.9V251.375L166.375 247.521H167.923L163.832 251.818L167.955 256.146H166.454ZM177.069 256.257C176.342 256.257 175.699 256.131 175.141 255.878C174.594 255.625 174.162 255.272 173.846 254.819C173.53 254.367 173.361 253.861 173.34 253.303H174.509C174.562 253.84 174.799 254.314 175.22 254.725C175.642 255.125 176.258 255.325 177.069 255.325C177.816 255.325 178.406 255.135 178.838 254.756C179.28 254.367 179.502 253.877 179.502 253.287C179.502 252.813 179.38 252.434 179.138 252.15C178.896 251.855 178.596 251.639 178.238 251.502C177.88 251.354 177.385 251.196 176.753 251.028C176.015 250.828 175.431 250.633 174.999 250.443C174.567 250.254 174.199 249.959 173.893 249.559C173.588 249.158 173.435 248.616 173.435 247.931C173.435 247.363 173.583 246.857 173.877 246.415C174.172 245.962 174.588 245.609 175.125 245.356C175.663 245.104 176.279 244.977 176.974 244.977C177.995 244.977 178.817 245.23 179.438 245.736C180.07 246.231 180.434 246.873 180.528 247.663H179.328C179.254 247.21 179.007 246.81 178.585 246.462C178.164 246.104 177.595 245.925 176.879 245.925C176.216 245.925 175.663 246.104 175.22 246.462C174.778 246.81 174.557 247.289 174.557 247.9C174.557 248.363 174.678 248.737 174.92 249.022C175.162 249.306 175.463 249.522 175.821 249.669C176.189 249.817 176.684 249.975 177.306 250.143C178.022 250.343 178.601 250.543 179.043 250.744C179.486 250.933 179.86 251.228 180.165 251.628C180.471 252.028 180.623 252.566 180.623 253.24C180.623 253.756 180.486 254.245 180.212 254.709C179.939 255.172 179.533 255.546 178.996 255.831C178.459 256.115 177.816 256.257 177.069 256.257ZM184.198 248.453V253.808C184.198 254.335 184.298 254.698 184.498 254.898C184.698 255.099 185.051 255.199 185.556 255.199H186.568V256.146H185.383C184.603 256.146 184.024 255.967 183.645 255.609C183.266 255.241 183.076 254.64 183.076 253.808V248.453H181.875V247.521H183.076V245.356H184.198V247.521H186.568V248.453H184.198ZM187.886 251.818C187.886 250.933 188.06 250.159 188.407 249.495C188.765 248.821 189.255 248.305 189.876 247.947C190.508 247.579 191.219 247.394 192.009 247.394C192.831 247.394 193.536 247.584 194.126 247.963C194.726 248.342 195.158 248.827 195.422 249.416V247.521H196.527V256.146H195.422V254.235C195.148 254.825 194.711 255.314 194.11 255.704C193.52 256.083 192.815 256.273 191.993 256.273C191.214 256.273 190.508 256.089 189.876 255.72C189.255 255.351 188.765 254.83 188.407 254.156C188.06 253.482 187.886 252.702 187.886 251.818ZM195.422 251.834C195.422 251.138 195.279 250.528 194.995 250.001C194.711 249.474 194.321 249.069 193.826 248.785C193.341 248.5 192.804 248.358 192.214 248.358C191.604 248.358 191.056 248.495 190.571 248.769C190.087 249.043 189.703 249.443 189.418 249.969C189.144 250.485 189.007 251.102 189.007 251.818C189.007 252.523 189.144 253.145 189.418 253.682C189.703 254.209 190.087 254.614 190.571 254.898C191.056 255.172 191.604 255.309 192.214 255.309C192.804 255.309 193.341 255.167 193.826 254.883C194.321 254.598 194.711 254.193 194.995 253.666C195.279 253.14 195.422 252.529 195.422 251.834ZM200.49 248.453V253.808C200.49 254.335 200.59 254.698 200.79 254.898C200.99 255.099 201.343 255.199 201.848 255.199H202.859V256.146H201.674C200.895 256.146 200.316 255.967 199.937 255.609C199.558 255.241 199.368 254.64 199.368 253.808V248.453H198.167V247.521H199.368V245.356H200.49V247.521H202.859V248.453H200.49ZM212.156 247.521V256.146H211.05V254.63C210.797 255.167 210.407 255.578 209.881 255.862C209.354 256.146 208.764 256.289 208.111 256.289C207.079 256.289 206.237 255.973 205.584 255.341C204.931 254.698 204.604 253.772 204.604 252.56V247.521H205.694V252.434C205.694 253.371 205.926 254.087 206.389 254.582C206.863 255.077 207.506 255.325 208.317 255.325C209.149 255.325 209.812 255.062 210.307 254.535C210.802 254.008 211.05 253.234 211.05 252.213V247.521H212.156ZM217.65 256.273C216.66 256.273 215.849 256.046 215.218 255.594C214.596 255.13 214.249 254.503 214.175 253.714H215.312C215.365 254.198 215.591 254.593 215.992 254.898C216.402 255.193 216.95 255.341 217.635 255.341C218.235 255.341 218.704 255.199 219.041 254.914C219.388 254.63 219.562 254.277 219.562 253.856C219.562 253.561 219.467 253.319 219.278 253.129C219.088 252.939 218.846 252.792 218.551 252.687C218.267 252.571 217.877 252.45 217.382 252.323C216.739 252.155 216.218 251.986 215.818 251.818C215.418 251.649 215.075 251.402 214.791 251.075C214.517 250.738 214.38 250.291 214.38 249.732C214.38 249.311 214.507 248.921 214.759 248.563C215.012 248.205 215.37 247.921 215.834 247.71C216.297 247.5 216.824 247.394 217.413 247.394C218.34 247.394 219.088 247.631 219.657 248.105C220.226 248.569 220.531 249.211 220.573 250.033H219.467C219.436 249.527 219.236 249.122 218.867 248.816C218.509 248.5 218.014 248.342 217.382 248.342C216.824 248.342 216.371 248.474 216.023 248.737C215.676 249 215.502 249.327 215.502 249.717C215.502 250.054 215.602 250.333 215.802 250.554C216.013 250.765 216.271 250.933 216.576 251.059C216.882 251.175 217.292 251.307 217.808 251.454C218.43 251.623 218.925 251.786 219.293 251.944C219.662 252.102 219.978 252.334 220.241 252.639C220.505 252.945 220.642 253.35 220.652 253.856C220.652 254.319 220.526 254.735 220.273 255.104C220.02 255.462 219.667 255.746 219.214 255.957C218.762 256.168 218.24 256.273 217.65 256.273Z" fill="#833016"/>
<path d="M131.555 271.511V288.146H127.502V271.511H131.555ZM142.548 274.781C144.097 274.781 145.329 275.287 146.245 276.298C147.177 277.293 147.643 278.668 147.643 280.421V288.146H143.615V280.966C143.615 280.082 143.386 279.394 142.927 278.905C142.469 278.415 141.853 278.17 141.079 278.17C140.305 278.17 139.689 278.415 139.231 278.905C138.773 279.394 138.543 280.082 138.543 280.966V288.146H134.491V274.923H138.543V276.677C138.954 276.093 139.507 275.634 140.202 275.303C140.897 274.955 141.679 274.781 142.548 274.781ZM160.649 278.146V281.511H150.222V278.146H160.649ZM169.585 288.336C168.431 288.336 167.404 288.139 166.504 287.744C165.603 287.349 164.893 286.812 164.371 286.132C163.85 285.437 163.558 284.663 163.494 283.81H167.499C167.547 284.268 167.76 284.639 168.139 284.924C168.518 285.208 168.984 285.35 169.537 285.35C170.043 285.35 170.43 285.255 170.698 285.066C170.983 284.86 171.125 284.6 171.125 284.284C171.125 283.905 170.927 283.628 170.532 283.454C170.137 283.265 169.498 283.059 168.613 282.838C167.665 282.617 166.875 282.388 166.243 282.151C165.611 281.898 165.066 281.511 164.608 280.99C164.15 280.453 163.921 279.734 163.921 278.833C163.921 278.075 164.126 277.388 164.537 276.772C164.964 276.14 165.58 275.642 166.385 275.279C167.207 274.916 168.179 274.734 169.3 274.734C170.959 274.734 172.262 275.145 173.21 275.966C174.174 276.788 174.727 277.878 174.869 279.236H171.125C171.062 278.778 170.856 278.415 170.509 278.146C170.177 277.878 169.735 277.743 169.182 277.743C168.708 277.743 168.344 277.838 168.092 278.028C167.839 278.202 167.712 278.446 167.712 278.762C167.712 279.142 167.91 279.426 168.305 279.615C168.716 279.805 169.348 279.995 170.201 280.184C171.18 280.437 171.978 280.69 172.594 280.943C173.21 281.18 173.747 281.574 174.206 282.127C174.679 282.665 174.924 283.391 174.94 284.308C174.94 285.082 174.719 285.777 174.277 286.393C173.85 286.993 173.226 287.467 172.405 287.815C171.599 288.162 170.659 288.336 169.585 288.336ZM184.789 284.71V288.146H182.727C181.258 288.146 180.113 287.791 179.291 287.08C178.47 286.353 178.059 285.176 178.059 283.549V278.288H176.448V274.923H178.059V271.701H182.111V274.923H184.765V278.288H182.111V283.597C182.111 283.992 182.206 284.276 182.396 284.45C182.585 284.624 182.901 284.71 183.344 284.71H184.789ZM193.065 288.336C191.77 288.336 190.601 288.06 189.558 287.507C188.531 286.954 187.718 286.164 187.117 285.137C186.533 284.11 186.241 282.909 186.241 281.535C186.241 280.176 186.541 278.984 187.141 277.957C187.741 276.914 188.563 276.116 189.606 275.563C190.648 275.01 191.817 274.734 193.113 274.734C194.408 274.734 195.577 275.01 196.62 275.563C197.663 276.116 198.484 276.914 199.084 277.957C199.685 278.984 199.985 280.176 199.985 281.535C199.985 282.894 199.677 284.094 199.061 285.137C198.46 286.164 197.631 286.954 196.572 287.507C195.53 288.06 194.361 288.336 193.065 288.336ZM193.065 284.829C193.839 284.829 194.495 284.545 195.032 283.976C195.585 283.407 195.862 282.593 195.862 281.535C195.862 280.476 195.593 279.663 195.056 279.094C194.535 278.525 193.887 278.241 193.113 278.241C192.323 278.241 191.667 278.525 191.146 279.094C190.624 279.647 190.364 280.461 190.364 281.535C190.364 282.593 190.617 283.407 191.122 283.976C191.643 284.545 192.291 284.829 193.065 284.829ZM201.329 281.535C201.329 280.161 201.605 278.96 202.158 277.933C202.727 276.906 203.509 276.116 204.504 275.563C205.515 275.01 206.669 274.734 207.964 274.734C209.623 274.734 211.005 275.168 212.111 276.037C213.233 276.906 213.967 278.13 214.315 279.71H210.002C209.639 278.699 208.936 278.194 207.893 278.194C207.151 278.194 206.558 278.486 206.116 279.07C205.673 279.639 205.452 280.461 205.452 281.535C205.452 282.609 205.673 283.439 206.116 284.023C206.558 284.592 207.151 284.876 207.893 284.876C208.936 284.876 209.639 284.371 210.002 283.36H214.315C213.967 284.908 213.233 286.124 212.111 287.009C210.99 287.894 209.607 288.336 207.964 288.336C206.669 288.336 205.515 288.06 204.504 287.507C203.509 286.954 202.727 286.164 202.158 285.137C201.605 284.11 201.329 282.909 201.329 281.535ZM224.563 288.146L220.535 282.601V288.146H216.483V270.611H220.535V280.303L224.54 274.923H229.54L224.042 281.559L229.587 288.146H224.563Z" fill="#833016"/>
<rect x="320.35" y="230.685" width="77.4108" height="77.4108" rx="7.89906" fill="white"/>
<path d="M350.894 288.546V284.465H342.732C341.609 284.465 340.649 284.066 339.85 283.267C339.052 282.469 338.652 281.507 338.65 280.384V255.897C338.65 254.774 339.05 253.814 339.85 253.015C340.65 252.217 341.611 251.817 342.732 251.815H375.381C376.503 251.815 377.464 252.215 378.264 253.015C379.064 253.815 379.464 254.776 379.462 255.897V280.384C379.462 281.506 379.063 282.467 378.264 283.267C377.466 284.067 376.505 284.466 375.381 284.465H367.219V288.546H350.894ZM344.364 268.14L349.67 262.835L346.813 259.978L338.65 268.14L346.813 276.303L349.67 273.446L344.364 268.14ZM373.749 268.14L368.443 273.446L371.3 276.303L379.462 268.14L371.3 259.978L368.443 262.835L373.749 268.14Z" fill="#CD6E45"/>
<path d="M416.513 236.399C417.734 236.399 418.782 236.62 419.656 237.062C420.531 237.504 421.199 238.142 421.663 238.974C422.126 239.806 422.358 240.796 422.358 241.944C422.358 243.081 422.126 244.066 421.663 244.898C421.199 245.719 420.531 246.351 419.656 246.794C418.782 247.225 417.734 247.441 416.513 247.441H413.242V236.399H416.513ZM416.513 246.525C418.05 246.525 419.219 246.125 420.02 245.324C420.831 244.513 421.236 243.387 421.236 241.944C421.236 240.49 420.831 239.358 420.02 238.547C419.219 237.726 418.05 237.315 416.513 237.315H414.348V246.525H416.513ZM432.201 242.686C432.201 243.065 432.19 243.355 432.169 243.555H425.013C425.044 244.208 425.202 244.766 425.487 245.23C425.771 245.693 426.145 246.046 426.608 246.288C427.072 246.52 427.577 246.636 428.125 246.636C428.841 246.636 429.442 246.462 429.926 246.114C430.421 245.767 430.748 245.298 430.906 244.708H432.075C431.864 245.551 431.411 246.241 430.716 246.778C430.031 247.304 429.168 247.568 428.125 247.568C427.314 247.568 426.587 247.389 425.945 247.031C425.302 246.662 424.797 246.146 424.428 245.482C424.07 244.808 423.891 244.024 423.891 243.129C423.891 242.233 424.07 241.449 424.428 240.775C424.786 240.101 425.287 239.584 425.929 239.226C426.572 238.868 427.304 238.689 428.125 238.689C428.947 238.689 429.663 238.868 430.274 239.226C430.895 239.584 431.369 240.069 431.695 240.68C432.032 241.28 432.201 241.949 432.201 242.686ZM431.079 242.655C431.09 242.012 430.958 241.464 430.684 241.012C430.421 240.559 430.058 240.216 429.594 239.985C429.131 239.753 428.625 239.637 428.078 239.637C427.256 239.637 426.556 239.9 425.977 240.427C425.397 240.954 425.076 241.696 425.013 242.655H431.079ZM437.289 246.367L440.196 238.816H441.365L437.905 247.441H436.657L433.197 238.816H434.382L437.289 246.367ZM450.668 242.686C450.668 243.065 450.658 243.355 450.637 243.555H443.48C443.512 244.208 443.67 244.766 443.954 245.23C444.238 245.693 444.612 246.046 445.076 246.288C445.539 246.52 446.045 246.636 446.592 246.636C447.308 246.636 447.909 246.462 448.393 246.114C448.888 245.767 449.215 245.298 449.373 244.708H450.542C450.331 245.551 449.878 246.241 449.183 246.778C448.499 247.304 447.635 247.568 446.592 247.568C445.781 247.568 445.055 247.389 444.412 247.031C443.77 246.662 443.264 246.146 442.895 245.482C442.537 244.808 442.358 244.024 442.358 243.129C442.358 242.233 442.537 241.449 442.895 240.775C443.254 240.101 443.754 239.584 444.396 239.226C445.039 238.868 445.771 238.689 446.592 238.689C447.414 238.689 448.13 238.868 448.741 239.226C449.362 239.584 449.836 240.069 450.163 240.68C450.5 241.28 450.668 241.949 450.668 242.686ZM449.546 242.655C449.557 242.012 449.425 241.464 449.151 241.012C448.888 240.559 448.525 240.216 448.061 239.985C447.598 239.753 447.092 239.637 446.545 239.637C445.723 239.637 445.023 239.9 444.444 240.427C443.864 240.954 443.543 241.696 443.48 242.655H449.546ZM453.797 235.751V247.441H452.691V235.751H453.797ZM460.077 247.568C459.266 247.568 458.534 247.389 457.881 247.031C457.239 246.662 456.728 246.146 456.349 245.482C455.98 244.808 455.796 244.024 455.796 243.129C455.796 242.233 455.986 241.454 456.365 240.79C456.744 240.116 457.26 239.6 457.913 239.242C458.566 238.874 459.298 238.689 460.109 238.689C460.92 238.689 461.652 238.874 462.305 239.242C462.968 239.6 463.484 240.116 463.853 240.79C464.232 241.454 464.422 242.233 464.422 243.129C464.422 244.013 464.232 244.793 463.853 245.467C463.474 246.141 462.953 246.662 462.289 247.031C461.625 247.389 460.888 247.568 460.077 247.568ZM460.077 246.604C460.646 246.604 461.173 246.478 461.657 246.225C462.142 245.962 462.531 245.572 462.826 245.056C463.132 244.529 463.284 243.887 463.284 243.129C463.284 242.37 463.137 241.733 462.842 241.217C462.547 240.69 462.157 240.301 461.673 240.048C461.188 239.785 460.662 239.653 460.093 239.653C459.524 239.653 458.998 239.785 458.513 240.048C458.029 240.301 457.639 240.69 457.344 241.217C457.06 241.733 456.918 242.37 456.918 243.129C456.918 243.887 457.06 244.529 457.344 245.056C457.639 245.572 458.023 245.962 458.497 246.225C458.982 246.478 459.509 246.604 460.077 246.604ZM467.528 240.711C467.802 240.132 468.233 239.653 468.823 239.274C469.423 238.884 470.134 238.689 470.956 238.689C471.735 238.689 472.436 238.874 473.057 239.242C473.689 239.6 474.179 240.116 474.526 240.79C474.884 241.454 475.063 242.228 475.063 243.113C475.063 243.997 474.884 244.777 474.526 245.451C474.179 246.125 473.689 246.646 473.057 247.015C472.436 247.383 471.735 247.568 470.956 247.568C470.145 247.568 469.439 247.378 468.839 246.999C468.239 246.609 467.802 246.125 467.528 245.546V251.517H466.438V238.816H467.528V240.711ZM473.942 243.113C473.942 242.397 473.8 241.78 473.515 241.264C473.241 240.738 472.862 240.338 472.378 240.064C471.893 239.79 471.346 239.653 470.735 239.653C470.145 239.653 469.602 239.795 469.107 240.079C468.623 240.364 468.239 240.769 467.954 241.296C467.67 241.823 467.528 242.433 467.528 243.129C467.528 243.824 467.67 244.434 467.954 244.961C468.239 245.488 468.623 245.893 469.107 246.178C469.602 246.462 470.145 246.604 470.735 246.604C471.346 246.604 471.893 246.467 472.378 246.193C472.862 245.909 473.241 245.504 473.515 244.977C473.8 244.44 473.942 243.818 473.942 243.113ZM484.903 242.686C484.903 243.065 484.892 243.355 484.871 243.555H477.714C477.746 244.208 477.904 244.766 478.188 245.23C478.473 245.693 478.847 246.046 479.31 246.288C479.773 246.52 480.279 246.636 480.827 246.636C481.543 246.636 482.143 246.462 482.628 246.114C483.123 245.767 483.449 245.298 483.607 244.708H484.776C484.565 245.551 484.113 246.241 483.417 246.778C482.733 247.304 481.869 247.568 480.827 247.568C480.016 247.568 479.289 247.389 478.646 247.031C478.004 246.662 477.498 246.146 477.13 245.482C476.772 244.808 476.593 244.024 476.593 243.129C476.593 242.233 476.772 241.449 477.13 240.775C477.488 240.101 477.988 239.584 478.631 239.226C479.273 238.868 480.005 238.689 480.827 238.689C481.648 238.689 482.364 238.868 482.975 239.226C483.597 239.584 484.07 240.069 484.397 240.68C484.734 241.28 484.903 241.949 484.903 242.686ZM483.781 242.655C483.791 242.012 483.66 241.464 483.386 241.012C483.123 240.559 482.759 240.216 482.296 239.985C481.832 239.753 481.327 239.637 480.779 239.637C479.958 239.637 479.257 239.9 478.678 240.427C478.099 240.954 477.778 241.696 477.714 242.655H483.781ZM488.032 240.348C488.274 239.811 488.643 239.395 489.138 239.1C489.643 238.805 490.259 238.658 490.986 238.658V239.811H490.686C489.885 239.811 489.243 240.027 488.758 240.459C488.274 240.89 488.032 241.612 488.032 242.623V247.441H486.926V238.816H488.032V240.348Z" fill="#833016"/>
<path d="M432.287 264.705V281.341H428.235V271.364L424.514 281.341H421.244L417.5 271.34V281.341H413.448V264.705H418.235L422.903 276.222L427.524 264.705H432.287ZM434.395 274.705C434.395 273.347 434.648 272.154 435.154 271.127C435.675 270.1 436.378 269.31 437.263 268.757C438.147 268.204 439.135 267.928 440.225 267.928C441.157 267.928 441.971 268.118 442.666 268.497C443.377 268.876 443.922 269.373 444.301 269.99V268.118H448.353V281.341H444.301V279.468C443.906 280.085 443.353 280.582 442.642 280.961C441.947 281.341 441.133 281.53 440.201 281.53C439.127 281.53 438.147 281.254 437.263 280.701C436.378 280.132 435.675 279.334 435.154 278.307C434.648 277.265 434.395 276.064 434.395 274.705ZM444.301 274.729C444.301 273.718 444.016 272.92 443.448 272.336C442.895 271.751 442.215 271.459 441.41 271.459C440.604 271.459 439.917 271.751 439.348 272.336C438.795 272.904 438.519 273.694 438.519 274.705C438.519 275.716 438.795 276.522 439.348 277.122C439.917 277.707 440.604 277.999 441.41 277.999C442.215 277.999 442.895 277.707 443.448 277.122C444.016 276.538 444.301 275.74 444.301 274.729ZM456.664 281.53C455.511 281.53 454.484 281.333 453.583 280.938C452.683 280.543 451.972 280.006 451.45 279.326C450.929 278.631 450.637 277.857 450.574 277.004H454.578C454.626 277.462 454.839 277.833 455.218 278.118C455.597 278.402 456.063 278.544 456.616 278.544C457.122 278.544 457.509 278.45 457.778 278.26C458.062 278.055 458.204 277.794 458.204 277.478C458.204 277.099 458.007 276.822 457.612 276.649C457.217 276.459 456.577 276.254 455.692 276.032C454.744 275.811 453.954 275.582 453.323 275.345C452.691 275.092 452.146 274.705 451.687 274.184C451.229 273.647 451 272.928 451 272.028C451 271.269 451.206 270.582 451.616 269.966C452.043 269.334 452.659 268.836 453.465 268.473C454.286 268.11 455.258 267.928 456.379 267.928C458.038 267.928 459.342 268.339 460.289 269.16C461.253 269.982 461.806 271.072 461.948 272.43H458.204C458.141 271.972 457.936 271.609 457.588 271.34C457.256 271.072 456.814 270.938 456.261 270.938C455.787 270.938 455.424 271.032 455.171 271.222C454.918 271.396 454.792 271.641 454.792 271.956C454.792 272.336 454.989 272.62 455.384 272.81C455.795 272.999 456.427 273.189 457.28 273.378C458.259 273.631 459.057 273.884 459.673 274.137C460.289 274.374 460.827 274.769 461.285 275.321C461.759 275.859 462.004 276.585 462.019 277.502C462.019 278.276 461.798 278.971 461.356 279.587C460.929 280.187 460.305 280.661 459.484 281.009C458.678 281.356 457.738 281.53 456.664 281.53ZM469.878 281.53C468.725 281.53 467.698 281.333 466.797 280.938C465.897 280.543 465.186 280.006 464.664 279.326C464.143 278.631 463.851 277.857 463.788 277.004H467.792C467.84 277.462 468.053 277.833 468.432 278.118C468.811 278.402 469.277 278.544 469.83 278.544C470.336 278.544 470.723 278.45 470.992 278.26C471.276 278.055 471.418 277.794 471.418 277.478C471.418 277.099 471.221 276.822 470.826 276.649C470.431 276.459 469.791 276.254 468.906 276.032C467.958 275.811 467.168 275.582 466.536 275.345C465.905 275.092 465.36 274.705 464.901 274.184C464.443 273.647 464.214 272.928 464.214 272.028C464.214 271.269 464.42 270.582 464.83 269.966C465.257 269.334 465.873 268.836 466.679 268.473C467.5 268.11 468.472 267.928 469.593 267.928C471.252 267.928 472.556 268.339 473.503 269.16C474.467 269.982 475.02 271.072 475.162 272.43H471.418C471.355 271.972 471.15 271.609 470.802 271.34C470.47 271.072 470.028 270.938 469.475 270.938C469.001 270.938 468.638 271.032 468.385 271.222C468.132 271.396 468.006 271.641 468.006 271.956C468.006 272.336 468.203 272.62 468.598 272.81C469.009 272.999 469.641 273.189 470.494 273.378C471.473 273.631 472.271 273.884 472.887 274.137C473.503 274.374 474.041 274.769 474.499 275.321C474.973 275.859 475.218 276.585 475.233 277.502C475.233 278.276 475.012 278.971 474.57 279.587C474.143 280.187 473.519 280.661 472.698 281.009C471.892 281.356 470.952 281.53 469.878 281.53ZM479.75 266.743C479.04 266.743 478.455 266.538 477.997 266.127C477.554 265.7 477.333 265.179 477.333 264.563C477.333 263.931 477.554 263.41 477.997 262.999C478.455 262.572 479.04 262.359 479.75 262.359C480.446 262.359 481.014 262.572 481.457 262.999C481.915 263.41 482.144 263.931 482.144 264.563C482.144 265.179 481.915 265.7 481.457 266.127C481.014 266.538 480.446 266.743 479.75 266.743ZM481.765 268.118V281.341H477.712V268.118H481.765ZM490.649 277.549L493.517 268.118H497.83L493.137 281.341H488.137L483.445 268.118H487.782L490.649 277.549ZM512 274.516C512 274.895 511.976 275.29 511.929 275.701H502.758C502.821 276.522 503.082 277.154 503.54 277.596C504.014 278.023 504.591 278.236 505.27 278.236C506.281 278.236 506.984 277.81 507.379 276.957H511.692C511.471 277.825 511.068 278.608 510.483 279.303C509.915 279.998 509.196 280.543 508.327 280.938C507.458 281.333 506.486 281.53 505.412 281.53C504.117 281.53 502.963 281.254 501.952 280.701C500.941 280.148 500.151 279.358 499.583 278.331C499.014 277.304 498.729 276.103 498.729 274.729C498.729 273.355 499.006 272.154 499.559 271.127C500.128 270.1 500.917 269.31 501.929 268.757C502.94 268.204 504.101 267.928 505.412 267.928C506.692 267.928 507.829 268.197 508.824 268.734C509.82 269.271 510.594 270.037 511.147 271.032C511.716 272.028 512 273.189 512 274.516ZM507.853 273.449C507.853 272.754 507.616 272.201 507.142 271.791C506.668 271.38 506.076 271.174 505.365 271.174C504.685 271.174 504.109 271.372 503.635 271.767C503.177 272.162 502.892 272.723 502.782 273.449H507.853ZM432.287 288.705V305.341H428.235V295.364L424.514 305.341H421.244L417.5 295.34V305.341H413.448V288.705H418.235L422.903 300.222L427.524 288.705H432.287ZM441.22 305.53C439.925 305.53 438.756 305.254 437.713 304.701C436.686 304.148 435.872 303.358 435.272 302.331C434.688 301.304 434.395 300.103 434.395 298.729C434.395 297.37 434.695 296.178 435.296 295.151C435.896 294.108 436.718 293.31 437.76 292.757C438.803 292.204 439.972 291.928 441.267 291.928C442.563 291.928 443.732 292.204 444.775 292.757C445.817 293.31 446.639 294.108 447.239 295.151C447.84 296.178 448.14 297.37 448.14 298.729C448.14 300.088 447.832 301.288 447.215 302.331C446.615 303.358 445.786 304.148 444.727 304.701C443.685 305.254 442.516 305.53 441.22 305.53ZM441.22 302.023C441.994 302.023 442.65 301.739 443.187 301.17C443.74 300.601 444.016 299.788 444.016 298.729C444.016 297.671 443.748 296.857 443.211 296.288C442.689 295.72 442.042 295.435 441.267 295.435C440.478 295.435 439.822 295.72 439.301 296.288C438.779 296.841 438.519 297.655 438.519 298.729C438.519 299.788 438.771 300.601 439.277 301.17C439.798 301.739 440.446 302.023 441.22 302.023ZM458.346 291.975C459.895 291.975 461.127 292.481 462.043 293.492C462.975 294.487 463.441 295.862 463.441 297.615V305.341H459.413V298.16C459.413 297.276 459.184 296.588 458.726 296.099C458.268 295.609 457.651 295.364 456.877 295.364C456.103 295.364 455.487 295.609 455.029 296.099C454.571 296.588 454.342 297.276 454.342 298.16V305.341H450.289V292.118H454.342V293.871C454.752 293.287 455.305 292.828 456 292.497C456.696 292.149 457.478 291.975 458.346 291.975ZM471.637 305.53C470.483 305.53 469.456 305.333 468.556 304.938C467.655 304.543 466.944 304.006 466.423 303.326C465.902 302.631 465.61 301.857 465.546 301.004H469.551C469.599 301.462 469.812 301.833 470.191 302.118C470.57 302.402 471.036 302.544 471.589 302.544C472.095 302.544 472.482 302.45 472.75 302.26C473.035 302.055 473.177 301.794 473.177 301.478C473.177 301.099 472.979 300.822 472.584 300.649C472.189 300.459 471.55 300.254 470.665 300.032C469.717 299.811 468.927 299.582 468.295 299.345C467.663 299.092 467.118 298.705 466.66 298.184C466.202 297.647 465.973 296.928 465.973 296.028C465.973 295.269 466.178 294.582 466.589 293.966C467.016 293.334 467.632 292.836 468.437 292.473C469.259 292.11 470.231 291.928 471.352 291.928C473.011 291.928 474.314 292.339 475.262 293.16C476.226 293.982 476.779 295.072 476.921 296.43H473.177C473.114 295.972 472.908 295.609 472.561 295.34C472.229 295.072 471.787 294.938 471.234 294.938C470.76 294.938 470.396 295.032 470.144 295.222C469.891 295.396 469.764 295.641 469.764 295.956C469.764 296.336 469.962 296.62 470.357 296.81C470.768 296.999 471.4 297.189 472.253 297.378C473.232 297.631 474.03 297.884 474.646 298.137C475.262 298.374 475.799 298.769 476.257 299.321C476.731 299.859 476.976 300.585 476.992 301.502C476.992 302.276 476.771 302.971 476.329 303.587C475.902 304.187 475.278 304.661 474.457 305.009C473.651 305.356 472.711 305.53 471.637 305.53ZM486.841 301.904V305.341H484.779C483.31 305.341 482.165 304.985 481.343 304.274C480.522 303.547 480.111 302.371 480.111 300.743V295.483H478.5V292.118H480.111V288.895H484.163V292.118H486.817V295.483H484.163V300.791C484.163 301.186 484.258 301.47 484.448 301.644C484.637 301.818 484.953 301.904 485.396 301.904H486.841ZM501.563 298.516C501.563 298.895 501.539 299.29 501.492 299.701H492.321C492.384 300.522 492.645 301.154 493.103 301.596C493.577 302.023 494.154 302.236 494.833 302.236C495.844 302.236 496.547 301.81 496.942 300.957H501.255C501.034 301.825 500.631 302.608 500.046 303.303C499.478 303.998 498.759 304.543 497.89 304.938C497.021 305.333 496.049 305.53 494.975 305.53C493.68 305.53 492.526 305.254 491.515 304.701C490.504 304.148 489.714 303.358 489.146 302.331C488.577 301.304 488.293 300.103 488.293 298.729C488.293 297.355 488.569 296.154 489.122 295.127C489.691 294.1 490.481 293.31 491.492 292.757C492.503 292.204 493.664 291.928 494.975 291.928C496.255 291.928 497.392 292.197 498.388 292.734C499.383 293.271 500.157 294.037 500.71 295.032C501.279 296.028 501.563 297.189 501.563 298.516ZM497.416 297.449C497.416 296.754 497.179 296.201 496.705 295.791C496.231 295.38 495.639 295.174 494.928 295.174C494.248 295.174 493.672 295.372 493.198 295.767C492.74 296.162 492.455 296.723 492.345 297.449H497.416ZM507.753 294.321C508.227 293.595 508.819 293.026 509.53 292.615C510.241 292.189 511.031 291.975 511.9 291.975V296.265H510.786C509.775 296.265 509.017 296.486 508.511 296.928C508.006 297.355 507.753 298.113 507.753 299.203V305.341H503.701V292.118H507.753V294.321Z" fill="#833016"/>
<rect x="34.4043" y="330.584" width="77.4108" height="77.4108" rx="7.89906" fill="white"/>
<g clip-path="url(#clip0_283_1556)">
<path d="M75.7567 388.247H81.561C86.8944 388.247 91.2768 383.865 91.2768 378.531V360.048C91.2768 354.716 86.8944 350.332 81.561 350.332H75.6367C75.5198 350.332 75.3997 350.449 75.3997 350.569V388.01C75.3981 388.13 75.5182 388.247 75.7567 388.247ZM82.9828 367.395C85.1171 367.395 86.7728 369.173 86.7728 371.184C86.7728 373.32 84.9955 374.975 82.9828 374.975C80.8501 374.975 79.1913 373.318 79.1913 371.184C79.0728 369.053 80.8501 367.395 82.9828 367.395ZM71.3712 350.332H63.0772C57.7453 350.332 53.3613 354.716 53.3613 360.048V378.531C53.3613 383.865 57.7453 388.247 63.0772 388.247H71.3712C71.4881 388.247 71.6082 388.13 71.6082 388.012V350.569C71.6097 350.449 71.4897 350.332 71.3712 350.332ZM68.6476 385.168H63.0772C62.2052 385.17 61.3415 384.999 60.5357 384.666C59.7298 384.333 58.9976 383.844 58.381 383.228C57.7644 382.611 57.2756 381.879 56.9426 381.073C56.6096 380.267 56.4389 379.403 56.4404 378.531V360.048C56.4389 359.176 56.6096 358.312 56.9426 357.506C57.2756 356.7 57.7644 355.968 58.381 355.351C58.9976 354.735 59.7298 354.246 60.5357 353.913C61.3415 353.58 62.2052 353.409 63.0772 353.411H68.5275L68.6476 385.168ZM59.2856 361.705C59.2856 363.719 60.8259 365.259 62.8402 365.259C64.8545 365.259 66.3948 363.719 66.3948 361.705C66.3948 359.694 64.8545 358.15 62.8402 358.15C60.8259 358.15 59.2856 359.694 59.2856 361.705Z" fill="#CD6E45"/>
</g>
<path d="M134.359 339.473C134.359 340.421 134.048 341.184 133.427 341.764C132.805 342.343 131.873 342.632 130.63 342.632H128.403V347.34H127.297V336.297H130.63C131.863 336.297 132.79 336.587 133.411 337.166C134.043 337.746 134.359 338.514 134.359 339.473ZM130.63 341.685C132.358 341.685 133.221 340.947 133.221 339.473C133.221 338.736 133.016 338.177 132.605 337.798C132.194 337.419 131.536 337.23 130.63 337.23H128.403V341.685H130.63ZM137.32 335.65V347.34H136.214V335.65H137.32ZM139.319 343.012C139.319 342.127 139.493 341.353 139.84 340.689C140.198 340.015 140.688 339.499 141.309 339.141C141.941 338.772 142.652 338.588 143.442 338.588C144.264 338.588 144.969 338.778 145.559 339.157C146.16 339.536 146.591 340.021 146.855 340.61V338.715H147.961V347.34H146.855V345.429C146.581 346.019 146.144 346.508 145.543 346.898C144.954 347.277 144.248 347.467 143.426 347.467C142.647 347.467 141.941 347.282 141.309 346.914C140.688 346.545 140.198 346.024 139.84 345.35C139.493 344.676 139.319 343.896 139.319 343.012ZM146.855 343.027C146.855 342.332 146.712 341.721 146.428 341.195C146.144 340.668 145.754 340.263 145.259 339.978C144.775 339.694 144.237 339.552 143.648 339.552C143.037 339.552 142.489 339.689 142.005 339.963C141.52 340.236 141.136 340.637 140.851 341.163C140.578 341.679 140.441 342.295 140.441 343.012C140.441 343.717 140.578 344.339 140.851 344.876C141.136 345.402 141.52 345.808 142.005 346.092C142.489 346.366 143.037 346.503 143.648 346.503C144.237 346.503 144.775 346.361 145.259 346.076C145.754 345.792 146.144 345.387 146.428 344.86C146.712 344.333 146.855 343.723 146.855 343.027ZM151.923 339.647V345.002C151.923 345.529 152.023 345.892 152.223 346.092C152.423 346.292 152.776 346.392 153.281 346.392H154.292V347.34H153.108C152.328 347.34 151.749 347.161 151.37 346.803C150.991 346.435 150.801 345.834 150.801 345.002V339.647H149.6V338.715H150.801V336.55H151.923V338.715H154.292V339.647H151.923ZM159.513 339.647H157.507V347.34H156.401V339.647H155.2V338.715H156.401V338.114C156.401 337.177 156.638 336.487 157.112 336.045C157.596 335.602 158.375 335.381 159.45 335.381V336.329C158.734 336.329 158.228 336.466 157.933 336.74C157.649 337.014 157.507 337.472 157.507 338.114V338.715H159.513V339.647ZM165.03 347.467C164.219 347.467 163.487 347.288 162.834 346.93C162.191 346.561 161.68 346.045 161.301 345.381C160.933 344.707 160.748 343.923 160.748 343.027C160.748 342.132 160.938 341.353 161.317 340.689C161.696 340.015 162.212 339.499 162.865 339.141C163.518 338.772 164.25 338.588 165.061 338.588C165.872 338.588 166.604 338.772 167.257 339.141C167.921 339.499 168.437 340.015 168.805 340.689C169.184 341.353 169.374 342.132 169.374 343.027C169.374 343.912 169.184 344.692 168.805 345.366C168.426 346.04 167.905 346.561 167.241 346.93C166.578 347.288 165.84 347.467 165.03 347.467ZM165.03 346.503C165.598 346.503 166.125 346.377 166.609 346.124C167.094 345.861 167.483 345.471 167.778 344.955C168.084 344.428 168.237 343.786 168.237 343.027C168.237 342.269 168.089 341.632 167.794 341.116C167.499 340.589 167.11 340.2 166.625 339.947C166.141 339.684 165.614 339.552 165.045 339.552C164.477 339.552 163.95 339.684 163.465 339.947C162.981 340.2 162.591 340.589 162.296 341.116C162.012 341.632 161.87 342.269 161.87 343.027C161.87 343.786 162.012 344.428 162.296 344.955C162.591 345.471 162.976 345.861 163.45 346.124C163.934 346.377 164.461 346.503 165.03 346.503ZM172.496 340.247C172.738 339.71 173.107 339.294 173.602 338.999C174.107 338.704 174.723 338.557 175.45 338.557V339.71H175.15C174.349 339.71 173.707 339.926 173.222 340.358C172.738 340.789 172.496 341.511 172.496 342.522V347.34H171.39V338.715H172.496V340.247ZM187.382 338.557C188.393 338.557 189.215 338.878 189.847 339.52C190.489 340.152 190.811 341.074 190.811 342.285V347.34H189.72V342.411C189.72 341.474 189.494 340.758 189.041 340.263C188.588 339.768 187.972 339.52 187.193 339.52C186.382 339.52 185.734 339.789 185.25 340.326C184.765 340.863 184.523 341.642 184.523 342.664V347.34H183.433V342.411C183.433 341.474 183.206 340.758 182.754 340.263C182.301 339.768 181.679 339.52 180.889 339.52C180.078 339.52 179.431 339.789 178.946 340.326C178.462 340.863 178.219 341.642 178.219 342.664V347.34H177.114V338.715H178.219V340.2C178.493 339.662 178.883 339.257 179.389 338.983C179.894 338.699 180.458 338.557 181.079 338.557C181.827 338.557 182.48 338.736 183.038 339.094C183.607 339.452 184.017 339.978 184.27 340.674C184.502 339.989 184.897 339.468 185.455 339.11C186.024 338.741 186.666 338.557 187.382 338.557Z" fill="#833016"/>
<path d="M142.384 381.24H138.332L131.555 370.979V381.24H127.502V364.604H131.555L138.332 374.912V364.604H142.384V381.24ZM147.36 366.642C146.649 366.642 146.064 366.437 145.606 366.026C145.164 365.599 144.942 365.078 144.942 364.462C144.942 363.83 145.164 363.309 145.606 362.898C146.064 362.471 146.649 362.258 147.36 362.258C148.055 362.258 148.623 362.471 149.066 362.898C149.524 363.309 149.753 363.83 149.753 364.462C149.753 365.078 149.524 365.599 149.066 366.026C148.623 366.437 148.055 366.642 147.36 366.642ZM149.374 368.016V381.24H145.322V368.016H149.374ZM160.367 367.874C161.916 367.874 163.148 368.38 164.064 369.391C164.996 370.386 165.462 371.761 165.462 373.514V381.24H161.434V374.059C161.434 373.175 161.205 372.487 160.747 371.998C160.288 371.508 159.672 371.263 158.898 371.263C158.124 371.263 157.508 371.508 157.05 371.998C156.592 372.487 156.363 373.175 156.363 374.059V381.24H152.31V368.016H156.363V369.77C156.773 369.186 157.326 368.727 158.021 368.396C158.717 368.048 159.499 367.874 160.367 367.874ZM175.648 377.803V381.24H173.586C172.117 381.24 170.972 380.884 170.15 380.173C169.329 379.446 168.918 378.269 168.918 376.642V371.381H167.307V368.016H168.918V364.794H172.97V368.016H175.624V371.381H172.97V376.69C172.97 377.085 173.065 377.369 173.255 377.543C173.444 377.717 173.76 377.803 174.203 377.803H175.648ZM190.37 374.415C190.37 374.794 190.346 375.189 190.299 375.6H181.128C181.191 376.421 181.452 377.053 181.91 377.495C182.384 377.922 182.961 378.135 183.64 378.135C184.651 378.135 185.354 377.709 185.749 376.856H190.062C189.841 377.724 189.438 378.506 188.853 379.202C188.285 379.897 187.566 380.442 186.697 380.837C185.828 381.232 184.856 381.429 183.782 381.429C182.487 381.429 181.333 381.153 180.322 380.6C179.311 380.047 178.521 379.257 177.953 378.23C177.384 377.203 177.1 376.002 177.1 374.628C177.1 373.254 177.376 372.053 177.929 371.026C178.498 369.999 179.288 369.209 180.299 368.656C181.31 368.103 182.471 367.827 183.782 367.827C185.062 367.827 186.199 368.095 187.195 368.633C188.19 369.17 188.964 369.936 189.517 370.931C190.086 371.927 190.37 373.088 190.37 374.415ZM186.223 373.348C186.223 372.653 185.986 372.1 185.512 371.69C185.038 371.279 184.446 371.073 183.735 371.073C183.055 371.073 182.479 371.271 182.005 371.666C181.547 372.061 181.262 372.622 181.152 373.348H186.223ZM200.565 367.874C202.113 367.874 203.345 368.38 204.261 369.391C205.194 370.386 205.66 371.761 205.66 373.514V381.24H201.631V374.059C201.631 373.175 201.402 372.487 200.944 371.998C200.486 371.508 199.87 371.263 199.096 371.263C198.321 371.263 197.705 371.508 197.247 371.998C196.789 372.487 196.56 373.175 196.56 374.059V381.24H192.508V368.016H196.56V369.77C196.971 369.186 197.524 368.727 198.219 368.396C198.914 368.048 199.696 367.874 200.565 367.874ZM207.67 374.604C207.67 373.246 207.923 372.053 208.428 371.026C208.949 369.999 209.652 369.209 210.537 368.656C211.422 368.103 212.409 367.827 213.499 367.827C214.368 367.827 215.158 368.009 215.869 368.372C216.596 368.735 217.164 369.225 217.575 369.841V363.704H221.627V381.24H217.575V379.344C217.196 379.976 216.651 380.481 215.94 380.86C215.245 381.24 214.431 381.429 213.499 381.429C212.409 381.429 211.422 381.153 210.537 380.6C209.652 380.031 208.949 379.233 208.428 378.206C207.923 377.164 207.67 375.963 207.67 374.604ZM217.575 374.628C217.575 373.617 217.291 372.819 216.722 372.235C216.169 371.65 215.49 371.358 214.684 371.358C213.878 371.358 213.191 371.65 212.623 372.235C212.07 372.803 211.793 373.593 211.793 374.604C211.793 375.615 212.07 376.421 212.623 377.021C213.191 377.606 213.878 377.898 214.684 377.898C215.49 377.898 216.169 377.606 216.722 377.021C217.291 376.437 217.575 375.639 217.575 374.628ZM230.578 381.429C229.283 381.429 228.114 381.153 227.071 380.6C226.044 380.047 225.23 379.257 224.63 378.23C224.046 377.203 223.753 376.002 223.753 374.628C223.753 373.269 224.054 372.077 224.654 371.05C225.254 370.007 226.076 369.209 227.118 368.656C228.161 368.103 229.33 367.827 230.626 367.827C231.921 367.827 233.09 368.103 234.133 368.656C235.175 369.209 235.997 370.007 236.597 371.05C237.198 372.077 237.498 373.269 237.498 374.628C237.498 375.987 237.19 377.187 236.574 378.23C235.973 379.257 235.144 380.047 234.085 380.6C233.043 381.153 231.874 381.429 230.578 381.429ZM230.578 377.922C231.352 377.922 232.008 377.638 232.545 377.069C233.098 376.5 233.374 375.686 233.374 374.628C233.374 373.57 233.106 372.756 232.569 372.187C232.047 371.618 231.4 371.334 230.626 371.334C229.836 371.334 229.18 371.618 228.659 372.187C228.137 372.74 227.877 373.554 227.877 374.628C227.877 375.686 228.129 376.5 228.635 377.069C229.156 377.638 229.804 377.922 230.578 377.922ZM133.522 405.405C132.305 405.405 131.215 405.208 130.251 404.813C129.288 404.418 128.514 403.833 127.929 403.059C127.36 402.285 127.06 401.353 127.028 400.263H131.341C131.405 400.879 131.618 401.353 131.981 401.685C132.345 402.001 132.818 402.159 133.403 402.159C134.003 402.159 134.477 402.025 134.825 401.756C135.172 401.472 135.346 401.085 135.346 400.595C135.346 400.184 135.204 399.844 134.92 399.576C134.651 399.307 134.311 399.086 133.901 398.912C133.506 398.739 132.937 398.541 132.194 398.32C131.12 397.988 130.243 397.656 129.564 397.325C128.885 396.993 128.3 396.503 127.81 395.855C127.321 395.208 127.076 394.362 127.076 393.32C127.076 391.772 127.637 390.563 128.758 389.694C129.88 388.809 131.341 388.367 133.142 388.367C134.975 388.367 136.452 388.809 137.574 389.694C138.695 390.563 139.296 391.78 139.375 393.344H134.991C134.959 392.806 134.762 392.388 134.398 392.088C134.035 391.772 133.569 391.614 133 391.614C132.51 391.614 132.115 391.748 131.815 392.016C131.515 392.269 131.365 392.64 131.365 393.13C131.365 393.667 131.618 394.086 132.123 394.386C132.629 394.686 133.419 395.01 134.493 395.358C135.567 395.721 136.436 396.069 137.1 396.4C137.779 396.732 138.364 397.214 138.853 397.846C139.343 398.478 139.588 399.292 139.588 400.287C139.588 401.235 139.343 402.096 138.853 402.87C138.379 403.644 137.684 404.26 136.768 404.718C135.852 405.176 134.77 405.405 133.522 405.405ZM161.063 392.016L157.485 405.24H153.006L150.921 396.661L148.764 405.24H144.309L140.707 392.016H144.76L146.632 401.472L148.859 392.016H153.148L155.4 401.424L157.248 392.016H161.063ZM164.646 390.642C163.936 390.642 163.351 390.437 162.893 390.026C162.451 389.599 162.229 389.078 162.229 388.462C162.229 387.83 162.451 387.309 162.893 386.898C163.351 386.471 163.936 386.258 164.646 386.258C165.342 386.258 165.91 386.471 166.353 386.898C166.811 387.309 167.04 387.83 167.04 388.462C167.04 389.078 166.811 389.599 166.353 390.026C165.91 390.437 165.342 390.642 164.646 390.642ZM166.661 392.016V405.24H162.609V392.016H166.661ZM176.967 401.803V405.24H174.905C173.436 405.24 172.291 404.884 171.469 404.173C170.648 403.446 170.237 402.269 170.237 400.642V395.381H168.626V392.016H170.237V388.794H174.289V392.016H176.943V395.381H174.289V400.69C174.289 401.085 174.384 401.369 174.574 401.543C174.763 401.717 175.079 401.803 175.522 401.803H176.967ZM178.419 398.628C178.419 397.254 178.695 396.053 179.248 395.026C179.817 393.999 180.599 393.209 181.594 392.656C182.605 392.103 183.758 391.827 185.054 391.827C186.713 391.827 188.095 392.261 189.201 393.13C190.322 393.999 191.057 395.223 191.405 396.803H187.092C186.728 395.792 186.025 395.287 184.983 395.287C184.24 395.287 183.648 395.579 183.205 396.163C182.763 396.732 182.542 397.554 182.542 398.628C182.542 399.702 182.763 400.532 183.205 401.116C183.648 401.685 184.24 401.969 184.983 401.969C186.025 401.969 186.728 401.464 187.092 400.453H191.405C191.057 402.001 190.322 403.217 189.201 404.102C188.079 404.987 186.697 405.429 185.054 405.429C183.758 405.429 182.605 405.153 181.594 404.6C180.599 404.047 179.817 403.257 179.248 402.23C178.695 401.203 178.419 400.002 178.419 398.628ZM201.7 391.874C203.217 391.874 204.433 392.38 205.35 393.391C206.266 394.386 206.724 395.761 206.724 397.514V405.24H202.696V398.059C202.696 397.175 202.467 396.487 202.008 395.998C201.55 395.508 200.934 395.263 200.16 395.263C199.386 395.263 198.77 395.508 198.312 395.998C197.853 396.487 197.624 397.175 197.624 398.059V405.24H193.572V387.704H197.624V393.794C198.035 393.209 198.596 392.743 199.307 392.396C200.018 392.048 200.816 391.874 201.7 391.874Z" fill="#833016"/>
<rect x="320.35" y="330.584" width="77.4108" height="77.4108" rx="7.89906" fill="white"/>
<path d="M352.735 390.617C352.735 391.802 353.683 392.987 355.104 392.987H364.583C366.005 392.987 366.953 391.802 366.953 390.617V388.248H352.735V390.617ZM359.844 345.593C350.602 345.593 343.256 352.939 343.256 362.181C343.256 367.868 346.1 372.845 350.365 375.688V381.139C350.365 382.323 351.313 383.508 352.735 383.508H366.953C368.375 383.508 369.323 382.323 369.323 381.139V375.688C373.588 372.608 376.432 367.631 376.432 362.181C376.432 352.939 369.086 345.593 359.844 345.593Z" fill="#CD6E45"/>
<path d="M421.931 339.52C421.615 338.794 421.131 338.225 420.478 337.814C419.835 337.393 419.077 337.182 418.203 337.182C417.381 337.182 416.644 337.372 415.991 337.751C415.338 338.13 414.822 338.672 414.443 339.378C414.064 340.073 413.874 340.884 413.874 341.811C413.874 342.738 414.064 343.554 414.443 344.26C414.822 344.965 415.338 345.508 415.991 345.887C416.644 346.266 417.381 346.456 418.203 346.456C418.972 346.456 419.662 346.292 420.273 345.966C420.894 345.629 421.389 345.155 421.758 344.544C422.137 343.923 422.353 343.201 422.405 342.38H417.761V341.479H423.574V342.285C423.522 343.254 423.258 344.133 422.784 344.923C422.31 345.703 421.673 346.319 420.873 346.772C420.083 347.224 419.193 347.451 418.203 347.451C417.181 347.451 416.255 347.214 415.423 346.74C414.59 346.256 413.932 345.587 413.448 344.734C412.974 343.87 412.737 342.896 412.737 341.811C412.737 340.726 412.974 339.757 413.448 338.904C413.932 338.041 414.59 337.372 415.423 336.898C416.255 336.413 417.181 336.171 418.203 336.171C419.383 336.171 420.415 336.466 421.299 337.056C422.184 337.646 422.827 338.467 423.227 339.52H421.931ZM433.404 342.585C433.404 342.964 433.394 343.254 433.373 343.454H426.216C426.248 344.107 426.406 344.665 426.69 345.129C426.975 345.592 427.348 345.945 427.812 346.187C428.275 346.419 428.781 346.535 429.328 346.535C430.045 346.535 430.645 346.361 431.129 346.013C431.624 345.666 431.951 345.197 432.109 344.607H433.278C433.067 345.45 432.614 346.14 431.919 346.677C431.235 347.203 430.371 347.467 429.328 347.467C428.517 347.467 427.791 347.288 427.148 346.93C426.506 346.561 426 346.045 425.632 345.381C425.274 344.707 425.095 343.923 425.095 343.027C425.095 342.132 425.274 341.348 425.632 340.674C425.99 339.999 426.49 339.483 427.132 339.125C427.775 338.767 428.507 338.588 429.328 338.588C430.15 338.588 430.866 338.767 431.477 339.125C432.098 339.483 432.572 339.968 432.899 340.579C433.236 341.179 433.404 341.848 433.404 342.585ZM432.283 342.554C432.293 341.911 432.162 341.363 431.888 340.91C431.624 340.458 431.261 340.115 430.798 339.884C430.334 339.652 429.829 339.536 429.281 339.536C428.46 339.536 427.759 339.799 427.18 340.326C426.601 340.853 426.279 341.595 426.216 342.554H432.283ZM439.472 338.557C440.504 338.557 441.347 338.878 442 339.52C442.653 340.152 442.979 341.074 442.979 342.285V347.34H441.889V342.411C441.889 341.474 441.652 340.758 441.178 340.263C440.715 339.768 440.078 339.52 439.267 339.52C438.435 339.52 437.771 339.784 437.276 340.31C436.781 340.837 436.533 341.611 436.533 342.632V347.34H435.428V338.715H436.533V340.184C436.807 339.657 437.202 339.257 437.718 338.983C438.234 338.699 438.819 338.557 439.472 338.557ZM446.531 340.247C446.773 339.71 447.142 339.294 447.637 338.999C448.142 338.704 448.758 338.557 449.485 338.557V339.71H449.185C448.384 339.71 447.742 339.926 447.257 340.358C446.773 340.789 446.531 341.511 446.531 342.522V347.34H445.425V338.715H446.531V340.247ZM458.953 342.585C458.953 342.964 458.942 343.254 458.921 343.454H451.765C451.796 344.107 451.954 344.665 452.239 345.129C452.523 345.592 452.897 345.945 453.36 346.187C453.824 346.419 454.329 346.535 454.877 346.535C455.593 346.535 456.193 346.361 456.678 346.013C457.173 345.666 457.499 345.197 457.657 344.607H458.826C458.616 345.45 458.163 346.14 457.468 346.677C456.783 347.203 455.92 347.467 454.877 347.467C454.066 347.467 453.339 347.288 452.697 346.93C452.054 346.561 451.549 346.045 451.18 345.381C450.822 344.707 450.643 343.923 450.643 343.027C450.643 342.132 450.822 341.348 451.18 340.674C451.538 339.999 452.039 339.483 452.681 339.125C453.323 338.767 454.055 338.588 454.877 338.588C455.698 338.588 456.415 338.767 457.026 339.125C457.647 339.483 458.121 339.968 458.447 340.579C458.784 341.179 458.953 341.848 458.953 342.585ZM457.831 342.554C457.842 341.911 457.71 341.363 457.436 340.91C457.173 340.458 456.81 340.115 456.346 339.884C455.883 339.652 455.377 339.536 454.83 339.536C454.008 339.536 453.308 339.799 452.728 340.326C452.149 340.853 451.828 341.595 451.765 342.554H457.831Z" fill="#833016"/>
<path d="M419.467 381.405C418.25 381.405 417.16 381.208 416.197 380.813C415.233 380.418 414.459 379.833 413.874 379.059C413.306 378.285 413.005 377.353 412.974 376.263H417.287C417.35 376.879 417.563 377.353 417.927 377.685C418.29 378.001 418.764 378.159 419.348 378.159C419.949 378.159 420.423 378.025 420.77 377.756C421.118 377.472 421.292 377.085 421.292 376.595C421.292 376.184 421.149 375.844 420.865 375.576C420.596 375.307 420.257 375.086 419.846 374.912C419.451 374.739 418.882 374.541 418.14 374.32C417.066 373.988 416.189 373.656 415.509 373.325C414.83 372.993 414.246 372.503 413.756 371.855C413.266 371.208 413.021 370.362 413.021 369.32C413.021 367.772 413.582 366.563 414.704 365.694C415.825 364.809 417.287 364.367 419.088 364.367C420.92 364.367 422.397 364.809 423.519 365.694C424.641 366.563 425.241 367.78 425.32 369.344H420.936C420.904 368.806 420.707 368.388 420.344 368.088C419.98 367.772 419.514 367.614 418.945 367.614C418.456 367.614 418.061 367.748 417.761 368.016C417.46 368.269 417.31 368.64 417.31 369.13C417.31 369.667 417.563 370.086 418.069 370.386C418.574 370.686 419.364 371.01 420.438 371.358C421.513 371.721 422.382 372.069 423.045 372.4C423.724 372.732 424.309 373.214 424.799 373.846C425.288 374.478 425.533 375.292 425.533 376.287C425.533 377.235 425.288 378.096 424.799 378.87C424.325 379.644 423.63 380.26 422.713 380.718C421.797 381.176 420.715 381.405 419.467 381.405ZM435.397 377.803V381.24H433.335C431.866 381.24 430.721 380.884 429.899 380.173C429.078 379.446 428.667 378.269 428.667 376.642V371.381H427.055V368.016H428.667V364.794H432.719V368.016H435.373V371.381H432.719V376.69C432.719 377.085 432.814 377.369 433.003 377.543C433.193 377.717 433.509 377.803 433.951 377.803H435.397ZM441.706 370.22C442.18 369.494 442.773 368.925 443.484 368.514C444.194 368.088 444.984 367.874 445.853 367.874V372.163H444.739C443.728 372.163 442.97 372.385 442.465 372.827C441.959 373.254 441.706 374.012 441.706 375.102V381.24H437.654V368.016H441.706V370.22ZM446.984 374.604C446.984 373.246 447.237 372.053 447.743 371.026C448.264 369.999 448.967 369.209 449.852 368.656C450.736 368.103 451.724 367.827 452.814 367.827C453.746 367.827 454.56 368.016 455.255 368.396C455.966 368.775 456.511 369.272 456.89 369.889V368.016H460.942V381.24H456.89V379.367C456.495 379.984 455.942 380.481 455.231 380.86C454.536 381.24 453.722 381.429 452.79 381.429C451.716 381.429 450.736 381.153 449.852 380.6C448.967 380.031 448.264 379.233 447.743 378.206C447.237 377.164 446.984 375.963 446.984 374.604ZM456.89 374.628C456.89 373.617 456.605 372.819 456.037 372.235C455.484 371.65 454.805 371.358 453.999 371.358C453.193 371.358 452.506 371.65 451.937 372.235C451.384 372.803 451.108 373.593 451.108 374.604C451.108 375.615 451.384 376.421 451.937 377.021C452.506 377.606 453.193 377.898 453.999 377.898C454.805 377.898 455.484 377.606 456.037 377.021C456.605 376.437 456.89 375.639 456.89 374.628ZM471.243 377.803V381.24H469.182C467.713 381.24 466.567 380.884 465.746 380.173C464.924 379.446 464.513 378.269 464.513 376.642V371.381H462.902V368.016H464.513V364.794H468.566V368.016H471.22V371.381H468.566V376.69C468.566 377.085 468.661 377.369 468.85 377.543C469.04 377.717 469.356 377.803 469.798 377.803H471.243ZM485.965 374.415C485.965 374.794 485.942 375.189 485.894 375.6H476.723C476.787 376.421 477.047 377.053 477.505 377.495C477.979 377.922 478.556 378.135 479.235 378.135C480.246 378.135 480.949 377.709 481.344 376.856H485.657C485.436 377.724 485.033 378.506 484.449 379.202C483.88 379.897 483.161 380.442 482.292 380.837C481.423 381.232 480.452 381.429 479.378 381.429C478.082 381.429 476.929 381.153 475.918 380.6C474.907 380.047 474.117 379.257 473.548 378.23C472.979 377.203 472.695 376.002 472.695 374.628C472.695 373.254 472.971 372.053 473.524 371.026C474.093 369.999 474.883 369.209 475.894 368.656C476.905 368.103 478.066 367.827 479.378 367.827C480.657 367.827 481.795 368.095 482.79 368.633C483.785 369.17 484.559 369.936 485.112 370.931C485.681 371.927 485.965 373.088 485.965 374.415ZM481.818 373.348C481.818 372.653 481.581 372.1 481.107 371.69C480.634 371.279 480.041 371.073 479.33 371.073C478.651 371.073 478.074 371.271 477.6 371.666C477.142 372.061 476.858 372.622 476.747 373.348H481.818ZM493.127 367.827C494.059 367.827 494.873 368.016 495.568 368.396C496.279 368.775 496.824 369.272 497.203 369.889V368.016H501.255V381.216C501.255 382.432 501.01 383.53 500.52 384.51C500.047 385.505 499.312 386.295 498.317 386.879C497.337 387.464 496.113 387.756 494.644 387.756C492.685 387.756 491.097 387.29 489.88 386.358C488.664 385.442 487.969 384.194 487.795 382.614H491.8C491.926 383.119 492.226 383.514 492.7 383.799C493.174 384.099 493.759 384.249 494.454 384.249C495.291 384.249 495.955 384.004 496.445 383.514C496.95 383.04 497.203 382.274 497.203 381.216V379.344C496.808 379.96 496.263 380.465 495.568 380.86C494.873 381.24 494.059 381.429 493.127 381.429C492.037 381.429 491.049 381.153 490.165 380.6C489.28 380.031 488.577 379.233 488.056 378.206C487.55 377.164 487.297 375.963 487.297 374.604C487.297 373.246 487.55 372.053 488.056 371.026C488.577 369.999 489.28 369.209 490.165 368.656C491.049 368.103 492.037 367.827 493.127 367.827ZM497.203 374.628C497.203 373.617 496.918 372.819 496.35 372.235C495.797 371.65 495.117 371.358 494.312 371.358C493.506 371.358 492.819 371.65 492.25 372.235C491.697 372.803 491.421 373.593 491.421 374.604C491.421 375.615 491.697 376.421 492.25 377.021C492.819 377.606 493.506 377.898 494.312 377.898C495.117 377.898 495.797 377.606 496.35 377.021C496.918 376.437 497.203 375.639 497.203 374.628ZM517.694 368.016L509.4 387.519H505.04L508.073 380.789L502.694 368.016H507.22L510.277 376.287L513.31 368.016H517.694ZM523.52 377.495L520.889 384.296H518.306L519.681 377.495H523.52ZM423.803 402.301H417.595L416.599 405.24H412.358L418.377 388.604H423.069L429.088 405.24H424.799L423.803 402.301ZM422.761 399.173L420.699 393.083L418.661 399.173H422.761ZM430.114 398.604C430.114 397.246 430.367 396.053 430.872 395.026C431.394 393.999 432.097 393.209 432.981 392.656C433.866 392.103 434.854 391.827 435.944 391.827C436.812 391.827 437.602 392.009 438.313 392.372C439.04 392.735 439.609 393.225 440.02 393.841V387.704H444.072V405.24H440.02V403.344C439.64 403.976 439.095 404.481 438.384 404.86C437.689 405.24 436.876 405.429 435.944 405.429C434.854 405.429 433.866 405.153 432.981 404.6C432.097 404.031 431.394 403.233 430.872 402.206C430.367 401.164 430.114 399.963 430.114 398.604ZM440.02 398.628C440.02 397.617 439.735 396.819 439.166 396.235C438.613 395.65 437.934 395.358 437.128 395.358C436.323 395.358 435.636 395.65 435.067 396.235C434.514 396.803 434.237 397.593 434.237 398.604C434.237 399.615 434.514 400.421 435.067 401.021C435.636 401.606 436.323 401.898 437.128 401.898C437.934 401.898 438.613 401.606 439.166 401.021C439.735 400.437 440.02 399.639 440.02 398.628ZM452.951 401.448L455.819 392.016H460.132L455.44 405.24H450.439L445.747 392.016H450.084L452.951 401.448ZM474.302 398.415C474.302 398.794 474.278 399.189 474.231 399.6H465.06C465.123 400.421 465.384 401.053 465.842 401.495C466.316 401.922 466.893 402.135 467.572 402.135C468.583 402.135 469.286 401.709 469.681 400.856H473.994C473.773 401.724 473.37 402.506 472.785 403.202C472.217 403.897 471.498 404.442 470.629 404.837C469.76 405.232 468.788 405.429 467.714 405.429C466.419 405.429 465.265 405.153 464.254 404.6C463.243 404.047 462.453 403.257 461.885 402.23C461.316 401.203 461.031 400.002 461.031 398.628C461.031 397.254 461.308 396.053 461.861 395.026C462.43 393.999 463.22 393.209 464.231 392.656C465.242 392.103 466.403 391.827 467.714 391.827C468.994 391.827 470.131 392.095 471.126 392.633C472.122 393.17 472.896 393.936 473.449 394.931C474.018 395.927 474.302 397.088 474.302 398.415ZM470.155 397.348C470.155 396.653 469.918 396.1 469.444 395.69C468.97 395.279 468.378 395.073 467.667 395.073C466.987 395.073 466.411 395.271 465.937 395.666C465.479 396.061 465.194 396.622 465.084 397.348H470.155ZM484.497 391.874C486.045 391.874 487.277 392.38 488.193 393.391C489.126 394.386 489.592 395.761 489.592 397.514V405.24H485.563V398.059C485.563 397.175 485.334 396.487 484.876 395.998C484.418 395.508 483.802 395.263 483.027 395.263C482.253 395.263 481.637 395.508 481.179 395.998C480.721 396.487 480.492 397.175 480.492 398.059V405.24H476.44V392.016H480.492V393.77C480.903 393.186 481.456 392.727 482.151 392.396C482.846 392.048 483.628 391.874 484.497 391.874ZM499.777 401.803V405.24H497.716C496.246 405.24 495.101 404.884 494.28 404.173C493.458 403.446 493.047 402.269 493.047 400.642V395.381H491.436V392.016H493.047V388.794H497.1V392.016H499.754V395.381H497.1V400.69C497.1 401.085 497.194 401.369 497.384 401.543C497.573 401.717 497.889 401.803 498.332 401.803H499.777ZM515.092 392.016V405.24H511.039V403.439C510.629 404.023 510.068 404.497 509.357 404.86C508.662 405.208 507.888 405.382 507.035 405.382C506.023 405.382 505.131 405.161 504.357 404.718C503.583 404.26 502.982 403.604 502.556 402.751C502.129 401.898 501.916 400.895 501.916 399.742V392.016H505.945V399.197C505.945 400.081 506.174 400.769 506.632 401.258C507.09 401.748 507.706 401.993 508.48 401.993C509.27 401.993 509.894 401.748 510.352 401.258C510.81 400.769 511.039 400.081 511.039 399.197V392.016H515.092ZM522.055 394.22C522.528 393.494 523.121 392.925 523.832 392.514C524.543 392.088 525.333 391.874 526.202 391.874V396.163H525.088C524.077 396.163 523.318 396.385 522.813 396.827C522.307 397.254 522.055 398.012 522.055 399.102V405.24H518.002V392.016H522.055V394.22ZM540.603 398.415C540.603 398.794 540.579 399.189 540.532 399.6H531.361C531.424 400.421 531.685 401.053 532.143 401.495C532.617 401.922 533.194 402.135 533.873 402.135C534.884 402.135 535.587 401.709 535.982 400.856H540.295C540.074 401.724 539.671 402.506 539.086 403.202C538.518 403.897 537.799 404.442 536.93 404.837C536.061 405.232 535.09 405.429 534.015 405.429C532.72 405.429 531.567 405.153 530.556 404.6C529.544 404.047 528.755 403.257 528.186 402.23C527.617 401.203 527.333 400.002 527.333 398.628C527.333 397.254 527.609 396.053 528.162 395.026C528.731 393.999 529.521 393.209 530.532 392.656C531.543 392.103 532.704 391.827 534.015 391.827C535.295 391.827 536.432 392.095 537.428 392.633C538.423 393.17 539.197 393.936 539.75 394.931C540.319 395.927 540.603 397.088 540.603 398.415ZM536.456 397.348C536.456 396.653 536.219 396.1 535.745 395.69C535.271 395.279 534.679 395.073 533.968 395.073C533.289 395.073 532.712 395.271 532.238 395.666C531.78 396.061 531.496 396.622 531.385 397.348H536.456Z" fill="#833016"/>
<defs>
<clipPath id="clip0_283_1556">
<rect width="37.9155" height="37.9155" fill="white" transform="translate(53.3613 350.332)"/>
</clipPath>
</defs>
</svg>
