<svg width="86" height="87" viewBox="0 0 86 87" fill="none" xmlns="http://www.w3.org/2000/svg">
<rect y="0.118652" width="86" height="86" rx="14.5763" fill="white" fill-opacity="0.26"/>
<path d="M43.6598 52.7573L56.3154 40.3879C56.5267 40.1815 56.6445 39.9073 56.6445 39.6221C56.6445 39.337 56.5267 39.0628 56.3154 38.8564L56.3011 38.8431C56.1987 38.7427 56.0754 38.6627 55.9388 38.6081C55.8021 38.5535 55.655 38.5253 55.5063 38.5253C55.3576 38.5253 55.2104 38.5535 55.0738 38.6081C54.9371 38.6627 54.8138 38.7427 54.7114 38.8431L42.7947 50.4912L30.8827 38.8431C30.7803 38.7427 30.657 38.6627 30.5204 38.6081C30.3837 38.5535 30.2366 38.5253 30.0879 38.5253C29.9392 38.5253 29.792 38.5535 29.6554 38.6081C29.5188 38.6627 29.3955 38.7427 29.293 38.8431L29.2787 38.8564C29.0675 39.0628 28.9496 39.337 28.9496 39.6221C28.9496 39.9073 29.0675 40.1815 29.2787 40.3879L41.9343 52.7573C42.0456 52.8661 42.1795 52.9527 42.3278 53.0119C42.4761 53.071 42.6357 53.1016 42.7971 53.1016C42.9584 53.1016 43.1181 53.071 43.2664 53.0119C43.4147 52.9527 43.5485 52.8661 43.6598 52.7573Z" fill="white"/>
</svg>
