<svg width="546" height="366" viewBox="0 0 546 366" fill="none" xmlns="http://www.w3.org/2000/svg">
<rect width="377.822" height="251.881" transform="matrix(0.866025 0.5 -0.866025 0.5 218.136 0)" fill="url(#paint0_linear_2014_15276)"/>
<rect width="377.822" height="50.3763" transform="matrix(0.866025 0.5 0 1 0 125.941)" fill="url(#paint1_linear_2014_15276)"/>
<rect width="251.881" height="50.3763" transform="matrix(0.866025 -0.5 0 1 327.203 314.852)" fill="url(#paint2_linear_2014_15276)"/>
<path fill-rule="evenodd" clip-rule="evenodd" d="M196.361 107.059L196.556 12.3359L32.2969 107.171L196.361 107.059ZM278.296 154.364L278.491 59.6411L196.361 107.059L114.232 154.476L278.296 154.364ZM360.231 201.669L360.426 106.946L278.296 154.364L196.167 201.781L360.231 201.669ZM360.231 201.669L442.361 154.251L442.166 248.974L278.102 249.086L360.231 201.669Z" fill="url(#paint3_linear_2014_15276)"/>
<defs>
<linearGradient id="paint0_linear_2014_15276" x1="377.675" y1="251.944" x2="122.254" y2="-91.1385" gradientUnits="userSpaceOnUse">
<stop stop-color="#FAD5FF"/>
<stop offset="1" stop-color="#CFBDFD"/>
</linearGradient>
<linearGradient id="paint1_linear_2014_15276" x1="0" y1="0" x2="175.847" y2="215.323" gradientUnits="userSpaceOnUse">
<stop stop-color="#93AEFC"/>
<stop offset="1" stop-color="#B193FC"/>
</linearGradient>
<linearGradient id="paint2_linear_2014_15276" x1="-7.71532e-05" y1="-0.0461186" x2="152.9" y2="-100.341" gradientUnits="userSpaceOnUse">
<stop stop-color="#A244D7"/>
<stop offset="1" stop-color="#8865E1"/>
</linearGradient>
<linearGradient id="paint3_linear_2014_15276" x1="129.285" y1="59.4001" x2="303.003" y2="329.327" gradientUnits="userSpaceOnUse">
<stop stop-color="#EDD7FF"/>
<stop offset="1" stop-color="#F9E9FF"/>
</linearGradient>
</defs>
</svg>
