<svg width="546" height="366" viewBox="0 0 546 366" fill="none" xmlns="http://www.w3.org/2000/svg">
<path d="M218.136 0L545.339 188.911L327.204 314.852L0 125.941L218.136 0Z" fill="url(#paint0_linear_2455_1854)"/>
<path d="M0 125.941L327.204 314.852L327.204 365.228L1.86376e-05 176.317L0 125.941Z" fill="url(#paint1_linear_2455_1854)"/>
<path d="M327.204 314.852L545.339 188.911L545.339 239.287L327.204 365.228L327.204 314.852Z" fill="url(#paint2_linear_2455_1854)"/>
<path fill-rule="evenodd" clip-rule="evenodd" d="M196.361 107.059L196.556 12.336L32.297 107.171L196.361 107.059ZM278.296 154.364L278.491 59.6411L196.361 107.059L114.232 154.476L278.296 154.364ZM360.231 201.669L360.426 106.946L278.296 154.364L196.167 201.781L360.231 201.669ZM360.231 201.669L442.361 154.251L442.166 248.974L278.102 249.086L360.231 201.669Z" fill="url(#paint3_linear_2455_1854)"/>
<defs>
<linearGradient id="paint0_linear_2455_1854" x1="545.127" y1="365.319" x2="174.283" y2="-130.524" gradientUnits="userSpaceOnUse">
<stop stop-color="#FAD5FF"/>
<stop offset="1" stop-color="#CFBDFD"/>
</linearGradient>
<linearGradient id="paint1_linear_2455_1854" x1="0" y1="0" x2="598.789" y2="145.972" gradientUnits="userSpaceOnUse">
<stop stop-color="#93AEFC"/>
<stop offset="1" stop-color="#B193FC"/>
</linearGradient>
<linearGradient id="paint2_linear_2455_1854" x1="-0.000167042" y1="-0.33436" x2="455.977" y2="-89.6535" gradientUnits="userSpaceOnUse">
<stop stop-color="#A244D7"/>
<stop offset="1" stop-color="#8865E1"/>
</linearGradient>
<linearGradient id="paint3_linear_2455_1854" x1="129.285" y1="59.4001" x2="303.003" y2="329.327" gradientUnits="userSpaceOnUse">
<stop stop-color="#EDD7FF"/>
<stop offset="1" stop-color="#F9E9FF"/>
</linearGradient>
</defs>
</svg>
