<svg width="362" height="642" viewBox="0 0 362 642" fill="none" xmlns="http://www.w3.org/2000/svg">
<path d="M356.161 11.6727C352.937 11.6727 350.323 9.05971 350.323 5.83638C350.323 2.61304 352.937 1.5166e-05 356.161 1.53069e-05C359.386 1.54478e-05 362 2.61304 362 5.83638C362 9.05971 359.386 11.6727 356.161 11.6727Z" fill="#D2D6DB" fill-opacity="0.4"/>
<path d="M356.161 46.6909C352.937 46.6909 350.323 44.0779 350.323 40.8546C350.323 37.6312 352.937 35.0182 356.161 35.0182C359.386 35.0182 362 37.6312 362 40.8546C362 44.0779 359.386 46.6909 356.161 46.6909Z" fill="#D2D6DB" fill-opacity="0.4"/>
<path d="M356.161 81.7091C352.937 81.7091 350.323 79.0961 350.323 75.8727C350.323 72.6494 352.937 70.0364 356.161 70.0364C359.386 70.0364 362 72.6494 362 75.8727C362 79.0961 359.386 81.7091 356.161 81.7091Z" fill="#D2D6DB" fill-opacity="0.4"/>
<path d="M356.161 116.727C352.937 116.727 350.323 114.114 350.323 110.891C350.323 107.668 352.937 105.055 356.161 105.055C359.386 105.055 362 107.668 362 110.891C362 114.114 359.386 116.727 356.161 116.727Z" fill="#D2D6DB" fill-opacity="0.4"/>
<path d="M356.161 151.745C352.937 151.745 350.323 149.132 350.323 145.909C350.323 142.686 352.937 140.073 356.161 140.073C359.386 140.073 362 142.686 362 145.909C362 149.132 359.386 151.745 356.161 151.745Z" fill="#D2D6DB" fill-opacity="0.4"/>
<path d="M356.161 186.764C352.937 186.764 350.323 184.151 350.323 180.927C350.323 177.704 352.937 175.091 356.161 175.091C359.386 175.091 362 177.704 362 180.927C362 184.151 359.386 186.764 356.161 186.764Z" fill="#D2D6DB" fill-opacity="0.4"/>
<path d="M356.161 221.782C352.937 221.782 350.323 219.169 350.323 215.945C350.323 212.722 352.937 210.109 356.161 210.109C359.386 210.109 362 212.722 362 215.945C362 219.169 359.386 221.782 356.161 221.782Z" fill="#D2D6DB" fill-opacity="0.4"/>
<path d="M356.161 256.8C352.937 256.8 350.323 254.187 350.323 250.964C350.323 247.74 352.937 245.127 356.161 245.127C359.386 245.127 362 247.74 362 250.964C362 254.187 359.386 256.8 356.161 256.8Z" fill="#D2D6DB" fill-opacity="0.4"/>
<path d="M356.161 291.818C352.937 291.818 350.323 289.205 350.323 285.982C350.323 282.759 352.937 280.145 356.161 280.145C359.386 280.145 362 282.759 362 285.982C362 289.205 359.386 291.818 356.161 291.818Z" fill="#D2D6DB" fill-opacity="0.4"/>
<path d="M356.161 326.836C352.937 326.836 350.323 324.223 350.323 321C350.323 317.777 352.937 315.164 356.161 315.164C359.386 315.164 362 317.777 362 321C362 324.223 359.386 326.836 356.161 326.836Z" fill="#D2D6DB" fill-opacity="0.4"/>
<path d="M356.161 361.855C352.937 361.855 350.323 359.242 350.323 356.018C350.323 352.795 352.937 350.182 356.161 350.182C359.386 350.182 362 352.795 362 356.018C362 359.242 359.386 361.855 356.161 361.855Z" fill="#D2D6DB" fill-opacity="0.4"/>
<path d="M356.161 396.873C352.937 396.873 350.323 394.26 350.323 391.036C350.323 387.813 352.937 385.2 356.161 385.2C359.386 385.2 362 387.813 362 391.036C362 394.26 359.386 396.873 356.161 396.873Z" fill="#D2D6DB" fill-opacity="0.4"/>
<path d="M356.161 431.891C352.937 431.891 350.323 429.278 350.323 426.055C350.323 422.831 352.937 420.218 356.161 420.218C359.386 420.218 362 422.831 362 426.055C362 429.278 359.386 431.891 356.161 431.891Z" fill="#D2D6DB" fill-opacity="0.4"/>
<path d="M356.161 466.909C352.937 466.909 350.323 464.296 350.323 461.073C350.323 457.849 352.937 455.236 356.161 455.236C359.386 455.236 362 457.849 362 461.073C362 464.296 359.386 466.909 356.161 466.909Z" fill="#D2D6DB" fill-opacity="0.4"/>
<path d="M356.161 501.927C352.937 501.927 350.323 499.314 350.323 496.091C350.323 492.868 352.937 490.255 356.161 490.255C359.386 490.255 362 492.868 362 496.091C362 499.314 359.386 501.927 356.161 501.927Z" fill="#D2D6DB" fill-opacity="0.4"/>
<path d="M356.161 536.945C352.937 536.945 350.323 534.332 350.323 531.109C350.323 527.886 352.937 525.273 356.161 525.273C359.386 525.273 362 527.886 362 531.109C362 534.332 359.386 536.945 356.161 536.945Z" fill="#D2D6DB" fill-opacity="0.4"/>
<path d="M356.161 571.964C352.937 571.964 350.323 569.351 350.323 566.127C350.323 562.904 352.937 560.291 356.161 560.291C359.386 560.291 362 562.904 362 566.127C362 569.351 359.386 571.964 356.161 571.964Z" fill="#D2D6DB" fill-opacity="0.4"/>
<path d="M356.161 606.982C352.937 606.982 350.323 604.369 350.323 601.145C350.323 597.922 352.937 595.309 356.161 595.309C359.386 595.309 362 597.922 362 601.145C362 604.369 359.386 606.982 356.161 606.982Z" fill="#D2D6DB" fill-opacity="0.4"/>
<path d="M356.161 642C352.937 642 350.323 639.387 350.323 636.164C350.323 632.94 352.937 630.327 356.161 630.327C359.386 630.327 362 632.94 362 636.164C362 639.387 359.386 642 356.161 642Z" fill="#D2D6DB" fill-opacity="0.4"/>
<path d="M321.129 11.6727C317.904 11.6727 315.29 9.05971 315.29 5.83638C315.29 2.61304 317.904 1.36353e-05 321.129 1.37762e-05C324.354 1.39171e-05 326.968 2.61304 326.968 5.83638C326.968 9.05971 324.354 11.6727 321.129 11.6727Z" fill="#D2D6DB" fill-opacity="0.4"/>
<path d="M321.129 46.6909C317.904 46.6909 315.29 44.0779 315.29 40.8546C315.29 37.6312 317.904 35.0182 321.129 35.0182C324.354 35.0182 326.968 37.6312 326.968 40.8546C326.968 44.0779 324.354 46.6909 321.129 46.6909Z" fill="#D2D6DB" fill-opacity="0.4"/>
<path d="M321.129 81.7091C317.904 81.7091 315.29 79.0961 315.29 75.8727C315.29 72.6494 317.904 70.0364 321.129 70.0364C324.354 70.0364 326.968 72.6494 326.968 75.8727C326.968 79.0961 324.354 81.7091 321.129 81.7091Z" fill="#D2D6DB" fill-opacity="0.4"/>
<path d="M321.129 116.727C317.904 116.727 315.29 114.114 315.29 110.891C315.29 107.668 317.904 105.055 321.129 105.055C324.354 105.055 326.968 107.668 326.968 110.891C326.968 114.114 324.354 116.727 321.129 116.727Z" fill="#D2D6DB" fill-opacity="0.4"/>
<path d="M321.129 151.745C317.904 151.745 315.29 149.132 315.29 145.909C315.29 142.686 317.904 140.073 321.129 140.073C324.354 140.073 326.968 142.686 326.968 145.909C326.968 149.132 324.354 151.745 321.129 151.745Z" fill="#D2D6DB" fill-opacity="0.4"/>
<path d="M321.129 186.764C317.904 186.764 315.29 184.151 315.29 180.927C315.29 177.704 317.904 175.091 321.129 175.091C324.354 175.091 326.968 177.704 326.968 180.927C326.968 184.151 324.354 186.764 321.129 186.764Z" fill="#D2D6DB" fill-opacity="0.4"/>
<path d="M321.129 221.782C317.904 221.782 315.29 219.169 315.29 215.945C315.29 212.722 317.904 210.109 321.129 210.109C324.354 210.109 326.968 212.722 326.968 215.945C326.968 219.169 324.354 221.782 321.129 221.782Z" fill="#D2D6DB" fill-opacity="0.4"/>
<path d="M321.129 256.8C317.904 256.8 315.29 254.187 315.29 250.964C315.29 247.74 317.904 245.127 321.129 245.127C324.354 245.127 326.968 247.74 326.968 250.964C326.968 254.187 324.354 256.8 321.129 256.8Z" fill="#D2D6DB" fill-opacity="0.4"/>
<path d="M321.129 291.818C317.904 291.818 315.29 289.205 315.29 285.982C315.29 282.758 317.904 280.145 321.129 280.145C324.354 280.145 326.968 282.758 326.968 285.982C326.968 289.205 324.354 291.818 321.129 291.818Z" fill="#D2D6DB" fill-opacity="0.4"/>
<path d="M321.129 326.836C317.904 326.836 315.29 324.223 315.29 321C315.29 317.777 317.904 315.164 321.129 315.164C324.354 315.164 326.968 317.777 326.968 321C326.968 324.223 324.354 326.836 321.129 326.836Z" fill="#D2D6DB" fill-opacity="0.4"/>
<path d="M321.129 361.855C317.904 361.855 315.29 359.242 315.29 356.018C315.29 352.795 317.904 350.182 321.129 350.182C324.354 350.182 326.968 352.795 326.968 356.018C326.968 359.242 324.354 361.855 321.129 361.855Z" fill="#D2D6DB" fill-opacity="0.4"/>
<path d="M321.129 396.873C317.904 396.873 315.29 394.26 315.29 391.036C315.29 387.813 317.904 385.2 321.129 385.2C324.354 385.2 326.968 387.813 326.968 391.036C326.968 394.26 324.354 396.873 321.129 396.873Z" fill="#D2D6DB" fill-opacity="0.4"/>
<path d="M321.129 431.891C317.904 431.891 315.29 429.278 315.29 426.055C315.29 422.831 317.904 420.218 321.129 420.218C324.354 420.218 326.968 422.831 326.968 426.055C326.968 429.278 324.354 431.891 321.129 431.891Z" fill="#D2D6DB" fill-opacity="0.4"/>
<path d="M321.129 466.909C317.904 466.909 315.29 464.296 315.29 461.073C315.29 457.849 317.904 455.236 321.129 455.236C324.354 455.236 326.968 457.849 326.968 461.073C326.968 464.296 324.354 466.909 321.129 466.909Z" fill="#D2D6DB" fill-opacity="0.4"/>
<path d="M321.129 501.927C317.904 501.927 315.29 499.314 315.29 496.091C315.29 492.868 317.904 490.255 321.129 490.255C324.354 490.255 326.968 492.868 326.968 496.091C326.968 499.314 324.354 501.927 321.129 501.927Z" fill="#D2D6DB" fill-opacity="0.4"/>
<path d="M321.129 536.945C317.904 536.945 315.29 534.332 315.29 531.109C315.29 527.886 317.904 525.273 321.129 525.273C324.354 525.273 326.968 527.886 326.968 531.109C326.968 534.332 324.354 536.945 321.129 536.945Z" fill="#D2D6DB" fill-opacity="0.4"/>
<path d="M321.129 571.964C317.904 571.964 315.29 569.351 315.29 566.127C315.29 562.904 317.904 560.291 321.129 560.291C324.354 560.291 326.968 562.904 326.968 566.127C326.968 569.351 324.354 571.964 321.129 571.964Z" fill="#D2D6DB" fill-opacity="0.4"/>
<path d="M321.129 606.982C317.904 606.982 315.29 604.369 315.29 601.145C315.29 597.922 317.904 595.309 321.129 595.309C324.354 595.309 326.968 597.922 326.968 601.145C326.968 604.369 324.354 606.982 321.129 606.982Z" fill="#D2D6DB" fill-opacity="0.4"/>
<path d="M321.129 642C317.904 642 315.29 639.387 315.29 636.164C315.29 632.94 317.904 630.327 321.129 630.327C324.354 630.327 326.968 632.94 326.968 636.164C326.968 639.387 324.354 642 321.129 642Z" fill="#D2D6DB" fill-opacity="0.4"/>
<path d="M286.097 11.6727C282.872 11.6727 280.258 9.05971 280.258 5.83638C280.258 2.61304 282.872 1.21047e-05 286.097 1.22455e-05C289.321 1.23864e-05 291.935 2.61304 291.935 5.83638C291.935 9.05971 289.321 11.6727 286.097 11.6727Z" fill="#D2D6DB" fill-opacity="0.4"/>
<path d="M286.097 46.6909C282.872 46.6909 280.258 44.0779 280.258 40.8546C280.258 37.6312 282.872 35.0182 286.097 35.0182C289.321 35.0182 291.935 37.6312 291.935 40.8546C291.935 44.0779 289.321 46.6909 286.097 46.6909Z" fill="#D2D6DB" fill-opacity="0.4"/>
<path d="M286.097 81.7091C282.872 81.7091 280.258 79.0961 280.258 75.8727C280.258 72.6494 282.872 70.0364 286.097 70.0364C289.321 70.0364 291.935 72.6494 291.935 75.8727C291.935 79.0961 289.321 81.7091 286.097 81.7091Z" fill="#D2D6DB" fill-opacity="0.4"/>
<path d="M286.097 116.727C282.872 116.727 280.258 114.114 280.258 110.891C280.258 107.668 282.872 105.055 286.097 105.055C289.321 105.055 291.935 107.668 291.935 110.891C291.935 114.114 289.321 116.727 286.097 116.727Z" fill="#D2D6DB" fill-opacity="0.4"/>
<path d="M286.097 151.745C282.872 151.745 280.258 149.132 280.258 145.909C280.258 142.686 282.872 140.073 286.097 140.073C289.321 140.073 291.935 142.686 291.935 145.909C291.935 149.132 289.321 151.745 286.097 151.745Z" fill="#D2D6DB" fill-opacity="0.4"/>
<path d="M286.097 186.764C282.872 186.764 280.258 184.151 280.258 180.927C280.258 177.704 282.872 175.091 286.097 175.091C289.321 175.091 291.935 177.704 291.935 180.927C291.935 184.151 289.321 186.764 286.097 186.764Z" fill="#D2D6DB" fill-opacity="0.4"/>
<path d="M286.097 221.782C282.872 221.782 280.258 219.169 280.258 215.945C280.258 212.722 282.872 210.109 286.097 210.109C289.321 210.109 291.935 212.722 291.935 215.945C291.935 219.169 289.321 221.782 286.097 221.782Z" fill="#D2D6DB" fill-opacity="0.4"/>
<path d="M286.097 256.8C282.872 256.8 280.258 254.187 280.258 250.964C280.258 247.74 282.872 245.127 286.097 245.127C289.321 245.127 291.935 247.74 291.935 250.964C291.935 254.187 289.321 256.8 286.097 256.8Z" fill="#D2D6DB" fill-opacity="0.4"/>
<path d="M286.097 291.818C282.872 291.818 280.258 289.205 280.258 285.982C280.258 282.758 282.872 280.145 286.097 280.145C289.321 280.145 291.935 282.758 291.935 285.982C291.935 289.205 289.321 291.818 286.097 291.818Z" fill="#D2D6DB" fill-opacity="0.4"/>
<path d="M286.097 326.836C282.872 326.836 280.258 324.223 280.258 321C280.258 317.777 282.872 315.164 286.097 315.164C289.321 315.164 291.935 317.777 291.935 321C291.935 324.223 289.321 326.836 286.097 326.836Z" fill="#D2D6DB" fill-opacity="0.4"/>
<path d="M286.097 361.855C282.872 361.855 280.258 359.242 280.258 356.018C280.258 352.795 282.872 350.182 286.097 350.182C289.321 350.182 291.935 352.795 291.935 356.018C291.935 359.242 289.321 361.855 286.097 361.855Z" fill="#D2D6DB" fill-opacity="0.4"/>
<path d="M286.097 396.873C282.872 396.873 280.258 394.26 280.258 391.036C280.258 387.813 282.872 385.2 286.097 385.2C289.321 385.2 291.935 387.813 291.935 391.036C291.935 394.26 289.321 396.873 286.097 396.873Z" fill="#D2D6DB" fill-opacity="0.4"/>
<path d="M286.097 431.891C282.872 431.891 280.258 429.278 280.258 426.055C280.258 422.831 282.872 420.218 286.097 420.218C289.321 420.218 291.935 422.831 291.935 426.055C291.935 429.278 289.321 431.891 286.097 431.891Z" fill="#D2D6DB" fill-opacity="0.4"/>
<path d="M286.097 466.909C282.872 466.909 280.258 464.296 280.258 461.073C280.258 457.849 282.872 455.236 286.097 455.236C289.321 455.236 291.935 457.849 291.935 461.073C291.935 464.296 289.321 466.909 286.097 466.909Z" fill="#D2D6DB" fill-opacity="0.4"/>
<path d="M286.097 501.927C282.872 501.927 280.258 499.314 280.258 496.091C280.258 492.868 282.872 490.255 286.097 490.255C289.321 490.255 291.935 492.868 291.935 496.091C291.935 499.314 289.321 501.927 286.097 501.927Z" fill="#D2D6DB" fill-opacity="0.4"/>
<path d="M286.097 536.945C282.872 536.945 280.258 534.332 280.258 531.109C280.258 527.886 282.872 525.273 286.097 525.273C289.321 525.273 291.935 527.886 291.935 531.109C291.935 534.332 289.321 536.945 286.097 536.945Z" fill="#D2D6DB" fill-opacity="0.4"/>
<path d="M286.097 571.964C282.872 571.964 280.258 569.351 280.258 566.127C280.258 562.904 282.872 560.291 286.097 560.291C289.321 560.291 291.935 562.904 291.935 566.127C291.935 569.351 289.321 571.964 286.097 571.964Z" fill="#D2D6DB" fill-opacity="0.4"/>
<path d="M286.097 606.982C282.872 606.982 280.258 604.369 280.258 601.145C280.258 597.922 282.872 595.309 286.097 595.309C289.321 595.309 291.935 597.922 291.935 601.145C291.935 604.369 289.321 606.982 286.097 606.982Z" fill="#D2D6DB" fill-opacity="0.4"/>
<path d="M286.097 642C282.872 642 280.258 639.387 280.258 636.164C280.258 632.94 282.872 630.327 286.097 630.327C289.321 630.327 291.935 632.94 291.935 636.164C291.935 639.387 289.321 642 286.097 642Z" fill="#D2D6DB" fill-opacity="0.4"/>
<path d="M251.065 11.6727C247.84 11.6727 245.226 9.05971 245.226 5.83637C245.226 2.61304 247.84 1.0574e-05 251.065 1.07149e-05C254.289 1.08557e-05 256.903 2.61304 256.903 5.83638C256.903 9.05971 254.289 11.6727 251.065 11.6727Z" fill="#D2D6DB" fill-opacity="0.4"/>
<path d="M251.065 46.6909C247.84 46.6909 245.226 44.0779 245.226 40.8546C245.226 37.6312 247.84 35.0182 251.065 35.0182C254.289 35.0182 256.903 37.6312 256.903 40.8546C256.903 44.0779 254.289 46.6909 251.065 46.6909Z" fill="#D2D6DB" fill-opacity="0.4"/>
<path d="M251.065 81.7091C247.84 81.7091 245.226 79.0961 245.226 75.8727C245.226 72.6494 247.84 70.0364 251.065 70.0364C254.289 70.0364 256.903 72.6494 256.903 75.8727C256.903 79.0961 254.289 81.7091 251.065 81.7091Z" fill="#D2D6DB" fill-opacity="0.4"/>
<path d="M251.065 116.727C247.84 116.727 245.226 114.114 245.226 110.891C245.226 107.668 247.84 105.055 251.065 105.055C254.289 105.055 256.903 107.668 256.903 110.891C256.903 114.114 254.289 116.727 251.065 116.727Z" fill="#D2D6DB" fill-opacity="0.4"/>
<path d="M251.065 151.745C247.84 151.745 245.226 149.132 245.226 145.909C245.226 142.686 247.84 140.073 251.065 140.073C254.289 140.073 256.903 142.686 256.903 145.909C256.903 149.132 254.289 151.745 251.065 151.745Z" fill="#D2D6DB" fill-opacity="0.4"/>
<path d="M251.065 186.764C247.84 186.764 245.226 184.151 245.226 180.927C245.226 177.704 247.84 175.091 251.065 175.091C254.289 175.091 256.903 177.704 256.903 180.927C256.903 184.151 254.289 186.764 251.065 186.764Z" fill="#D2D6DB" fill-opacity="0.4"/>
<path d="M251.065 221.782C247.84 221.782 245.226 219.169 245.226 215.945C245.226 212.722 247.84 210.109 251.065 210.109C254.289 210.109 256.903 212.722 256.903 215.945C256.903 219.169 254.289 221.782 251.065 221.782Z" fill="#D2D6DB" fill-opacity="0.4"/>
<path d="M251.065 256.8C247.84 256.8 245.226 254.187 245.226 250.964C245.226 247.74 247.84 245.127 251.065 245.127C254.289 245.127 256.903 247.74 256.903 250.964C256.903 254.187 254.289 256.8 251.065 256.8Z" fill="#D2D6DB" fill-opacity="0.4"/>
<path d="M251.065 291.818C247.84 291.818 245.226 289.205 245.226 285.982C245.226 282.758 247.84 280.145 251.065 280.145C254.289 280.145 256.903 282.758 256.903 285.982C256.903 289.205 254.289 291.818 251.065 291.818Z" fill="#D2D6DB" fill-opacity="0.4"/>
<path d="M251.065 326.836C247.84 326.836 245.226 324.223 245.226 321C245.226 317.777 247.84 315.164 251.065 315.164C254.289 315.164 256.903 317.777 256.903 321C256.903 324.223 254.289 326.836 251.065 326.836Z" fill="#D2D6DB" fill-opacity="0.4"/>
<path d="M251.065 361.855C247.84 361.855 245.226 359.242 245.226 356.018C245.226 352.795 247.84 350.182 251.065 350.182C254.289 350.182 256.903 352.795 256.903 356.018C256.903 359.242 254.289 361.855 251.065 361.855Z" fill="#D2D6DB" fill-opacity="0.4"/>
<path d="M251.065 396.873C247.84 396.873 245.226 394.26 245.226 391.036C245.226 387.813 247.84 385.2 251.065 385.2C254.289 385.2 256.903 387.813 256.903 391.036C256.903 394.26 254.289 396.873 251.065 396.873Z" fill="#D2D6DB" fill-opacity="0.4"/>
<path d="M251.065 431.891C247.84 431.891 245.226 429.278 245.226 426.055C245.226 422.831 247.84 420.218 251.065 420.218C254.289 420.218 256.903 422.831 256.903 426.055C256.903 429.278 254.289 431.891 251.065 431.891Z" fill="#D2D6DB" fill-opacity="0.4"/>
<path d="M251.065 466.909C247.84 466.909 245.226 464.296 245.226 461.073C245.226 457.849 247.84 455.236 251.065 455.236C254.289 455.236 256.903 457.849 256.903 461.073C256.903 464.296 254.289 466.909 251.065 466.909Z" fill="#D2D6DB" fill-opacity="0.4"/>
<path d="M251.065 501.927C247.84 501.927 245.226 499.314 245.226 496.091C245.226 492.868 247.84 490.255 251.065 490.255C254.289 490.255 256.903 492.868 256.903 496.091C256.903 499.314 254.289 501.927 251.065 501.927Z" fill="#D2D6DB" fill-opacity="0.4"/>
<path d="M251.065 536.945C247.84 536.945 245.226 534.332 245.226 531.109C245.226 527.886 247.84 525.273 251.065 525.273C254.289 525.273 256.903 527.886 256.903 531.109C256.903 534.332 254.289 536.945 251.065 536.945Z" fill="#D2D6DB" fill-opacity="0.4"/>
<path d="M251.065 571.964C247.84 571.964 245.226 569.351 245.226 566.127C245.226 562.904 247.84 560.291 251.065 560.291C254.289 560.291 256.903 562.904 256.903 566.127C256.903 569.351 254.289 571.964 251.065 571.964Z" fill="#D2D6DB" fill-opacity="0.4"/>
<path d="M251.065 606.982C247.84 606.982 245.226 604.369 245.226 601.145C245.226 597.922 247.84 595.309 251.065 595.309C254.289 595.309 256.903 597.922 256.903 601.145C256.903 604.369 254.289 606.982 251.065 606.982Z" fill="#D2D6DB" fill-opacity="0.4"/>
<path d="M251.065 642C247.84 642 245.226 639.387 245.226 636.164C245.226 632.94 247.84 630.327 251.065 630.327C254.289 630.327 256.903 632.94 256.903 636.164C256.903 639.387 254.289 642 251.065 642Z" fill="#D2D6DB" fill-opacity="0.4"/>
<path d="M216.032 11.6727C212.808 11.6727 210.194 9.05971 210.194 5.83637C210.194 2.61304 212.808 9.04326e-06 216.032 9.18416e-06C219.257 9.32506e-06 221.871 2.61304 221.871 5.83637C221.871 9.05971 219.257 11.6727 216.032 11.6727Z" fill="#D2D6DB" fill-opacity="0.4"/>
<path d="M216.032 46.6909C212.808 46.6909 210.194 44.0779 210.194 40.8546C210.194 37.6312 212.808 35.0182 216.032 35.0182C219.257 35.0182 221.871 37.6312 221.871 40.8546C221.871 44.0779 219.257 46.6909 216.032 46.6909Z" fill="#D2D6DB" fill-opacity="0.4"/>
<path d="M216.032 81.7091C212.808 81.7091 210.194 79.0961 210.194 75.8727C210.194 72.6494 212.808 70.0364 216.032 70.0364C219.257 70.0364 221.871 72.6494 221.871 75.8727C221.871 79.0961 219.257 81.7091 216.032 81.7091Z" fill="#D2D6DB" fill-opacity="0.4"/>
<path d="M216.032 116.727C212.808 116.727 210.194 114.114 210.194 110.891C210.194 107.668 212.808 105.055 216.032 105.055C219.257 105.055 221.871 107.668 221.871 110.891C221.871 114.114 219.257 116.727 216.032 116.727Z" fill="#D2D6DB" fill-opacity="0.4"/>
<path d="M216.032 151.745C212.808 151.745 210.194 149.132 210.194 145.909C210.194 142.686 212.808 140.073 216.032 140.073C219.257 140.073 221.871 142.686 221.871 145.909C221.871 149.132 219.257 151.745 216.032 151.745Z" fill="#D2D6DB" fill-opacity="0.4"/>
<path d="M216.032 186.764C212.808 186.764 210.194 184.151 210.194 180.927C210.194 177.704 212.808 175.091 216.032 175.091C219.257 175.091 221.871 177.704 221.871 180.927C221.871 184.151 219.257 186.764 216.032 186.764Z" fill="#D2D6DB" fill-opacity="0.4"/>
<path d="M216.032 221.782C212.808 221.782 210.194 219.169 210.194 215.945C210.194 212.722 212.808 210.109 216.032 210.109C219.257 210.109 221.871 212.722 221.871 215.945C221.871 219.169 219.257 221.782 216.032 221.782Z" fill="#D2D6DB" fill-opacity="0.4"/>
<path d="M216.032 256.8C212.808 256.8 210.194 254.187 210.194 250.964C210.194 247.74 212.808 245.127 216.032 245.127C219.257 245.127 221.871 247.74 221.871 250.964C221.871 254.187 219.257 256.8 216.032 256.8Z" fill="#D2D6DB" fill-opacity="0.4"/>
<path d="M216.032 291.818C212.808 291.818 210.194 289.205 210.194 285.982C210.194 282.758 212.808 280.145 216.032 280.145C219.257 280.145 221.871 282.758 221.871 285.982C221.871 289.205 219.257 291.818 216.032 291.818Z" fill="#D2D6DB" fill-opacity="0.4"/>
<path d="M216.032 326.836C212.808 326.836 210.194 324.223 210.194 321C210.194 317.777 212.808 315.164 216.032 315.164C219.257 315.164 221.871 317.777 221.871 321C221.871 324.223 219.257 326.836 216.032 326.836Z" fill="#D2D6DB" fill-opacity="0.4"/>
<path d="M216.032 361.855C212.808 361.855 210.194 359.242 210.194 356.018C210.194 352.795 212.808 350.182 216.032 350.182C219.257 350.182 221.871 352.795 221.871 356.018C221.871 359.242 219.257 361.855 216.032 361.855Z" fill="#D2D6DB" fill-opacity="0.4"/>
<path d="M216.032 396.873C212.808 396.873 210.194 394.26 210.194 391.036C210.194 387.813 212.808 385.2 216.032 385.2C219.257 385.2 221.871 387.813 221.871 391.036C221.871 394.26 219.257 396.873 216.032 396.873Z" fill="#D2D6DB" fill-opacity="0.4"/>
<path d="M216.032 431.891C212.808 431.891 210.194 429.278 210.194 426.055C210.194 422.831 212.808 420.218 216.032 420.218C219.257 420.218 221.871 422.831 221.871 426.055C221.871 429.278 219.257 431.891 216.032 431.891Z" fill="#D2D6DB" fill-opacity="0.4"/>
<path d="M216.032 466.909C212.808 466.909 210.194 464.296 210.194 461.073C210.194 457.849 212.808 455.236 216.032 455.236C219.257 455.236 221.871 457.849 221.871 461.073C221.871 464.296 219.257 466.909 216.032 466.909Z" fill="#D2D6DB" fill-opacity="0.4"/>
<path d="M216.032 501.927C212.808 501.927 210.194 499.314 210.194 496.091C210.194 492.868 212.808 490.255 216.032 490.255C219.257 490.255 221.871 492.868 221.871 496.091C221.871 499.314 219.257 501.927 216.032 501.927Z" fill="#D2D6DB" fill-opacity="0.4"/>
<path d="M216.032 536.945C212.808 536.945 210.194 534.332 210.194 531.109C210.194 527.886 212.808 525.273 216.032 525.273C219.257 525.273 221.871 527.886 221.871 531.109C221.871 534.332 219.257 536.945 216.032 536.945Z" fill="#D2D6DB" fill-opacity="0.4"/>
<path d="M216.032 571.964C212.808 571.964 210.194 569.351 210.194 566.127C210.194 562.904 212.808 560.291 216.032 560.291C219.257 560.291 221.871 562.904 221.871 566.127C221.871 569.351 219.257 571.964 216.032 571.964Z" fill="#D2D6DB" fill-opacity="0.4"/>
<path d="M216.032 606.982C212.808 606.982 210.194 604.369 210.194 601.145C210.194 597.922 212.808 595.309 216.032 595.309C219.257 595.309 221.871 597.922 221.871 601.145C221.871 604.369 219.257 606.982 216.032 606.982Z" fill="#D2D6DB" fill-opacity="0.4"/>
<path d="M216.032 642C212.808 642 210.194 639.387 210.194 636.164C210.194 632.94 212.808 630.327 216.032 630.327C219.257 630.327 221.871 632.94 221.871 636.164C221.871 639.387 219.257 642 216.032 642Z" fill="#D2D6DB" fill-opacity="0.4"/>
<path d="M181 11.6727C177.775 11.6727 175.161 9.05971 175.161 5.83637C175.161 2.61304 177.775 7.51257e-06 181 7.65347e-06C184.225 7.79436e-06 186.839 2.61304 186.839 5.83637C186.839 9.05971 184.225 11.6727 181 11.6727Z" fill="#D2D6DB" fill-opacity="0.4"/>
<path d="M181 46.6909C177.775 46.6909 175.161 44.0779 175.161 40.8546C175.161 37.6312 177.775 35.0182 181 35.0182C184.225 35.0182 186.839 37.6312 186.839 40.8546C186.839 44.0779 184.225 46.6909 181 46.6909Z" fill="#D2D6DB" fill-opacity="0.4"/>
<path d="M181 81.7091C177.775 81.7091 175.161 79.0961 175.161 75.8727C175.161 72.6494 177.775 70.0364 181 70.0364C184.225 70.0364 186.839 72.6494 186.839 75.8727C186.839 79.0961 184.225 81.7091 181 81.7091Z" fill="#D2D6DB" fill-opacity="0.4"/>
<path d="M181 116.727C177.775 116.727 175.161 114.114 175.161 110.891C175.161 107.668 177.775 105.055 181 105.055C184.225 105.055 186.839 107.668 186.839 110.891C186.839 114.114 184.225 116.727 181 116.727Z" fill="#D2D6DB" fill-opacity="0.4"/>
<path d="M181 151.745C177.775 151.745 175.161 149.132 175.161 145.909C175.161 142.686 177.775 140.073 181 140.073C184.225 140.073 186.839 142.686 186.839 145.909C186.839 149.132 184.225 151.745 181 151.745Z" fill="#D2D6DB" fill-opacity="0.4"/>
<path d="M181 186.764C177.775 186.764 175.161 184.151 175.161 180.927C175.161 177.704 177.775 175.091 181 175.091C184.225 175.091 186.839 177.704 186.839 180.927C186.839 184.151 184.225 186.764 181 186.764Z" fill="#D2D6DB" fill-opacity="0.4"/>
<path d="M181 221.782C177.775 221.782 175.161 219.169 175.161 215.945C175.161 212.722 177.775 210.109 181 210.109C184.225 210.109 186.839 212.722 186.839 215.945C186.839 219.169 184.225 221.782 181 221.782Z" fill="#D2D6DB" fill-opacity="0.4"/>
<path d="M181 256.8C177.775 256.8 175.161 254.187 175.161 250.964C175.161 247.74 177.775 245.127 181 245.127C184.225 245.127 186.839 247.74 186.839 250.964C186.839 254.187 184.225 256.8 181 256.8Z" fill="#D2D6DB" fill-opacity="0.4"/>
<path d="M181 291.818C177.775 291.818 175.161 289.205 175.161 285.982C175.161 282.758 177.775 280.145 181 280.145C184.225 280.145 186.839 282.758 186.839 285.982C186.839 289.205 184.225 291.818 181 291.818Z" fill="#D2D6DB" fill-opacity="0.4"/>
<path d="M181 326.836C177.775 326.836 175.161 324.223 175.161 321C175.161 317.777 177.775 315.164 181 315.164C184.225 315.164 186.839 317.777 186.839 321C186.839 324.223 184.225 326.836 181 326.836Z" fill="#D2D6DB" fill-opacity="0.4"/>
<path d="M181 361.855C177.775 361.855 175.161 359.242 175.161 356.018C175.161 352.795 177.775 350.182 181 350.182C184.225 350.182 186.839 352.795 186.839 356.018C186.839 359.242 184.225 361.855 181 361.855Z" fill="#D2D6DB" fill-opacity="0.4"/>
<path d="M181 396.873C177.775 396.873 175.161 394.26 175.161 391.036C175.161 387.813 177.775 385.2 181 385.2C184.225 385.2 186.839 387.813 186.839 391.036C186.839 394.26 184.225 396.873 181 396.873Z" fill="#D2D6DB" fill-opacity="0.4"/>
<path d="M181 431.891C177.775 431.891 175.161 429.278 175.161 426.055C175.161 422.831 177.775 420.218 181 420.218C184.225 420.218 186.839 422.831 186.839 426.055C186.839 429.278 184.225 431.891 181 431.891Z" fill="#D2D6DB" fill-opacity="0.4"/>
<path d="M181 466.909C177.775 466.909 175.161 464.296 175.161 461.073C175.161 457.849 177.775 455.236 181 455.236C184.225 455.236 186.839 457.849 186.839 461.073C186.839 464.296 184.225 466.909 181 466.909Z" fill="#D2D6DB" fill-opacity="0.4"/>
<path d="M181 501.927C177.775 501.927 175.161 499.314 175.161 496.091C175.161 492.868 177.775 490.255 181 490.255C184.225 490.255 186.839 492.868 186.839 496.091C186.839 499.314 184.225 501.927 181 501.927Z" fill="#D2D6DB" fill-opacity="0.4"/>
<path d="M181 536.945C177.775 536.945 175.161 534.332 175.161 531.109C175.161 527.886 177.775 525.273 181 525.273C184.225 525.273 186.839 527.886 186.839 531.109C186.839 534.332 184.225 536.945 181 536.945Z" fill="#D2D6DB" fill-opacity="0.4"/>
<path d="M181 571.964C177.775 571.964 175.161 569.351 175.161 566.127C175.161 562.904 177.775 560.291 181 560.291C184.225 560.291 186.839 562.904 186.839 566.127C186.839 569.351 184.225 571.964 181 571.964Z" fill="#D2D6DB" fill-opacity="0.4"/>
<path d="M181 606.982C177.775 606.982 175.161 604.369 175.161 601.145C175.161 597.922 177.775 595.309 181 595.309C184.225 595.309 186.839 597.922 186.839 601.145C186.839 604.369 184.225 606.982 181 606.982Z" fill="#D2D6DB" fill-opacity="0.4"/>
<path d="M181 642C177.775 642 175.161 639.387 175.161 636.164C175.161 632.94 177.775 630.327 181 630.327C184.225 630.327 186.839 632.94 186.839 636.164C186.839 639.387 184.225 642 181 642Z" fill="#D2D6DB" fill-opacity="0.4"/>
<path d="M145.968 11.6727C142.743 11.6727 140.129 9.0597 140.129 5.83637C140.129 2.61304 142.743 5.98188e-06 145.968 6.12277e-06C149.192 6.26367e-06 151.806 2.61304 151.806 5.83637C151.806 9.05971 149.192 11.6727 145.968 11.6727Z" fill="#D2D6DB" fill-opacity="0.4"/>
<path d="M145.968 46.6909C142.743 46.6909 140.129 44.0779 140.129 40.8546C140.129 37.6312 142.743 35.0182 145.968 35.0182C149.192 35.0182 151.806 37.6312 151.806 40.8546C151.806 44.0779 149.192 46.6909 145.968 46.6909Z" fill="#D2D6DB" fill-opacity="0.4"/>
<path d="M145.968 81.7091C142.743 81.7091 140.129 79.0961 140.129 75.8727C140.129 72.6494 142.743 70.0364 145.968 70.0364C149.192 70.0364 151.806 72.6494 151.806 75.8727C151.806 79.0961 149.192 81.7091 145.968 81.7091Z" fill="#D2D6DB" fill-opacity="0.4"/>
<path d="M145.968 116.727C142.743 116.727 140.129 114.114 140.129 110.891C140.129 107.668 142.743 105.055 145.968 105.055C149.192 105.055 151.806 107.668 151.806 110.891C151.806 114.114 149.192 116.727 145.968 116.727Z" fill="#D2D6DB" fill-opacity="0.4"/>
<path d="M145.968 151.745C142.743 151.745 140.129 149.132 140.129 145.909C140.129 142.686 142.743 140.073 145.968 140.073C149.192 140.073 151.806 142.686 151.806 145.909C151.806 149.132 149.192 151.745 145.968 151.745Z" fill="#D2D6DB" fill-opacity="0.4"/>
<path d="M145.968 186.764C142.743 186.764 140.129 184.151 140.129 180.927C140.129 177.704 142.743 175.091 145.968 175.091C149.192 175.091 151.806 177.704 151.806 180.927C151.806 184.151 149.192 186.764 145.968 186.764Z" fill="#D2D6DB" fill-opacity="0.4"/>
<path d="M145.968 221.782C142.743 221.782 140.129 219.169 140.129 215.945C140.129 212.722 142.743 210.109 145.968 210.109C149.192 210.109 151.806 212.722 151.806 215.945C151.806 219.169 149.192 221.782 145.968 221.782Z" fill="#D2D6DB" fill-opacity="0.4"/>
<path d="M145.968 256.8C142.743 256.8 140.129 254.187 140.129 250.964C140.129 247.74 142.743 245.127 145.968 245.127C149.192 245.127 151.806 247.74 151.806 250.964C151.806 254.187 149.192 256.8 145.968 256.8Z" fill="#D2D6DB" fill-opacity="0.4"/>
<path d="M145.968 291.818C142.743 291.818 140.129 289.205 140.129 285.982C140.129 282.758 142.743 280.145 145.968 280.145C149.192 280.145 151.806 282.758 151.806 285.982C151.806 289.205 149.192 291.818 145.968 291.818Z" fill="#D2D6DB" fill-opacity="0.4"/>
<path d="M145.968 326.836C142.743 326.836 140.129 324.223 140.129 321C140.129 317.777 142.743 315.164 145.968 315.164C149.192 315.164 151.806 317.777 151.806 321C151.806 324.223 149.192 326.836 145.968 326.836Z" fill="#D2D6DB" fill-opacity="0.4"/>
<path d="M145.968 361.855C142.743 361.855 140.129 359.242 140.129 356.018C140.129 352.795 142.743 350.182 145.968 350.182C149.192 350.182 151.806 352.795 151.806 356.018C151.806 359.242 149.192 361.855 145.968 361.855Z" fill="#D2D6DB" fill-opacity="0.4"/>
<path d="M145.968 396.873C142.743 396.873 140.129 394.26 140.129 391.036C140.129 387.813 142.743 385.2 145.968 385.2C149.192 385.2 151.806 387.813 151.806 391.036C151.806 394.26 149.192 396.873 145.968 396.873Z" fill="#D2D6DB" fill-opacity="0.4"/>
<path d="M145.968 431.891C142.743 431.891 140.129 429.278 140.129 426.055C140.129 422.831 142.743 420.218 145.968 420.218C149.192 420.218 151.806 422.831 151.806 426.055C151.806 429.278 149.192 431.891 145.968 431.891Z" fill="#D2D6DB" fill-opacity="0.4"/>
<path d="M145.968 466.909C142.743 466.909 140.129 464.296 140.129 461.073C140.129 457.849 142.743 455.236 145.968 455.236C149.192 455.236 151.806 457.849 151.806 461.073C151.806 464.296 149.192 466.909 145.968 466.909Z" fill="#D2D6DB" fill-opacity="0.4"/>
<path d="M145.968 501.927C142.743 501.927 140.129 499.314 140.129 496.091C140.129 492.868 142.743 490.255 145.968 490.255C149.192 490.255 151.806 492.868 151.806 496.091C151.806 499.314 149.192 501.927 145.968 501.927Z" fill="#D2D6DB" fill-opacity="0.4"/>
<path d="M145.968 536.945C142.743 536.945 140.129 534.332 140.129 531.109C140.129 527.886 142.743 525.273 145.968 525.273C149.192 525.273 151.806 527.886 151.806 531.109C151.806 534.332 149.192 536.945 145.968 536.945Z" fill="#D2D6DB" fill-opacity="0.4"/>
<path d="M145.968 571.964C142.743 571.964 140.129 569.351 140.129 566.127C140.129 562.904 142.743 560.291 145.968 560.291C149.192 560.291 151.806 562.904 151.806 566.127C151.806 569.351 149.192 571.964 145.968 571.964Z" fill="#D2D6DB" fill-opacity="0.4"/>
<path d="M145.968 606.982C142.743 606.982 140.129 604.369 140.129 601.145C140.129 597.922 142.743 595.309 145.968 595.309C149.192 595.309 151.806 597.922 151.806 601.145C151.806 604.369 149.192 606.982 145.968 606.982Z" fill="#D2D6DB" fill-opacity="0.4"/>
<path d="M145.968 642C142.743 642 140.129 639.387 140.129 636.164C140.129 632.94 142.743 630.327 145.968 630.327C149.192 630.327 151.806 632.94 151.806 636.164C151.806 639.387 149.192 642 145.968 642Z" fill="#D2D6DB" fill-opacity="0.4"/>
<path d="M110.936 11.6727C107.711 11.6727 105.097 9.0597 105.097 5.83637C105.097 2.61303 107.711 4.45118e-06 110.936 4.59208e-06C114.16 4.73298e-06 116.774 2.61303 116.774 5.83637C116.774 9.0597 114.16 11.6727 110.936 11.6727Z" fill="#D2D6DB" fill-opacity="0.4"/>
<path d="M110.935 46.6909C107.711 46.6909 105.097 44.0779 105.097 40.8545C105.097 37.6312 107.711 35.0182 110.936 35.0182C114.16 35.0182 116.774 37.6312 116.774 40.8545C116.774 44.0779 114.16 46.6909 110.935 46.6909Z" fill="#D2D6DB" fill-opacity="0.4"/>
<path d="M110.935 81.7091C107.711 81.7091 105.097 79.0961 105.097 75.8727C105.097 72.6494 107.711 70.0364 110.935 70.0364C114.16 70.0364 116.774 72.6494 116.774 75.8727C116.774 79.0961 114.16 81.7091 110.935 81.7091Z" fill="#D2D6DB" fill-opacity="0.4"/>
<path d="M110.935 116.727C107.711 116.727 105.097 114.114 105.097 110.891C105.097 107.668 107.711 105.055 110.935 105.055C114.16 105.055 116.774 107.668 116.774 110.891C116.774 114.114 114.16 116.727 110.935 116.727Z" fill="#D2D6DB" fill-opacity="0.4"/>
<path d="M110.935 151.745C107.711 151.745 105.097 149.132 105.097 145.909C105.097 142.686 107.711 140.073 110.935 140.073C114.16 140.073 116.774 142.686 116.774 145.909C116.774 149.132 114.16 151.745 110.935 151.745Z" fill="#D2D6DB" fill-opacity="0.4"/>
<path d="M110.935 186.764C107.711 186.764 105.097 184.151 105.097 180.927C105.097 177.704 107.711 175.091 110.935 175.091C114.16 175.091 116.774 177.704 116.774 180.927C116.774 184.151 114.16 186.764 110.935 186.764Z" fill="#D2D6DB" fill-opacity="0.4"/>
<path d="M110.935 221.782C107.711 221.782 105.097 219.169 105.097 215.945C105.097 212.722 107.711 210.109 110.935 210.109C114.16 210.109 116.774 212.722 116.774 215.945C116.774 219.169 114.16 221.782 110.935 221.782Z" fill="#D2D6DB" fill-opacity="0.4"/>
<path d="M110.935 256.8C107.711 256.8 105.097 254.187 105.097 250.964C105.097 247.74 107.711 245.127 110.935 245.127C114.16 245.127 116.774 247.74 116.774 250.964C116.774 254.187 114.16 256.8 110.935 256.8Z" fill="#D2D6DB" fill-opacity="0.4"/>
<path d="M110.935 291.818C107.711 291.818 105.097 289.205 105.097 285.982C105.097 282.758 107.711 280.145 110.935 280.145C114.16 280.145 116.774 282.758 116.774 285.982C116.774 289.205 114.16 291.818 110.935 291.818Z" fill="#D2D6DB" fill-opacity="0.4"/>
<path d="M110.935 326.836C107.711 326.836 105.097 324.223 105.097 321C105.097 317.777 107.711 315.164 110.935 315.164C114.16 315.164 116.774 317.777 116.774 321C116.774 324.223 114.16 326.836 110.935 326.836Z" fill="#D2D6DB" fill-opacity="0.4"/>
<path d="M110.935 361.855C107.711 361.855 105.097 359.242 105.097 356.018C105.097 352.795 107.711 350.182 110.935 350.182C114.16 350.182 116.774 352.795 116.774 356.018C116.774 359.242 114.16 361.855 110.935 361.855Z" fill="#D2D6DB" fill-opacity="0.4"/>
<path d="M110.935 396.873C107.711 396.873 105.097 394.26 105.097 391.036C105.097 387.813 107.711 385.2 110.935 385.2C114.16 385.2 116.774 387.813 116.774 391.036C116.774 394.26 114.16 396.873 110.935 396.873Z" fill="#D2D6DB" fill-opacity="0.4"/>
<path d="M110.935 431.891C107.711 431.891 105.097 429.278 105.097 426.055C105.097 422.831 107.711 420.218 110.935 420.218C114.16 420.218 116.774 422.831 116.774 426.055C116.774 429.278 114.16 431.891 110.935 431.891Z" fill="#D2D6DB" fill-opacity="0.4"/>
<path d="M110.935 466.909C107.711 466.909 105.097 464.296 105.097 461.073C105.097 457.849 107.711 455.236 110.935 455.236C114.16 455.236 116.774 457.849 116.774 461.073C116.774 464.296 114.16 466.909 110.935 466.909Z" fill="#D2D6DB" fill-opacity="0.4"/>
<path d="M110.935 501.927C107.711 501.927 105.097 499.314 105.097 496.091C105.097 492.868 107.711 490.255 110.935 490.255C114.16 490.255 116.774 492.868 116.774 496.091C116.774 499.314 114.16 501.927 110.935 501.927Z" fill="#D2D6DB" fill-opacity="0.4"/>
<path d="M110.935 536.945C107.711 536.945 105.097 534.332 105.097 531.109C105.097 527.886 107.711 525.273 110.935 525.273C114.16 525.273 116.774 527.886 116.774 531.109C116.774 534.332 114.16 536.945 110.935 536.945Z" fill="#D2D6DB" fill-opacity="0.4"/>
<path d="M110.935 571.964C107.711 571.964 105.097 569.351 105.097 566.127C105.097 562.904 107.711 560.291 110.935 560.291C114.16 560.291 116.774 562.904 116.774 566.127C116.774 569.351 114.16 571.964 110.935 571.964Z" fill="#D2D6DB" fill-opacity="0.4"/>
<path d="M110.935 606.982C107.711 606.982 105.097 604.369 105.097 601.145C105.097 597.922 107.711 595.309 110.935 595.309C114.16 595.309 116.774 597.922 116.774 601.145C116.774 604.369 114.16 606.982 110.935 606.982Z" fill="#D2D6DB" fill-opacity="0.4"/>
<path d="M110.935 642C107.711 642 105.097 639.387 105.097 636.164C105.097 632.94 107.711 630.327 110.935 630.327C114.16 630.327 116.774 632.94 116.774 636.164C116.774 639.387 114.16 642 110.935 642Z" fill="#D2D6DB" fill-opacity="0.4"/>
<path d="M75.9032 11.6727C72.6786 11.6727 70.0645 9.0597 70.0645 5.83637C70.0645 2.61303 72.6786 2.92049e-06 75.9032 3.06139e-06C79.1279 3.20228e-06 81.742 2.61303 81.742 5.83637C81.742 9.0597 79.1279 11.6727 75.9032 11.6727Z" fill="#D2D6DB" fill-opacity="0.4"/>
<path d="M75.9032 46.6909C72.6786 46.6909 70.0645 44.0779 70.0645 40.8545C70.0645 37.6312 72.6786 35.0182 75.9032 35.0182C79.1279 35.0182 81.742 37.6312 81.742 40.8545C81.742 44.0779 79.1279 46.6909 75.9032 46.6909Z" fill="#D2D6DB" fill-opacity="0.4"/>
<path d="M75.9032 81.7091C72.6786 81.7091 70.0645 79.0961 70.0645 75.8727C70.0645 72.6494 72.6786 70.0364 75.9032 70.0364C79.1279 70.0364 81.742 72.6494 81.7419 75.8727C81.7419 79.0961 79.1279 81.7091 75.9032 81.7091Z" fill="#D2D6DB" fill-opacity="0.4"/>
<path d="M75.9032 116.727C72.6786 116.727 70.0645 114.114 70.0645 110.891C70.0645 107.668 72.6786 105.055 75.9032 105.055C79.1279 105.055 81.742 107.668 81.7419 110.891C81.7419 114.114 79.1279 116.727 75.9032 116.727Z" fill="#D2D6DB" fill-opacity="0.4"/>
<path d="M75.9032 151.745C72.6786 151.745 70.0645 149.132 70.0645 145.909C70.0645 142.686 72.6786 140.073 75.9032 140.073C79.1279 140.073 81.742 142.686 81.7419 145.909C81.7419 149.132 79.1279 151.745 75.9032 151.745Z" fill="#D2D6DB" fill-opacity="0.4"/>
<path d="M75.9032 186.764C72.6786 186.764 70.0645 184.151 70.0645 180.927C70.0645 177.704 72.6786 175.091 75.9032 175.091C79.1279 175.091 81.742 177.704 81.7419 180.927C81.7419 184.151 79.1279 186.764 75.9032 186.764Z" fill="#D2D6DB" fill-opacity="0.4"/>
<path d="M75.9032 221.782C72.6786 221.782 70.0645 219.169 70.0645 215.945C70.0645 212.722 72.6786 210.109 75.9032 210.109C79.1279 210.109 81.7419 212.722 81.7419 215.945C81.7419 219.169 79.1279 221.782 75.9032 221.782Z" fill="#D2D6DB" fill-opacity="0.4"/>
<path d="M75.9032 256.8C72.6786 256.8 70.0645 254.187 70.0645 250.964C70.0645 247.74 72.6786 245.127 75.9032 245.127C79.1279 245.127 81.7419 247.74 81.7419 250.964C81.7419 254.187 79.1279 256.8 75.9032 256.8Z" fill="#D2D6DB" fill-opacity="0.4"/>
<path d="M75.9032 291.818C72.6786 291.818 70.0645 289.205 70.0645 285.982C70.0645 282.758 72.6786 280.145 75.9032 280.145C79.1279 280.145 81.7419 282.758 81.7419 285.982C81.7419 289.205 79.1279 291.818 75.9032 291.818Z" fill="#D2D6DB" fill-opacity="0.4"/>
<path d="M75.9032 326.836C72.6786 326.836 70.0645 324.223 70.0645 321C70.0645 317.777 72.6786 315.164 75.9032 315.164C79.1279 315.164 81.7419 317.777 81.7419 321C81.7419 324.223 79.1279 326.836 75.9032 326.836Z" fill="#D2D6DB" fill-opacity="0.4"/>
<path d="M75.9032 361.855C72.6786 361.855 70.0645 359.242 70.0645 356.018C70.0645 352.795 72.6786 350.182 75.9032 350.182C79.1279 350.182 81.7419 352.795 81.7419 356.018C81.7419 359.242 79.1279 361.855 75.9032 361.855Z" fill="#D2D6DB" fill-opacity="0.4"/>
<path d="M75.9032 396.873C72.6786 396.873 70.0645 394.26 70.0645 391.036C70.0645 387.813 72.6786 385.2 75.9032 385.2C79.1279 385.2 81.7419 387.813 81.7419 391.036C81.7419 394.26 79.1279 396.873 75.9032 396.873Z" fill="#D2D6DB" fill-opacity="0.4"/>
<path d="M75.9032 431.891C72.6786 431.891 70.0645 429.278 70.0645 426.055C70.0645 422.831 72.6786 420.218 75.9032 420.218C79.1279 420.218 81.7419 422.831 81.7419 426.055C81.7419 429.278 79.1279 431.891 75.9032 431.891Z" fill="#D2D6DB" fill-opacity="0.4"/>
<path d="M75.9032 466.909C72.6786 466.909 70.0645 464.296 70.0645 461.073C70.0645 457.849 72.6786 455.236 75.9032 455.236C79.1279 455.236 81.7419 457.849 81.7419 461.073C81.7419 464.296 79.1279 466.909 75.9032 466.909Z" fill="#D2D6DB" fill-opacity="0.4"/>
<path d="M75.9032 501.927C72.6786 501.927 70.0645 499.314 70.0645 496.091C70.0645 492.868 72.6786 490.255 75.9032 490.255C79.1279 490.255 81.7419 492.868 81.7419 496.091C81.7419 499.314 79.1279 501.927 75.9032 501.927Z" fill="#D2D6DB" fill-opacity="0.4"/>
<path d="M75.9032 536.945C72.6786 536.945 70.0645 534.332 70.0645 531.109C70.0645 527.886 72.6786 525.273 75.9032 525.273C79.1279 525.273 81.7419 527.886 81.7419 531.109C81.7419 534.332 79.1279 536.945 75.9032 536.945Z" fill="#D2D6DB" fill-opacity="0.4"/>
<path d="M75.9032 571.964C72.6786 571.964 70.0645 569.351 70.0645 566.127C70.0645 562.904 72.6786 560.291 75.9032 560.291C79.1279 560.291 81.7419 562.904 81.7419 566.127C81.7419 569.351 79.1279 571.964 75.9032 571.964Z" fill="#D2D6DB" fill-opacity="0.4"/>
<path d="M75.9032 606.982C72.6786 606.982 70.0645 604.369 70.0645 601.145C70.0645 597.922 72.6786 595.309 75.9032 595.309C79.1279 595.309 81.7419 597.922 81.7419 601.145C81.7419 604.369 79.1279 606.982 75.9032 606.982Z" fill="#D2D6DB" fill-opacity="0.4"/>
<path d="M75.9032 642C72.6786 642 70.0645 639.387 70.0645 636.164C70.0645 632.94 72.6786 630.327 75.9032 630.327C79.1279 630.327 81.7419 632.94 81.7419 636.164C81.7419 639.387 79.1279 642 75.9032 642Z" fill="#D2D6DB" fill-opacity="0.4"/>
<path d="M40.871 11.6727C37.6464 11.6727 35.0323 9.0597 35.0323 5.83637C35.0323 2.61303 37.6464 1.3898e-06 40.871 1.53069e-06C44.0956 1.67159e-06 46.7097 2.61303 46.7097 5.83637C46.7097 9.0597 44.0956 11.6727 40.871 11.6727Z" fill="#D2D6DB" fill-opacity="0.4"/>
<path d="M40.871 46.6909C37.6464 46.6909 35.0323 44.0779 35.0323 40.8545C35.0323 37.6312 37.6464 35.0182 40.871 35.0182C44.0956 35.0182 46.7097 37.6312 46.7097 40.8545C46.7097 44.0779 44.0956 46.6909 40.871 46.6909Z" fill="#D2D6DB" fill-opacity="0.4"/>
<path d="M40.871 81.7091C37.6464 81.7091 35.0323 79.0961 35.0323 75.8727C35.0323 72.6494 37.6464 70.0364 40.871 70.0364C44.0956 70.0364 46.7097 72.6494 46.7097 75.8727C46.7097 79.0961 44.0956 81.7091 40.871 81.7091Z" fill="#D2D6DB" fill-opacity="0.4"/>
<path d="M40.871 116.727C37.6464 116.727 35.0323 114.114 35.0323 110.891C35.0323 107.668 37.6464 105.055 40.871 105.055C44.0956 105.055 46.7097 107.668 46.7097 110.891C46.7097 114.114 44.0956 116.727 40.871 116.727Z" fill="#D2D6DB" fill-opacity="0.4"/>
<path d="M40.871 151.745C37.6464 151.745 35.0323 149.132 35.0323 145.909C35.0323 142.686 37.6464 140.073 40.871 140.073C44.0956 140.073 46.7097 142.686 46.7097 145.909C46.7097 149.132 44.0956 151.745 40.871 151.745Z" fill="#D2D6DB" fill-opacity="0.4"/>
<path d="M40.871 186.764C37.6464 186.764 35.0323 184.151 35.0323 180.927C35.0323 177.704 37.6464 175.091 40.871 175.091C44.0956 175.091 46.7097 177.704 46.7097 180.927C46.7097 184.151 44.0956 186.764 40.871 186.764Z" fill="#D2D6DB" fill-opacity="0.4"/>
<path d="M40.871 221.782C37.6464 221.782 35.0323 219.169 35.0323 215.945C35.0323 212.722 37.6464 210.109 40.871 210.109C44.0956 210.109 46.7097 212.722 46.7097 215.945C46.7097 219.169 44.0956 221.782 40.871 221.782Z" fill="#D2D6DB" fill-opacity="0.4"/>
<path d="M40.871 256.8C37.6463 256.8 35.0323 254.187 35.0323 250.964C35.0323 247.74 37.6464 245.127 40.871 245.127C44.0956 245.127 46.7097 247.74 46.7097 250.964C46.7097 254.187 44.0956 256.8 40.871 256.8Z" fill="#D2D6DB" fill-opacity="0.4"/>
<path d="M40.871 291.818C37.6463 291.818 35.0323 289.205 35.0323 285.982C35.0323 282.758 37.6463 280.145 40.871 280.145C44.0956 280.145 46.7097 282.758 46.7097 285.982C46.7097 289.205 44.0956 291.818 40.871 291.818Z" fill="#D2D6DB" fill-opacity="0.4"/>
<path d="M40.871 326.836C37.6463 326.836 35.0323 324.223 35.0323 321C35.0323 317.777 37.6463 315.164 40.871 315.164C44.0956 315.164 46.7097 317.777 46.7097 321C46.7097 324.223 44.0956 326.836 40.871 326.836Z" fill="#D2D6DB" fill-opacity="0.4"/>
<path d="M40.871 361.855C37.6463 361.855 35.0323 359.242 35.0323 356.018C35.0323 352.795 37.6463 350.182 40.871 350.182C44.0956 350.182 46.7097 352.795 46.7097 356.018C46.7097 359.242 44.0956 361.855 40.871 361.855Z" fill="#D2D6DB" fill-opacity="0.4"/>
<path d="M40.871 396.873C37.6463 396.873 35.0323 394.26 35.0323 391.036C35.0323 387.813 37.6463 385.2 40.871 385.2C44.0956 385.2 46.7097 387.813 46.7097 391.036C46.7097 394.26 44.0956 396.873 40.871 396.873Z" fill="#D2D6DB" fill-opacity="0.4"/>
<path d="M40.871 431.891C37.6463 431.891 35.0323 429.278 35.0323 426.055C35.0323 422.831 37.6463 420.218 40.871 420.218C44.0956 420.218 46.7097 422.831 46.7097 426.055C46.7097 429.278 44.0956 431.891 40.871 431.891Z" fill="#D2D6DB" fill-opacity="0.4"/>
<path d="M40.871 466.909C37.6463 466.909 35.0323 464.296 35.0323 461.073C35.0323 457.849 37.6463 455.236 40.871 455.236C44.0956 455.236 46.7097 457.849 46.7097 461.073C46.7097 464.296 44.0956 466.909 40.871 466.909Z" fill="#D2D6DB" fill-opacity="0.4"/>
<path d="M40.871 501.927C37.6463 501.927 35.0323 499.314 35.0323 496.091C35.0323 492.868 37.6463 490.255 40.871 490.255C44.0956 490.255 46.7097 492.868 46.7097 496.091C46.7097 499.314 44.0956 501.927 40.871 501.927Z" fill="#D2D6DB" fill-opacity="0.4"/>
<path d="M40.871 536.945C37.6463 536.945 35.0323 534.332 35.0323 531.109C35.0323 527.886 37.6463 525.273 40.871 525.273C44.0956 525.273 46.7097 527.886 46.7097 531.109C46.7097 534.332 44.0956 536.945 40.871 536.945Z" fill="#D2D6DB" fill-opacity="0.4"/>
<path d="M40.871 571.964C37.6463 571.964 35.0323 569.351 35.0323 566.127C35.0323 562.904 37.6463 560.291 40.871 560.291C44.0956 560.291 46.7097 562.904 46.7097 566.127C46.7097 569.351 44.0956 571.964 40.871 571.964Z" fill="#D2D6DB" fill-opacity="0.4"/>
<path d="M40.871 606.982C37.6463 606.982 35.0323 604.369 35.0323 601.145C35.0323 597.922 37.6463 595.309 40.871 595.309C44.0956 595.309 46.7097 597.922 46.7097 601.145C46.7097 604.369 44.0956 606.982 40.871 606.982Z" fill="#D2D6DB" fill-opacity="0.4"/>
<path d="M40.871 642C37.6463 642 35.0323 639.387 35.0323 636.164C35.0323 632.94 37.6463 630.327 40.871 630.327C44.0956 630.327 46.7097 632.94 46.7097 636.164C46.7097 639.387 44.0956 642 40.871 642Z" fill="#D2D6DB" fill-opacity="0.4"/>
<path d="M5.83874 11.6727C2.61411 11.6727 2.74226e-05 9.0597 2.75636e-05 5.83636C2.77045e-05 2.61303 2.61411 -1.40896e-07 5.83874 0C9.06337 1.40896e-07 11.6774 2.61303 11.6774 5.83636C11.6774 9.0597 9.06337 11.6727 5.83874 11.6727Z" fill="#D2D6DB" fill-opacity="0.4"/>
<path d="M5.83874 46.6909C2.61411 46.6909 2.58913e-05 44.0779 2.60322e-05 40.8545C2.61732e-05 37.6312 2.61411 35.0182 5.83874 35.0182C9.06337 35.0182 11.6774 37.6312 11.6774 40.8545C11.6774 44.0779 9.06337 46.6909 5.83874 46.6909Z" fill="#D2D6DB" fill-opacity="0.4"/>
<path d="M5.83873 81.7091C2.6141 81.7091 2.436e-05 79.0961 2.45009e-05 75.8727C2.46419e-05 72.6494 2.6141 70.0364 5.83873 70.0364C9.06336 70.0364 11.6774 72.6494 11.6774 75.8727C11.6774 79.0961 9.06336 81.7091 5.83873 81.7091Z" fill="#D2D6DB" fill-opacity="0.4"/>
<path d="M5.83873 116.727C2.6141 116.727 2.28287e-05 114.114 2.29696e-05 110.891C2.31106e-05 107.668 2.6141 105.055 5.83873 105.055C9.06336 105.055 11.6774 107.668 11.6774 110.891C11.6774 114.114 9.06336 116.727 5.83873 116.727Z" fill="#D2D6DB" fill-opacity="0.4"/>
<path d="M5.83873 151.745C2.6141 151.745 2.12974e-05 149.132 2.14383e-05 145.909C2.15793e-05 142.686 2.6141 140.073 5.83873 140.073C9.06336 140.073 11.6774 142.686 11.6774 145.909C11.6774 149.132 9.06336 151.745 5.83873 151.745Z" fill="#D2D6DB" fill-opacity="0.4"/>
<path d="M5.83873 186.764C2.6141 186.764 1.97661e-05 184.151 1.9907e-05 180.927C2.0048e-05 177.704 2.6141 175.091 5.83873 175.091C9.06336 175.091 11.6774 177.704 11.6774 180.927C11.6774 184.151 9.06336 186.764 5.83873 186.764Z" fill="#D2D6DB" fill-opacity="0.4"/>
<path d="M5.83873 221.782C2.6141 221.782 1.82347e-05 219.169 1.83757e-05 215.945C1.85167e-05 212.722 2.6141 210.109 5.83873 210.109C9.06336 210.109 11.6774 212.722 11.6774 215.945C11.6774 219.169 9.06336 221.782 5.83873 221.782Z" fill="#D2D6DB" fill-opacity="0.4"/>
<path d="M5.83873 256.8C2.6141 256.8 1.67034e-05 254.187 1.68444e-05 250.964C1.69853e-05 247.74 2.6141 245.127 5.83873 245.127C9.06336 245.127 11.6774 247.74 11.6774 250.964C11.6774 254.187 9.06336 256.8 5.83873 256.8Z" fill="#D2D6DB" fill-opacity="0.4"/>
<path d="M5.83872 291.818C2.61409 291.818 1.51721e-05 289.205 1.53131e-05 285.982C1.5454e-05 282.758 2.61409 280.145 5.83873 280.145C9.06336 280.145 11.6774 282.758 11.6774 285.982C11.6774 289.205 9.06335 291.818 5.83872 291.818Z" fill="#D2D6DB" fill-opacity="0.4"/>
<path d="M5.83872 326.836C2.61409 326.836 1.36408e-05 324.223 1.37818e-05 321C1.39227e-05 317.777 2.61409 315.164 5.83872 315.164C9.06335 315.164 11.6774 317.777 11.6774 321C11.6774 324.223 9.06335 326.836 5.83872 326.836Z" fill="#D2D6DB" fill-opacity="0.4"/>
<path d="M5.83872 361.855C2.61409 361.855 1.21095e-05 359.242 1.22505e-05 356.018C1.23914e-05 352.795 2.61409 350.182 5.83872 350.182C9.06335 350.182 11.6774 352.795 11.6774 356.018C11.6774 359.242 9.06335 361.855 5.83872 361.855Z" fill="#D2D6DB" fill-opacity="0.4"/>
<path d="M5.83872 396.873C2.61409 396.873 1.05782e-05 394.26 1.07192e-05 391.036C1.08601e-05 387.813 2.61409 385.2 5.83872 385.2C9.06335 385.2 11.6774 387.813 11.6774 391.036C11.6774 394.26 9.06335 396.873 5.83872 396.873Z" fill="#D2D6DB" fill-opacity="0.4"/>
<path d="M5.83872 431.891C2.61409 431.891 9.0469e-06 429.278 9.18785e-06 426.055C9.3288e-06 422.831 2.61409 420.218 5.83872 420.218C9.06335 420.218 11.6774 422.831 11.6774 426.055C11.6774 429.278 9.06335 431.891 5.83872 431.891Z" fill="#D2D6DB" fill-opacity="0.4"/>
<path d="M5.83872 466.909C2.61409 466.909 7.51559e-06 464.296 7.65654e-06 461.073C7.7975e-06 457.849 2.61409 455.236 5.83872 455.236C9.06335 455.236 11.6774 457.849 11.6774 461.073C11.6774 464.296 9.06335 466.909 5.83872 466.909Z" fill="#D2D6DB" fill-opacity="0.4"/>
<path d="M5.83872 501.927C2.61409 501.927 5.98428e-06 499.314 6.12523e-06 496.091C6.26619e-06 492.868 2.61409 490.255 5.83872 490.255C9.06335 490.255 11.6774 492.868 11.6774 496.091C11.6774 499.314 9.06335 501.927 5.83872 501.927Z" fill="#D2D6DB" fill-opacity="0.4"/>
<path d="M5.83871 536.945C2.61408 536.945 4.45297e-06 534.332 4.59393e-06 531.109C4.73488e-06 527.886 2.61408 525.273 5.83871 525.273C9.06334 525.273 11.6774 527.886 11.6774 531.109C11.6774 534.332 9.06334 536.945 5.83871 536.945Z" fill="#D2D6DB" fill-opacity="0.4"/>
<path d="M5.83871 571.964C2.61408 571.964 2.92166e-06 569.351 3.06262e-06 566.127C3.20357e-06 562.904 2.61408 560.291 5.83871 560.291C9.06334 560.291 11.6774 562.904 11.6774 566.127C11.6774 569.351 9.06334 571.964 5.83871 571.964Z" fill="#D2D6DB" fill-opacity="0.4"/>
<path d="M5.83871 606.982C2.61408 606.982 1.39036e-06 604.369 1.53131e-06 601.145C1.67226e-06 597.922 2.61408 595.309 5.83871 595.309C9.06334 595.309 11.6774 597.922 11.6774 601.145C11.6774 604.369 9.06334 606.982 5.83871 606.982Z" fill="#D2D6DB" fill-opacity="0.4"/>
<path d="M5.83871 642C2.61408 642 -1.40953e-07 639.387 0 636.164C1.40953e-07 632.94 2.61408 630.327 5.83871 630.327C9.06334 630.327 11.6774 632.94 11.6774 636.164C11.6774 639.387 9.06334 642 5.83871 642Z" fill="#D2D6DB" fill-opacity="0.4"/>
</svg>
