<svg width="414" height="46" viewBox="0 0 414 46" fill="none" xmlns="http://www.w3.org/2000/svg">
<path d="M133.56 0H151.809C158.761 0 164.41 5.61599 164.41 12.528V30.672C164.41 33.9946 163.082 37.1811 160.719 39.5306C158.356 41.88 155.151 43.1999 151.809 43.1999H133.56C126.608 43.1999 120.959 37.584 120.959 30.672V12.528C120.959 9.20536 122.287 6.01882 124.65 3.66936C127.013 1.31991 130.218 0 133.56 0ZM133.125 4.31999C131.051 4.31999 129.062 5.13925 127.595 6.59753C126.128 8.05581 125.304 10.0337 125.304 12.096V31.104C125.304 35.4024 128.802 38.88 133.125 38.88H152.244C154.318 38.88 156.307 38.0607 157.774 36.6024C159.241 35.1441 160.065 33.1663 160.065 31.104V12.096C160.065 7.79759 156.567 4.31999 152.244 4.31999H133.125ZM154.09 7.55999C154.81 7.55999 155.501 7.84445 156.01 8.3508C156.52 8.85715 156.806 9.5439 156.806 10.26C156.806 10.9761 156.52 11.6628 156.01 12.1692C155.501 12.6755 154.81 12.96 154.09 12.96C153.37 12.96 152.679 12.6755 152.17 12.1692C151.661 11.6628 151.375 10.9761 151.375 10.26C151.375 9.5439 151.661 8.85715 152.17 8.3508C152.679 7.84445 153.37 7.55999 154.09 7.55999ZM142.684 10.8C145.565 10.8 148.328 11.9378 150.365 13.9632C152.403 15.9886 153.547 18.7356 153.547 21.6C153.547 24.4643 152.403 27.2113 150.365 29.2367C148.328 31.2621 145.565 32.4 142.684 32.4C139.803 32.4 137.04 31.2621 135.003 29.2367C132.966 27.2113 131.822 24.4643 131.822 21.6C131.822 18.7356 132.966 15.9886 135.003 13.9632C137.04 11.9378 139.803 10.8 142.684 10.8ZM142.684 15.12C140.956 15.12 139.298 15.8027 138.076 17.0179C136.853 18.2332 136.167 19.8814 136.167 21.6C136.167 23.3186 136.853 24.9668 138.076 26.182C139.298 27.3973 140.956 28.08 142.684 28.08C144.413 28.08 146.071 27.3973 147.293 26.182C148.515 24.9668 149.202 23.3186 149.202 21.6C149.202 19.8814 148.515 18.2332 147.293 17.0179C146.071 15.8027 144.413 15.12 142.684 15.12Z" fill="#FF0F00" fill-opacity="0.8"/>
<path d="M246.469 4.25211H256.07L259.164 11.9442L254.192 15.2396C253.899 15.4338 253.659 15.6968 253.493 16.0054C253.327 16.314 253.241 16.6585 253.241 17.0085C253.247 17.2083 253.241 17.0106 253.241 17.0106V17.0552C253.242 17.1503 253.246 17.2453 253.253 17.3401C253.266 17.5145 253.288 17.7504 253.328 18.0417C253.412 18.6158 253.572 19.4066 253.884 20.3379C254.513 22.2088 255.745 24.6304 258.144 27.0158C260.543 29.4012 262.979 30.6258 264.858 31.2509C265.797 31.5613 266.59 31.7186 267.172 31.8037C267.5 31.8493 267.831 31.8776 268.162 31.8887L268.19 31.8908H268.207C268.207 31.8908 268.447 31.8781 268.209 31.8908C268.606 31.8906 268.995 31.7805 269.333 31.5729C269.671 31.3652 269.943 31.0682 270.121 30.7151L271.554 27.8662L281.039 29.4395V38.6241C276.525 39.2725 264.332 39.9125 254.752 30.3877C245.173 20.863 245.814 8.73809 246.469 4.25211ZM257.673 18.0417L261.537 15.4819C262.354 14.9406 262.958 14.1366 263.249 13.2049C263.54 12.2731 263.499 11.2703 263.135 10.3645L260.041 2.67245C259.723 1.88348 259.175 1.20721 258.467 0.730857C257.76 0.254509 256.924 -5.69644e-05 256.07 9.56135e-09H246.357C244.414 9.56135e-09 242.585 1.34154 242.267 3.43783C241.54 8.20445 240.554 22.2832 251.729 33.394C262.904 44.5047 277.064 43.5225 281.858 42.8018C283.967 42.4829 285.316 40.6672 285.316 38.7346V29.4395C285.316 28.4329 284.957 27.459 284.303 26.6909C283.649 25.9228 282.741 25.4104 281.743 25.2448L272.257 23.6736C271.355 23.5239 270.428 23.6657 269.613 24.0782C268.798 24.4907 268.137 25.1522 267.728 25.9655L266.988 27.4389C266.727 27.3748 266.468 27.3004 266.212 27.2156C264.886 26.7777 263.045 25.8762 261.168 24.0096C259.29 22.1429 258.383 20.3123 257.943 18.9921C257.838 18.68 257.749 18.3628 257.676 18.0417H257.673Z" fill="#FF0F00" fill-opacity="0.8"/>
<path d="M368.229 3.75684V1.75684V3.75684ZM406.432 3.75684V1.75684V3.75684ZM362.771 37.5655H360.771H362.771ZM387.331 26.2959L386.197 27.9434C386.88 28.4134 387.782 28.4134 388.465 27.9434L387.331 26.2959ZM364.771 9.39161C364.771 8.40736 365.151 7.47577 365.807 6.79867L362.933 4.01578C361.542 5.45212 360.771 7.387 360.771 9.39161H364.771ZM365.807 6.79867C366.46 6.12374 367.333 5.75684 368.229 5.75684V1.75684C366.23 1.75684 364.327 2.57726 362.933 4.01578L365.807 6.79867ZM368.229 5.75684H406.432V1.75684H368.229V5.75684ZM406.432 5.75684C407.328 5.75684 408.201 6.12374 408.855 6.79867L411.728 4.01578C410.335 2.57726 408.431 1.75684 406.432 1.75684V5.75684ZM408.855 6.79867C409.51 7.47577 409.89 8.40736 409.89 9.39161H413.89C413.89 7.38699 413.119 5.45212 411.728 4.01578L408.855 6.79867ZM409.89 9.39161V37.5655H413.89V9.39161H409.89ZM409.89 37.5655C409.89 38.5497 409.51 39.4813 408.855 40.1584L411.728 42.9413C413.119 41.505 413.89 39.5701 413.89 37.5655H409.89ZM408.855 40.1584C408.201 40.8334 407.328 41.2003 406.432 41.2003V45.2003C408.431 45.2003 410.335 44.3798 411.728 42.9413L408.855 40.1584ZM406.432 41.2003H368.229V45.2003H406.432V41.2003ZM368.229 41.2003C367.333 41.2003 366.46 40.8334 365.807 40.1584L362.933 42.9413C364.327 44.3798 366.23 45.2003 368.229 45.2003V41.2003ZM365.807 40.1584C365.151 39.4813 364.771 38.5497 364.771 37.5655H360.771C360.771 39.5701 361.542 41.505 362.933 42.9413L365.807 40.1584ZM364.771 37.5655V9.39161H360.771V37.5655H364.771ZM361.638 11.0391L386.197 27.9434L388.465 24.6485L363.905 7.74415L361.638 11.0391ZM388.465 27.9434L413.024 11.0391L410.756 7.74415L386.197 24.6485L388.465 27.9434Z" fill="#FF0F00" fill-opacity="0.8"/>
<path fill-rule="evenodd" clip-rule="evenodd" d="M4.39781 21.6C4.39812 18.2746 5.36353 15.0199 7.1782 12.2264C8.99286 9.43297 11.5797 7.21945 14.6283 5.85146C17.6769 4.48347 21.0578 4.01912 24.3652 4.51412C27.6727 5.00913 30.7663 6.44246 33.2747 8.64213C35.7831 10.8418 37.5999 13.7144 38.507 16.9152C39.4141 20.116 39.373 23.509 38.3887 26.6871C37.4043 29.8653 35.5185 32.6935 32.9575 34.8325C30.3965 36.9715 27.2691 38.3304 23.9506 38.746V25.92H28.2957C28.8719 25.92 29.4245 25.6924 29.8319 25.2873C30.2394 24.8822 30.4683 24.3328 30.4683 23.76C30.4683 23.1871 30.2394 22.6377 29.8319 22.2326C29.4245 21.8275 28.8719 21.6 28.2957 21.6H23.9506V17.28C23.9506 16.7071 24.1795 16.1577 24.587 15.7526C24.9944 15.3476 25.547 15.12 26.1232 15.12H27.2095C27.7856 15.12 28.3382 14.8924 28.7457 14.4873C29.1531 14.0823 29.382 13.5329 29.382 12.96C29.382 12.3871 29.1531 11.8377 28.7457 11.4326C28.3382 11.0276 27.7856 10.8 27.2095 10.8H26.1232C24.3946 10.8 22.7368 11.4827 21.5145 12.6979C20.2922 13.9132 19.6056 15.5614 19.6056 17.28V21.6H15.2605C14.6843 21.6 14.1317 21.8275 13.7243 22.2326C13.3169 22.6377 13.088 23.1871 13.088 23.76C13.088 24.3328 13.3169 24.8822 13.7243 25.2873C14.1317 25.6924 14.6843 25.92 15.2605 25.92H19.6056V38.746C15.4054 38.2194 11.5429 36.187 8.74289 33.0301C5.94289 29.8733 4.39788 25.809 4.39781 21.6ZM21.7781 43.1999C33.777 43.1999 43.5035 33.5296 43.5035 21.6C43.5035 9.67031 33.777 0 21.7781 0C9.77918 0 0.0527344 9.67031 0.0527344 21.6C0.0527344 33.5296 9.77918 43.1999 21.7781 43.1999Z" fill="#FF0F00" fill-opacity="0.8"/>
</svg>
