<svg width="86" height="87" viewBox="0 0 86 87" fill="none" xmlns="http://www.w3.org/2000/svg">
<rect y="0.338867" width="86" height="86" rx="14.5763" fill="white" fill-opacity="0.26"/>
<path d="M59.394 57.4071H54.079V39.7079H59.394V57.4071ZM59.8487 33.3477C59.8487 35.1032 58.4276 36.5422 56.7223 36.5422C55.8856 36.5422 55.0831 36.2056 54.4915 35.6065C53.8998 35.0075 53.5674 34.1949 53.5674 33.3477C53.5674 31.5634 54.9885 30.1244 56.7223 30.1244C58.4276 30.1244 59.8487 31.5634 59.8487 33.3477ZM70.7061 57.4071H65.3627V39.7079H70.7061V57.4071ZM71.2177 33.3477C71.2177 35.1032 69.7965 36.5422 68.0344 36.5422C67.1976 36.5422 66.3952 36.2056 65.8035 35.6065C65.2119 35.0075 64.8795 34.1949 64.8795 33.3477C64.8614 32.9149 64.9299 32.4828 65.081 32.0775C65.2321 31.6722 65.4626 31.302 65.7587 30.9893C66.0548 30.6765 66.4103 30.4277 66.8038 30.2577C67.1973 30.0876 67.6207 30 68.0486 30C68.4764 30 68.8998 30.0876 69.2934 30.2577C69.6869 30.4277 70.0424 30.6765 70.3384 30.9893C70.6345 31.302 70.865 31.6722 71.0161 32.0775C71.1672 32.4828 71.2358 32.9149 71.2177 33.3477ZM45.3534 31.8224H51.0378L45.0123 53.2629C45.0123 53.2629 44.2165 57.6949 40.7489 57.6949C37.3098 57.6949 36.514 53.2629 36.514 53.2629L32.7054 39.2762L28.8968 53.2629C28.8968 53.2629 28.0726 57.6949 24.6335 57.6949C21.1944 57.6949 20.3986 53.2629 20.3986 53.2629L14.373 31.8224H20.0575L24.9461 50.8742L28.8968 35.4198C29.8064 31.5346 32.7054 31.5922 32.7054 31.5922C32.7054 31.5922 35.6045 31.5346 36.514 35.4198L40.4363 50.8742L45.3534 31.8224Z" fill="white"/>
</svg>
