<svg width="86" height="86" viewBox="0 0 86 86" fill="none" xmlns="http://www.w3.org/2000/svg">
<rect width="86" height="86" rx="14.5763" fill="white" fill-opacity="0.26"/>
<path d="M24.8032 63.9887C29.578 68.1777 35.7155 70.4835 42.0674 70.4745C48.4233 70.484 54.5651 68.1784 59.3446 63.9887C63.4481 59.8065 49.9071 44.9457 42.0674 39.0239C34.2355 44.9457 20.684 59.8065 24.798 63.9887M49.1986 32.4908C54.6639 38.9636 65.5602 55.0392 62.4826 60.7222C66.2587 56.0608 68.3146 50.2414 68.3046 44.2425C68.3094 40.7691 67.6216 37.3296 66.2813 34.1251C64.9411 30.9207 62.9753 28.0157 60.499 25.5799C60.499 25.5799 60.4387 25.5327 60.3206 25.4881C60.1233 25.4195 59.9156 25.3858 59.7067 25.3884C58.4105 25.3884 55.3644 26.3408 49.1986 32.4908ZM23.8193 25.4907C23.6934 25.5353 23.6409 25.5799 23.6304 25.5826C21.1557 28.0192 19.1913 30.9245 17.852 34.1288C16.5127 37.3331 15.8254 40.7722 15.8301 44.2451C15.8301 50.487 18.013 56.212 21.6469 60.7169C18.5876 55.0208 29.4761 38.9583 34.9439 32.4908C28.7782 26.3382 25.7268 25.3937 24.4359 25.3937C24.2265 25.3869 24.0178 25.4216 23.822 25.496L23.8193 25.4907ZM42.0674 25.7636C42.0674 25.7636 35.6287 21.9959 30.6017 21.8175C28.626 21.7467 27.4191 22.463 27.2748 22.5574C31.966 19.4142 36.9511 18 42.0359 18H42.0674C47.1705 18 52.1372 19.4116 56.8599 22.5574C56.713 22.4577 55.5166 21.7441 53.5383 21.8175C48.5086 21.9959 42.0674 25.7531 42.0674 25.7531V25.7636Z" fill="white"/>
</svg>
